<ttFont>
<head>
    <!-- Most of this table will be recalculated by the compiler -->
    <tableVersion value="1.0"/>
    <fontRevision value="2.201"/>
    <checkSumAdjustment value="0x73e15c70"/>
    <magicNumber value="0x5f0f3cf5"/>
    <flags value="00000000 00011011"/>
    <unitsPerEm value="1000"/>
    <created value="Sat Jan 23 04:20:28 2016"/>
    <modified value="Thu Mar 10 20:57:15 2016"/>
    <xMin value="-127"/>
    <yMin value="-271"/>
    <xMax value="985"/>
    <yMax value="1056"/>
    <macStyle value="00000000 00000010"/>
    <lowestRecPPEM value="5"/>
    <fontDirectionHint value="2"/>
    <indexToLocFormat value="0"/>
    <glyphDataFormat value="0"/>
  </head>
    <TTGlyph name=".notdef" xMin="0" yMin="-200" xMax="500" yMax="800">
      <contour>
        <pt x="0" y="800" on="1"/>
        <pt x="500" y="800" on="1"/>
        <pt x="500" y="-200" on="1"/>
        <pt x="0" y="-200" on="1"/>
      </contour>
      <contour>
        <pt x="250" y="360" on="1"/>
        <pt x="429" y="750" on="1"/>
        <pt x="71" y="750" on="1"/>
      </contour>
      <contour>
        <pt x="222" y="300" on="1"/>
        <pt x="50" y="676" on="1"/>
        <pt x="50" y="-76" on="1"/>
      </contour>
      <contour>
        <pt x="278" y="300" on="1"/>
        <pt x="450" y="-76" on="1"/>
        <pt x="450" y="676" on="1"/>
      </contour>
      <contour>
        <pt x="71" y="-150" on="1"/>
        <pt x="429" y="-150" on="1"/>
        <pt x="250" y="240" on="1"/>
      </contour>
    </TTGlyph>
    <TTGlyph name="A" xMin="-10" yMin="-8" xMax="566" yMax="727">
      <contour>
        <pt x="409" y="184" on="1"/>
        <pt x="202" y="184" on="1"/>
        <pt x="125" y="0" on="1"/>
        <pt x="-10" y="0" on="1"/>
        <pt x="315" y="727" on="1"/>
        <pt x="460" y="727" on="1"/>
        <pt x="566" y="17" on="1"/>
        <pt x="434" y="-8" on="1"/>
      </contour>
      <contour>
        <pt x="248" y="296" on="1"/>
        <pt x="397" y="296" on="1"/>
        <pt x="363" y="573" on="1"/>
      </contour>
    </TTGlyph>
    <TTGlyph name="A.flat" xMin="-10" yMin="0" xMax="569" yMax="727">
      <contour>
        <pt x="409" y="184" on="1"/>
        <pt x="202" y="184" on="1"/>
        <pt x="125" y="0" on="1"/>
        <pt x="-10" y="0" on="1"/>
        <pt x="315" y="727" on="1"/>
        <pt x="460" y="727" on="1"/>
        <pt x="569" y="0" on="1"/>
        <pt x="432" y="0" on="1"/>
      </contour>
      <contour>
        <pt x="248" y="296" on="1"/>
        <pt x="397" y="296" on="1"/>
        <pt x="363" y="573" on="1"/>
      </contour>
    </TTGlyph>
    <TTGlyph name="AE" xMin="-33" yMin="0" xMax="856" yMax="725">
      <contour>
        <pt x="-33" y="0" on="1"/>
        <pt x="407" y="725" on="1"/>
        <pt x="856" y="725" on="1"/>
        <pt x="839" y="609" on="1"/>
        <pt x="608" y="609" on="1"/>
        <pt x="582" y="435" on="1"/>
        <pt x="755" y="435" on="1"/>
        <pt x="755" y="318" on="1"/>
        <pt x="564" y="318" on="1"/>
        <pt x="533" y="115" on="1"/>
        <pt x="775" y="115" on="1"/>
        <pt x="757" y="0" on="1"/>
        <pt x="383" y="0" on="1"/>
        <pt x="411" y="185" on="1"/>
        <pt x="214" y="185" on="1"/>
        <pt x="102" y="0" on="1"/>
      </contour>
      <contour>
        <pt x="427" y="296" on="1"/>
        <pt x="478" y="636" on="1"/>
        <pt x="278" y="296" on="1"/>
      </contour>
    </TTGlyph>
    <TTGlyph name="AE.flat" xMin="-33" yMin="0" xMax="856" yMax="725">
      <contour>
        <pt x="-33" y="0" on="1"/>
        <pt x="407" y="725" on="1"/>
        <pt x="856" y="725" on="1"/>
        <pt x="839" y="609" on="1"/>
        <pt x="608" y="609" on="1"/>
        <pt x="582" y="435" on="1"/>
        <pt x="764" y="435" on="1"/>
        <pt x="747" y="318" on="1"/>
        <pt x="564" y="318" on="1"/>
        <pt x="533" y="115" on="1"/>
        <pt x="775" y="115" on="1"/>
        <pt x="757" y="0" on="1"/>
        <pt x="383" y="0" on="1"/>
        <pt x="411" y="185" on="1"/>
        <pt x="214" y="185" on="1"/>
        <pt x="102" y="0" on="1"/>
      </contour>
      <contour>
        <pt x="427" y="296" on="1"/>
        <pt x="478" y="636" on="1"/>
        <pt x="278" y="296" on="1"/>
      </contour>
    </TTGlyph>
    <TTGlyph name="AEacute" xMin="-33" yMin="0" xMax="856" yMax="933">
      <component glyphName="acute.cap" x="358" y="208" flags="0x4"/>
      <component glyphName="AE" x="0" y="0" flags="0x4"/>
    </TTGlyph>
    <TTGlyph name="AEacute.flat" xMin="-33" yMin="0" xMax="856" yMax="933">
      <component glyphName="acute.cap" x="358" y="208" flags="0x4"/>
      <component glyphName="AE.flat" x="0" y="0" flags="0x4"/>
    </TTGlyph>
    <TTGlyph name="Aacute" xMin="-10" yMin="-8" xMax="579" yMax="943">
      <component glyphName="A" x="0" y="0" flags="0x204"/>
      <component glyphName="acute.cap" x="182" y="218" flags="0x4"/>
    </TTGlyph>
    <TTGlyph name="Aacute.flat" xMin="-10" yMin="0" xMax="579" yMax="943">
      <component glyphName="acute.cap" x="182" y="218" flags="0x4"/>
      <component glyphName="A.flat" x="0" y="0" flags="0x4"/>
    </TTGlyph>
    <TTGlyph name="Abreve" xMin="-10" yMin="-8" xMax="566" yMax="930">
      <component glyphName="A" x="0" y="0" flags="0x204"/>
      <component glyphName="breve.cap" x="128" y="218" flags="0x4"/>
    </TTGlyph>
    <TTGlyph name="Abreve.flat" xMin="-10" yMin="0" xMax="569" yMax="930">
      <component glyphName="breve.cap" x="128" y="218" flags="0x4"/>
      <component glyphName="A.flat" x="0" y="0" flags="0x4"/>
    </TTGlyph>
    <TTGlyph name="Acircumflex" xMin="-10" yMin="-8" xMax="566" yMax="931">
      <component glyphName="A" x="0" y="0" flags="0x204"/>
      <component glyphName="circumflex.cap" x="128" y="212" flags="0x4"/>
    </TTGlyph>
    <TTGlyph name="Acircumflex.flat" xMin="-10" yMin="0" xMax="569" yMax="931">
      <component glyphName="A.flat" x="0" y="0" flags="0x204"/>
      <component glyphName="circumflex.cap" x="128" y="212" flags="0x4"/>
    </TTGlyph>
    <TTGlyph name="Adieresis" xMin="-10" yMin="-8" xMax="566" yMax="910">
      <component glyphName="A" x="0" y="0" flags="0x204"/>
      <component glyphName="dieresis.cap" x="130" y="218" flags="0x4"/>
    </TTGlyph>
    <TTGlyph name="Adieresis.flat" xMin="-10" yMin="0" xMax="569" yMax="910">
      <component glyphName="dieresis.cap" x="130" y="218" flags="0x4"/>
      <component glyphName="A.flat" x="0" y="0" flags="0x4"/>
    </TTGlyph>
    <TTGlyph name="Agrave" xMin="-10" yMin="-8" xMax="566" yMax="943">
      <component glyphName="A" x="0" y="0" flags="0x204"/>
      <component glyphName="grave.cap" x="70" y="218" flags="0x4"/>
    </TTGlyph>
    <TTGlyph name="Agrave.flat" xMin="-10" yMin="0" xMax="569" yMax="943">
      <component glyphName="grave.cap" x="70" y="218" flags="0x4"/>
      <component glyphName="A.flat" x="0" y="0" flags="0x4"/>
    </TTGlyph>
    <TTGlyph name="Amacron" xMin="-10" yMin="-8" xMax="566" yMax="894">
      <component glyphName="A" x="0" y="0" flags="0x204"/>
      <component glyphName="macron.cap" x="130" y="218" flags="0x4"/>
    </TTGlyph>
    <TTGlyph name="Amacron.flat" xMin="-10" yMin="0" xMax="569" yMax="894">
      <component glyphName="macron.cap" x="130" y="218" flags="0x4"/>
      <component glyphName="A.flat" x="0" y="0" flags="0x4"/>
    </TTGlyph>
    <TTGlyph name="Aogonek" xMin="-10" yMin="-199" xMax="566" yMax="727">
      <contour>
        <pt x="528" y="10" on="1"/>
        <pt x="507" y="-15" on="1"/>
        <pt x="481" y="-48" on="0"/>
        <pt x="460" y="-82" on="0"/>
        <pt x="460" y="-96" on="1"/>
        <pt x="460" y="-123" on="0"/>
        <pt x="497" y="-123" on="1"/>
        <pt x="508" y="-123" on="0"/>
        <pt x="528" y="-120" on="0"/>
        <pt x="540" y="-118" on="1"/>
        <pt x="530" y="-183" on="1"/>
        <pt x="511" y="-191" on="0"/>
        <pt x="471" y="-199" on="0"/>
        <pt x="448" y="-199" on="1"/>
        <pt x="407" y="-199" on="0"/>
        <pt x="364" y="-163" on="0"/>
        <pt x="364" y="-129" on="1"/>
        <pt x="364" y="-104" on="0"/>
        <pt x="391" y="-52" on="0"/>
        <pt x="424" y="-17" on="1"/>
        <pt x="427" y="-13" on="0"/>
        <pt x="434" y="-6" on="1"/>
        <pt x="409" y="184" on="1"/>
        <pt x="202" y="184" on="1"/>
        <pt x="125" y="0" on="1"/>
        <pt x="-10" y="0" on="1"/>
        <pt x="315" y="727" on="1"/>
        <pt x="460" y="727" on="1"/>
        <pt x="566" y="17" on="1"/>
      </contour>
      <contour>
        <pt x="248" y="296" on="1"/>
        <pt x="397" y="296" on="1"/>
        <pt x="363" y="573" on="1"/>
      </contour>
    </TTGlyph>
    <TTGlyph name="Aogonek.flat" xMin="-10" yMin="-199" xMax="569" yMax="727">
      <contour>
        <pt x="356" y="-129" on="1"/>
        <pt x="356" y="-100" on="0"/>
        <pt x="390" y="-42" on="0"/>
        <pt x="428" y="-4" on="1"/>
        <pt x="430" y="-2" on="1"/>
        <pt x="432" y="0" on="1"/>
        <pt x="409" y="184" on="1"/>
        <pt x="202" y="184" on="1"/>
        <pt x="125" y="0" on="1"/>
        <pt x="-10" y="0" on="1"/>
        <pt x="315" y="727" on="1"/>
        <pt x="460" y="727" on="1"/>
        <pt x="569" y="0" on="1"/>
        <pt x="512" y="0" on="1"/>
        <pt x="499" y="-15" on="1"/>
        <pt x="472" y="-47" on="0"/>
        <pt x="452" y="-82" on="0"/>
        <pt x="452" y="-96" on="1"/>
        <pt x="452" y="-123" on="0"/>
        <pt x="489" y="-123" on="1"/>
        <pt x="500" y="-123" on="0"/>
        <pt x="520" y="-120" on="0"/>
        <pt x="532" y="-118" on="1"/>
        <pt x="522" y="-183" on="1"/>
        <pt x="503" y="-191" on="0"/>
        <pt x="463" y="-199" on="0"/>
        <pt x="440" y="-199" on="1"/>
        <pt x="399" y="-199" on="0"/>
        <pt x="356" y="-163" on="0"/>
      </contour>
      <contour>
        <pt x="248" y="296" on="1"/>
        <pt x="397" y="296" on="1"/>
        <pt x="363" y="573" on="1"/>
      </contour>
    </TTGlyph>
    <TTGlyph name="Aring" xMin="-10" yMin="-8" xMax="566" yMax="877">
      <contour>
        <pt x="409" y="184" on="1"/>
        <pt x="202" y="184" on="1"/>
        <pt x="125" y="0" on="1"/>
        <pt x="-10" y="0" on="1"/>
        <pt x="299" y="692" on="1"/>
        <pt x="269" y="722" on="0"/>
        <pt x="269" y="768" on="1"/>
        <pt x="269" y="816" on="0"/>
        <pt x="335" y="877" on="0"/>
        <pt x="389" y="877" on="1"/>
        <pt x="443" y="877" on="0"/>
        <pt x="509" y="816" on="0"/>
        <pt x="509" y="768" on="1"/>
        <pt x="509" y="712" on="0"/>
        <pt x="467" y="682" on="1"/>
        <pt x="566" y="17" on="1"/>
        <pt x="434" y="-8" on="1"/>
      </contour>
      <contour>
        <pt x="248" y="296" on="1"/>
        <pt x="397" y="296" on="1"/>
        <pt x="363" y="573" on="1"/>
      </contour>
      <contour>
        <pt x="389" y="710" on="1"/>
        <pt x="414" y="710" on="0"/>
        <pt x="442" y="743" on="0"/>
        <pt x="442" y="768" on="1"/>
        <pt x="442" y="794" on="0"/>
        <pt x="414" y="826" on="0"/>
        <pt x="389" y="826" on="1"/>
        <pt x="365" y="826" on="0"/>
        <pt x="336" y="794" on="0"/>
        <pt x="336" y="768" on="1"/>
        <pt x="336" y="743" on="0"/>
        <pt x="365" y="710" on="0"/>
      </contour>
    </TTGlyph>
    <TTGlyph name="Aring.flat" xMin="-10" yMin="0" xMax="569" yMax="877">
      <contour>
        <pt x="409" y="184" on="1"/>
        <pt x="202" y="184" on="1"/>
        <pt x="125" y="0" on="1"/>
        <pt x="-10" y="0" on="1"/>
        <pt x="299" y="692" on="1"/>
        <pt x="269" y="722" on="0"/>
        <pt x="269" y="768" on="1"/>
        <pt x="269" y="816" on="0"/>
        <pt x="335" y="877" on="0"/>
        <pt x="389" y="877" on="1"/>
        <pt x="443" y="877" on="0"/>
        <pt x="509" y="816" on="0"/>
        <pt x="509" y="768" on="1"/>
        <pt x="509" y="712" on="0"/>
        <pt x="467" y="682" on="1"/>
        <pt x="569" y="0" on="1"/>
        <pt x="432" y="0" on="1"/>
      </contour>
      <contour>
        <pt x="248" y="296" on="1"/>
        <pt x="397" y="296" on="1"/>
        <pt x="363" y="573" on="1"/>
      </contour>
      <contour>
        <pt x="389" y="710" on="1"/>
        <pt x="414" y="710" on="0"/>
        <pt x="442" y="743" on="0"/>
        <pt x="442" y="768" on="1"/>
        <pt x="442" y="794" on="0"/>
        <pt x="414" y="826" on="0"/>
        <pt x="389" y="826" on="1"/>
        <pt x="365" y="826" on="0"/>
        <pt x="336" y="794" on="0"/>
        <pt x="336" y="768" on="1"/>
        <pt x="336" y="743" on="0"/>
        <pt x="365" y="710" on="0"/>
      </contour>
    </TTGlyph>
    <TTGlyph name="Aringacute" xMin="-10" yMin="-8" xMax="595" yMax="1056">
      <contour>
        <pt x="409" y="184" on="1"/>
        <pt x="202" y="184" on="1"/>
        <pt x="125" y="0" on="1"/>
        <pt x="-10" y="0" on="1"/>
        <pt x="299" y="692" on="1"/>
        <pt x="269" y="722" on="0"/>
        <pt x="269" y="768" on="1"/>
        <pt x="269" y="816" on="0"/>
        <pt x="335" y="877" on="0"/>
        <pt x="389" y="877" on="1"/>
        <pt x="443" y="877" on="0"/>
        <pt x="509" y="816" on="0"/>
        <pt x="509" y="768" on="1"/>
        <pt x="509" y="712" on="0"/>
        <pt x="467" y="682" on="1"/>
        <pt x="566" y="17" on="1"/>
        <pt x="434" y="-8" on="1"/>
      </contour>
      <contour>
        <pt x="248" y="296" on="1"/>
        <pt x="397" y="296" on="1"/>
        <pt x="363" y="573" on="1"/>
      </contour>
      <contour>
        <pt x="389" y="710" on="1"/>
        <pt x="414" y="710" on="0"/>
        <pt x="442" y="743" on="0"/>
        <pt x="442" y="768" on="1"/>
        <pt x="442" y="794" on="0"/>
        <pt x="414" y="826" on="0"/>
        <pt x="389" y="826" on="1"/>
        <pt x="365" y="826" on="0"/>
        <pt x="336" y="794" on="0"/>
        <pt x="336" y="768" on="1"/>
        <pt x="336" y="743" on="0"/>
        <pt x="365" y="710" on="0"/>
      </contour>
      <contour>
        <pt x="445" y="900" on="1"/>
        <pt x="363" y="900" on="1"/>
        <pt x="453" y="1056" on="1"/>
        <pt x="595" y="1027" on="1"/>
      </contour>
    </TTGlyph>
    <TTGlyph name="Aringacute.flat" xMin="-10" yMin="0" xMax="599" yMax="1056">
      <contour>
        <pt x="409" y="184" on="1"/>
        <pt x="202" y="184" on="1"/>
        <pt x="125" y="0" on="1"/>
        <pt x="-10" y="0" on="1"/>
        <pt x="299" y="692" on="1"/>
        <pt x="269" y="722" on="0"/>
        <pt x="269" y="768" on="1"/>
        <pt x="269" y="816" on="0"/>
        <pt x="335" y="877" on="0"/>
        <pt x="389" y="877" on="1"/>
        <pt x="443" y="877" on="0"/>
        <pt x="509" y="816" on="0"/>
        <pt x="509" y="768" on="1"/>
        <pt x="509" y="712" on="0"/>
        <pt x="467" y="682" on="1"/>
        <pt x="569" y="0" on="1"/>
        <pt x="432" y="0" on="1"/>
      </contour>
      <contour>
        <pt x="248" y="296" on="1"/>
        <pt x="397" y="296" on="1"/>
        <pt x="363" y="573" on="1"/>
      </contour>
      <contour>
        <pt x="389" y="710" on="1"/>
        <pt x="414" y="710" on="0"/>
        <pt x="442" y="743" on="0"/>
        <pt x="442" y="768" on="1"/>
        <pt x="442" y="794" on="0"/>
        <pt x="414" y="826" on="0"/>
        <pt x="389" y="826" on="1"/>
        <pt x="365" y="826" on="0"/>
        <pt x="336" y="794" on="0"/>
        <pt x="336" y="768" on="1"/>
        <pt x="336" y="743" on="0"/>
        <pt x="365" y="710" on="0"/>
      </contour>
      <contour>
        <pt x="449" y="900" on="1"/>
        <pt x="367" y="900" on="1"/>
        <pt x="457" y="1056" on="1"/>
        <pt x="599" y="1027" on="1"/>
      </contour>
    </TTGlyph>
    <TTGlyph name="Atilde" xMin="-10" yMin="-8" xMax="575" yMax="934">
      <component glyphName="A" x="0" y="0" flags="0x204"/>
      <component glyphName="tilde.cap" x="132" y="218" flags="0x4"/>
    </TTGlyph>
    <TTGlyph name="Atilde.flat" xMin="-10" yMin="0" xMax="575" yMax="934">
      <component glyphName="tilde.cap" x="132" y="218" flags="0x4"/>
      <component glyphName="A.flat" x="0" y="0" flags="0x4"/>
    </TTGlyph>
    <TTGlyph name="B" xMin="33" yMin="0" xMax="531" yMax="725">
      <contour>
        <pt x="531" y="557" on="1"/>
        <pt x="531" y="522" on="0"/>
        <pt x="510" y="466" on="0"/>
        <pt x="475" y="422" on="0"/>
        <pt x="429" y="391" on="0"/>
        <pt x="404" y="382" on="1"/>
        <pt x="449" y="362" on="0"/>
        <pt x="507" y="283" on="0"/>
        <pt x="507" y="224" on="1"/>
        <pt x="507" y="173" on="0"/>
        <pt x="468" y="90" on="0"/>
        <pt x="394" y="31" on="0"/>
        <pt x="287" y="0" on="0"/>
        <pt x="220" y="0" on="1"/>
        <pt x="33" y="0" on="1"/>
        <pt x="141" y="725" on="1"/>
        <pt x="302" y="725" on="1"/>
        <pt x="362" y="725" on="0"/>
        <pt x="449" y="699" on="0"/>
        <pt x="505" y="654" on="0"/>
        <pt x="531" y="593" on="0"/>
      </contour>
      <contour>
        <pt x="401" y="540" on="1"/>
        <pt x="401" y="576" on="0"/>
        <pt x="352" y="624" on="0"/>
        <pt x="294" y="624" on="1"/>
        <pt x="257" y="624" on="1"/>
        <pt x="227" y="425" on="1"/>
        <pt x="272" y="425" on="1"/>
        <pt x="327" y="425" on="0"/>
        <pt x="401" y="486" on="0"/>
      </contour>
      <contour>
        <pt x="376" y="225" on="1"/>
        <pt x="376" y="276" on="0"/>
        <pt x="313" y="328" on="0"/>
        <pt x="253" y="328" on="1"/>
        <pt x="213" y="328" on="1"/>
        <pt x="178" y="101" on="1"/>
        <pt x="229" y="101" on="1"/>
        <pt x="295" y="101" on="0"/>
        <pt x="376" y="167" on="0"/>
      </contour>
    </TTGlyph>
    <TTGlyph name="C" xMin="55" yMin="-12" xMax="567" yMax="737">
      <contour>
        <pt x="532" y="561" on="1"/>
        <pt x="506" y="586" on="0"/>
        <pt x="441" y="618" on="0"/>
        <pt x="404" y="618" on="1"/>
        <pt x="357" y="618" on="0"/>
        <pt x="280" y="568" on="0"/>
        <pt x="224" y="481" on="0"/>
        <pt x="193" y="365" on="0"/>
        <pt x="193" y="299" on="1"/>
        <pt x="193" y="199" on="0"/>
        <pt x="271" y="106" on="0"/>
        <pt x="333" y="106" on="1"/>
        <pt x="401" y="106" on="0"/>
        <pt x="478" y="160" on="1"/>
        <pt x="479" y="37" on="1"/>
        <pt x="447" y="17" on="0"/>
        <pt x="360" y="-12" on="0"/>
        <pt x="310" y="-12" on="1"/>
        <pt x="253" y="-12" on="0"/>
        <pt x="160" y="26" on="0"/>
        <pt x="92" y="101" on="0"/>
        <pt x="55" y="214" on="0"/>
        <pt x="55" y="288" on="1"/>
        <pt x="55" y="383" on="0"/>
        <pt x="106" y="547" on="0"/>
        <pt x="198" y="668" on="0"/>
        <pt x="324" y="737" on="0"/>
        <pt x="399" y="737" on="1"/>
        <pt x="450" y="737" on="0"/>
        <pt x="534" y="707" on="0"/>
        <pt x="567" y="684" on="1"/>
      </contour>
    </TTGlyph>
    <TTGlyph name="Cacute" xMin="55" yMin="-12" xMax="589" yMax="943">
      <component glyphName="C" x="0" y="0" flags="0x204"/>
      <component glyphName="acute.cap" x="192" y="218" flags="0x4"/>
    </TTGlyph>
    <TTGlyph name="Ccaron" xMin="55" yMin="-12" xMax="576" yMax="937">
      <component glyphName="C" x="0" y="0" flags="0x204"/>
      <component glyphName="caron.cap" x="140" y="218" flags="0x4"/>
    </TTGlyph>
    <TTGlyph name="Ccedilla" xMin="55" yMin="-199" xMax="567" yMax="737">
      <component glyphName="C" x="0" y="0" flags="0x204"/>
      <component glyphName="cedilla.cap" x="74" y="-5" flags="0x4"/>
    </TTGlyph>
    <TTGlyph name="Cdotaccent" xMin="55" yMin="-12" xMax="567" yMax="910">
      <component glyphName="dotaccent.cap" x="141" y="218" flags="0x4"/>
      <component glyphName="C" x="0" y="0" flags="0x4"/>
    </TTGlyph>
    <TTGlyph name="D" xMin="33" yMin="0" xMax="608" yMax="725">
      <contour>
        <pt x="608" y="429" on="1"/>
        <pt x="608" y="331" on="0"/>
        <pt x="548" y="167" on="0"/>
        <pt x="491" y="110" on="1"/>
        <pt x="438" y="57" on="0"/>
        <pt x="289" y="0" on="0"/>
        <pt x="186" y="0" on="1"/>
        <pt x="33" y="0" on="1"/>
        <pt x="142" y="725" on="1"/>
        <pt x="300" y="725" on="1"/>
        <pt x="447" y="725" on="0"/>
        <pt x="608" y="572" on="0"/>
      </contour>
      <contour>
        <pt x="470" y="427" on="1"/>
        <pt x="470" y="523" on="0"/>
        <pt x="382" y="615" on="0"/>
        <pt x="299" y="615" on="1"/>
        <pt x="259" y="615" on="1"/>
        <pt x="184" y="109" on="1"/>
        <pt x="210" y="111" on="1"/>
        <pt x="270" y="111" on="0"/>
        <pt x="355" y="147" on="0"/>
        <pt x="386" y="178" on="1"/>
        <pt x="428" y="219" on="0"/>
        <pt x="470" y="352" on="0"/>
      </contour>
    </TTGlyph>
    <TTGlyph name="Dcaron" xMin="33" yMin="0" xMax="608" yMax="927">
      <component glyphName="caron.cap" x="99" y="208" flags="0x4"/>
      <component glyphName="D" x="0" y="0" flags="0x4"/>
    </TTGlyph>
    <TTGlyph name="Dcroat" xMin="34" yMin="0" xMax="625" yMax="725">
      <component glyphName="Eth" x="0" y="0" flags="0x204"/>
    </TTGlyph>
    <TTGlyph name="Dcroat.flat" xMin="24" yMin="0" xMax="625" yMax="725">
      <component glyphName="Eth.flat" x="0" y="0" flags="0x204"/>
    </TTGlyph>
    <TTGlyph name="E" xMin="33" yMin="0" xMax="509" yMax="725">
      <contour>
        <pt x="492" y="609" on="1"/>
        <pt x="258" y="609" on="1"/>
        <pt x="232" y="435" on="1"/>
        <pt x="409" y="435" on="1"/>
        <pt x="409" y="318" on="1"/>
        <pt x="214" y="318" on="1"/>
        <pt x="184" y="115" on="1"/>
        <pt x="427" y="115" on="1"/>
        <pt x="410" y="0" on="1"/>
        <pt x="33" y="0" on="1"/>
        <pt x="141" y="725" on="1"/>
        <pt x="509" y="725" on="1"/>
      </contour>
    </TTGlyph>
    <TTGlyph name="E.flat" xMin="33" yMin="0" xMax="509" yMax="725">
      <contour>
        <pt x="492" y="609" on="1"/>
        <pt x="258" y="609" on="1"/>
        <pt x="232" y="435" on="1"/>
        <pt x="417" y="435" on="1"/>
        <pt x="400" y="318" on="1"/>
        <pt x="214" y="318" on="1"/>
        <pt x="184" y="115" on="1"/>
        <pt x="427" y="115" on="1"/>
        <pt x="410" y="0" on="1"/>
        <pt x="33" y="0" on="1"/>
        <pt x="141" y="725" on="1"/>
        <pt x="509" y="725" on="1"/>
      </contour>
    </TTGlyph>
    <TTGlyph name="Eacute" xMin="33" yMin="0" xMax="516" yMax="933">
      <component glyphName="acute.cap" x="119" y="208" flags="0x4"/>
      <component glyphName="E" x="0" y="0" flags="0x4"/>
    </TTGlyph>
    <TTGlyph name="Eacute.flat" xMin="33" yMin="0" xMax="516" yMax="933">
      <component glyphName="E.flat" x="0" y="0" flags="0x204"/>
      <component glyphName="acute.cap" x="119" y="208" flags="0x4"/>
    </TTGlyph>
    <TTGlyph name="Ebreve" xMin="33" yMin="0" xMax="509" yMax="920">
      <component glyphName="breve.cap" x="65" y="208" flags="0x4"/>
      <component glyphName="E" x="0" y="0" flags="0x4"/>
    </TTGlyph>
    <TTGlyph name="Ebreve.flat" xMin="33" yMin="0" xMax="509" yMax="920">
      <component glyphName="breve.cap" x="65" y="208" flags="0x4"/>
      <component glyphName="E.flat" x="0" y="0" flags="0x4"/>
    </TTGlyph>
    <TTGlyph name="Ecaron" xMin="33" yMin="0" xMax="509" yMax="927">
      <component glyphName="caron.cap" x="68" y="208" flags="0x4"/>
      <component glyphName="E" x="0" y="0" flags="0x4"/>
    </TTGlyph>
    <TTGlyph name="Ecaron.flat" xMin="33" yMin="0" xMax="509" yMax="927">
      <component glyphName="E.flat" x="0" y="0" flags="0x204"/>
      <component glyphName="caron.cap" x="68" y="208" flags="0x4"/>
    </TTGlyph>
    <TTGlyph name="Ecircumflex" xMin="33" yMin="0" xMax="509" yMax="927">
      <component glyphName="E" x="0" y="0" flags="0x204"/>
      <component glyphName="circumflex.cap" x="65" y="208" flags="0x4"/>
    </TTGlyph>
    <TTGlyph name="Ecircumflex.flat" xMin="33" yMin="0" xMax="509" yMax="927">
      <component glyphName="E.flat" x="0" y="0" flags="0x204"/>
      <component glyphName="circumflex.cap" x="65" y="208" flags="0x4"/>
    </TTGlyph>
    <TTGlyph name="Edieresis" xMin="33" yMin="0" xMax="509" yMax="900">
      <component glyphName="dieresis.cap" x="67" y="208" flags="0x4"/>
      <component glyphName="E" x="0" y="0" flags="0x4"/>
    </TTGlyph>
    <TTGlyph name="Edieresis.flat" xMin="33" yMin="0" xMax="509" yMax="900">
      <component glyphName="E.flat" x="0" y="0" flags="0x204"/>
      <component glyphName="dieresis.cap" x="67" y="208" flags="0x4"/>
    </TTGlyph>
    <TTGlyph name="Edotaccent" xMin="33" yMin="0" xMax="509" yMax="900">
      <component glyphName="dotaccent.cap" x="67" y="208" flags="0x4"/>
      <component glyphName="E" x="0" y="0" flags="0x4"/>
    </TTGlyph>
    <TTGlyph name="Edotaccent.flat" xMin="33" yMin="0" xMax="509" yMax="900">
      <component glyphName="dotaccent.cap" x="67" y="208" flags="0x4"/>
      <component glyphName="E.flat" x="0" y="0" flags="0x4"/>
    </TTGlyph>
    <TTGlyph name="Egrave" xMin="33" yMin="0" xMax="509" yMax="933">
      <component glyphName="grave.cap" x="6" y="208" flags="0x4"/>
      <component glyphName="E" x="0" y="0" flags="0x4"/>
    </TTGlyph>
    <TTGlyph name="Egrave.flat" xMin="33" yMin="0" xMax="509" yMax="933">
      <component glyphName="grave.cap" x="6" y="208" flags="0x4"/>
      <component glyphName="E.flat" x="0" y="0" flags="0x4"/>
    </TTGlyph>
    <TTGlyph name="Emacron" xMin="33" yMin="0" xMax="509" yMax="884">
      <component glyphName="macron.cap" x="67" y="208" flags="0x4"/>
      <component glyphName="E" x="0" y="0" flags="0x4"/>
    </TTGlyph>
    <TTGlyph name="Emacron.flat" xMin="33" yMin="0" xMax="509" yMax="884">
      <component glyphName="E.flat" x="0" y="0" flags="0x204"/>
      <component glyphName="macron.cap" x="67" y="208" flags="0x4"/>
    </TTGlyph>
    <TTGlyph name="Eogonek" xMin="33" yMin="-199" xMax="509" yMax="725">
      <contour>
        <pt x="492" y="609" on="1"/>
        <pt x="258" y="609" on="1"/>
        <pt x="232" y="435" on="1"/>
        <pt x="409" y="435" on="1"/>
        <pt x="409" y="318" on="1"/>
        <pt x="214" y="318" on="1"/>
        <pt x="184" y="115" on="1"/>
        <pt x="427" y="115" on="1"/>
        <pt x="410" y="0" on="1"/>
        <pt x="378" y="0" on="1"/>
        <pt x="365" y="-15" on="1"/>
        <pt x="339" y="-48" on="0"/>
        <pt x="318" y="-82" on="0"/>
        <pt x="318" y="-96" on="1"/>
        <pt x="318" y="-123" on="0"/>
        <pt x="355" y="-123" on="1"/>
        <pt x="366" y="-123" on="0"/>
        <pt x="386" y="-120" on="0"/>
        <pt x="398" y="-118" on="1"/>
        <pt x="388" y="-183" on="1"/>
        <pt x="369" y="-191" on="0"/>
        <pt x="329" y="-199" on="0"/>
        <pt x="306" y="-199" on="1"/>
        <pt x="265" y="-199" on="0"/>
        <pt x="222" y="-163" on="0"/>
        <pt x="222" y="-129" on="1"/>
        <pt x="222" y="-103" on="0"/>
        <pt x="253" y="-46" on="0"/>
        <pt x="288" y="-10" on="1"/>
        <pt x="298" y="0" on="1"/>
        <pt x="33" y="0" on="1"/>
        <pt x="141" y="725" on="1"/>
        <pt x="509" y="725" on="1"/>
      </contour>
    </TTGlyph>
    <TTGlyph name="Eogonek.flat" xMin="33" yMin="-199" xMax="509" yMax="725">
      <contour>
        <pt x="492" y="609" on="1"/>
        <pt x="258" y="609" on="1"/>
        <pt x="232" y="435" on="1"/>
        <pt x="417" y="435" on="1"/>
        <pt x="400" y="318" on="1"/>
        <pt x="214" y="318" on="1"/>
        <pt x="184" y="115" on="1"/>
        <pt x="427" y="115" on="1"/>
        <pt x="410" y="0" on="1"/>
        <pt x="378" y="0" on="1"/>
        <pt x="365" y="-15" on="1"/>
        <pt x="339" y="-48" on="0"/>
        <pt x="318" y="-82" on="0"/>
        <pt x="318" y="-96" on="1"/>
        <pt x="318" y="-123" on="0"/>
        <pt x="355" y="-123" on="1"/>
        <pt x="366" y="-123" on="0"/>
        <pt x="386" y="-120" on="0"/>
        <pt x="398" y="-118" on="1"/>
        <pt x="388" y="-183" on="1"/>
        <pt x="369" y="-191" on="0"/>
        <pt x="329" y="-199" on="0"/>
        <pt x="306" y="-199" on="1"/>
        <pt x="265" y="-199" on="0"/>
        <pt x="222" y="-163" on="0"/>
        <pt x="222" y="-129" on="1"/>
        <pt x="222" y="-102" on="0"/>
        <pt x="253" y="-46" on="0"/>
        <pt x="288" y="-10" on="1"/>
        <pt x="298" y="0" on="1"/>
        <pt x="33" y="0" on="1"/>
        <pt x="141" y="725" on="1"/>
        <pt x="509" y="725" on="1"/>
      </contour>
    </TTGlyph>
    <TTGlyph name="Eth" xMin="34" yMin="0" xMax="625" yMax="725">
      <contour>
        <pt x="625" y="429" on="1"/>
        <pt x="625" y="331" on="0"/>
        <pt x="564" y="167" on="0"/>
        <pt x="507" y="110" on="1"/>
        <pt x="454" y="57" on="0"/>
        <pt x="306" y="0" on="0"/>
        <pt x="202" y="0" on="1"/>
        <pt x="50" y="0" on="1"/>
        <pt x="97" y="317" on="1"/>
        <pt x="34" y="317" on="1"/>
        <pt x="34" y="433" on="1"/>
        <pt x="115" y="433" on="1"/>
        <pt x="158" y="725" on="1"/>
        <pt x="317" y="725" on="1"/>
        <pt x="464" y="725" on="0"/>
        <pt x="625" y="572" on="0"/>
      </contour>
      <contour>
        <pt x="232" y="319" on="1"/>
        <pt x="200" y="109" on="1"/>
        <pt x="226" y="111" on="1"/>
        <pt x="286" y="111" on="0"/>
        <pt x="371" y="147" on="0"/>
        <pt x="402" y="178" on="1"/>
        <pt x="444" y="219" on="0"/>
        <pt x="487" y="352" on="0"/>
        <pt x="487" y="427" on="1"/>
        <pt x="487" y="523" on="0"/>
        <pt x="398" y="615" on="0"/>
        <pt x="315" y="615" on="1"/>
        <pt x="276" y="615" on="1"/>
        <pt x="249" y="432" on="1"/>
        <pt x="367" y="432" on="1"/>
        <pt x="349" y="319" on="1"/>
      </contour>
    </TTGlyph>
    <TTGlyph name="Eth.flat" xMin="24" yMin="0" xMax="625" yMax="725">
      <contour>
        <pt x="625" y="429" on="1"/>
        <pt x="625" y="331" on="0"/>
        <pt x="564" y="167" on="0"/>
        <pt x="507" y="110" on="1"/>
        <pt x="454" y="57" on="0"/>
        <pt x="306" y="0" on="0"/>
        <pt x="202" y="0" on="1"/>
        <pt x="50" y="0" on="1"/>
        <pt x="97" y="317" on="1"/>
        <pt x="24" y="317" on="1"/>
        <pt x="42" y="433" on="1"/>
        <pt x="115" y="433" on="1"/>
        <pt x="158" y="725" on="1"/>
        <pt x="317" y="725" on="1"/>
        <pt x="464" y="725" on="0"/>
        <pt x="625" y="572" on="0"/>
      </contour>
      <contour>
        <pt x="232" y="319" on="1"/>
        <pt x="200" y="109" on="1"/>
        <pt x="226" y="111" on="1"/>
        <pt x="286" y="111" on="0"/>
        <pt x="371" y="147" on="0"/>
        <pt x="402" y="178" on="1"/>
        <pt x="444" y="219" on="0"/>
        <pt x="487" y="352" on="0"/>
        <pt x="487" y="427" on="1"/>
        <pt x="487" y="523" on="0"/>
        <pt x="398" y="615" on="0"/>
        <pt x="315" y="615" on="1"/>
        <pt x="276" y="615" on="1"/>
        <pt x="249" y="432" on="1"/>
        <pt x="367" y="432" on="1"/>
        <pt x="349" y="319" on="1"/>
      </contour>
    </TTGlyph>
    <TTGlyph name="Euro" xMin="36" yMin="-13" xMax="609" yMax="730">
      <contour>
        <pt x="452" y="240" on="1"/>
        <pt x="247" y="240" on="1"/>
        <pt x="266" y="95" on="0"/>
        <pt x="382" y="95" on="1"/>
        <pt x="449" y="95" on="0"/>
        <pt x="520" y="145" on="1"/>
        <pt x="520" y="33" on="1"/>
        <pt x="491" y="15" on="0"/>
        <pt x="412" y="-13" on="0"/>
        <pt x="366" y="-13" on="1"/>
        <pt x="257" y="-13" on="0"/>
        <pt x="129" y="114" on="0"/>
        <pt x="118" y="240" on="1"/>
        <pt x="36" y="240" on="1"/>
        <pt x="36" y="316" on="1"/>
        <pt x="116" y="316" on="1"/>
        <pt x="117" y="340" on="0"/>
        <pt x="122" y="385" on="0"/>
        <pt x="126" y="408" on="1"/>
        <pt x="55" y="408" on="1"/>
        <pt x="66" y="485" on="1"/>
        <pt x="146" y="485" on="1"/>
        <pt x="164" y="539" on="0"/>
        <pt x="221" y="629" on="0"/>
        <pt x="296" y="694" on="0"/>
        <pt x="388" y="730" on="0"/>
        <pt x="442" y="730" on="1"/>
        <pt x="496" y="730" on="0"/>
        <pt x="577" y="701" on="0"/>
        <pt x="609" y="678" on="1"/>
        <pt x="576" y="569" on="1"/>
        <pt x="546" y="594" on="0"/>
        <pt x="481" y="623" on="0"/>
        <pt x="443" y="623" on="1"/>
        <pt x="388" y="623" on="0"/>
        <pt x="303" y="549" on="0"/>
        <pt x="277" y="485" on="1"/>
        <pt x="483" y="485" on="1"/>
        <pt x="483" y="408" on="1"/>
        <pt x="254" y="408" on="1"/>
        <pt x="250" y="386" on="0"/>
        <pt x="245" y="341" on="0"/>
        <pt x="244" y="316" on="1"/>
        <pt x="464" y="316" on="1"/>
      </contour>
    </TTGlyph>
    <TTGlyph name="Euro.flat" xMin="31" yMin="-13" xMax="609" yMax="730">
      <contour>
        <pt x="452" y="240" on="1"/>
        <pt x="247" y="240" on="1"/>
        <pt x="266" y="95" on="0"/>
        <pt x="382" y="95" on="1"/>
        <pt x="449" y="95" on="0"/>
        <pt x="520" y="145" on="1"/>
        <pt x="520" y="33" on="1"/>
        <pt x="491" y="15" on="0"/>
        <pt x="412" y="-13" on="0"/>
        <pt x="366" y="-13" on="1"/>
        <pt x="257" y="-13" on="0"/>
        <pt x="129" y="114" on="0"/>
        <pt x="118" y="240" on="1"/>
        <pt x="31" y="240" on="1"/>
        <pt x="42" y="316" on="1"/>
        <pt x="116" y="316" on="1"/>
        <pt x="117" y="340" on="0"/>
        <pt x="122" y="385" on="0"/>
        <pt x="126" y="408" on="1"/>
        <pt x="55" y="408" on="1"/>
        <pt x="66" y="485" on="1"/>
        <pt x="146" y="485" on="1"/>
        <pt x="164" y="539" on="0"/>
        <pt x="221" y="629" on="0"/>
        <pt x="296" y="694" on="0"/>
        <pt x="388" y="730" on="0"/>
        <pt x="442" y="730" on="1"/>
        <pt x="496" y="730" on="0"/>
        <pt x="577" y="701" on="0"/>
        <pt x="609" y="678" on="1"/>
        <pt x="576" y="569" on="1"/>
        <pt x="546" y="594" on="0"/>
        <pt x="481" y="623" on="0"/>
        <pt x="443" y="623" on="1"/>
        <pt x="388" y="623" on="0"/>
        <pt x="303" y="549" on="0"/>
        <pt x="277" y="485" on="1"/>
        <pt x="488" y="485" on="1"/>
        <pt x="477" y="408" on="1"/>
        <pt x="254" y="408" on="1"/>
        <pt x="250" y="386" on="0"/>
        <pt x="245" y="341" on="0"/>
        <pt x="244" y="316" on="1"/>
        <pt x="464" y="316" on="1"/>
      </contour>
    </TTGlyph>
    <TTGlyph name="Euro.tab" xMin="37" yMin="-11" xMax="558" yMax="731">
      <contour>
        <pt x="232" y="408" on="1"/>
        <pt x="228" y="387" on="0"/>
        <pt x="223" y="341" on="0"/>
        <pt x="222" y="317" on="1"/>
        <pt x="419" y="317" on="1"/>
        <pt x="407" y="240" on="1"/>
        <pt x="223" y="240" on="1"/>
        <pt x="230" y="159" on="0"/>
        <pt x="294" y="91" on="0"/>
        <pt x="345" y="91" on="1"/>
        <pt x="375" y="91" on="0"/>
        <pt x="438" y="117" on="0"/>
        <pt x="469" y="139" on="1"/>
        <pt x="469" y="33" on="1"/>
        <pt x="440" y="13" on="0"/>
        <pt x="367" y="-11" on="0"/>
        <pt x="328" y="-11" on="1"/>
        <pt x="231" y="-11" on="0"/>
        <pt x="114" y="115" on="0"/>
        <pt x="106" y="240" on="1"/>
        <pt x="37" y="240" on="1"/>
        <pt x="37" y="317" on="1"/>
        <pt x="106" y="317" on="1"/>
        <pt x="108" y="340" on="0"/>
        <pt x="112" y="386" on="0"/>
        <pt x="117" y="408" on="1"/>
        <pt x="56" y="408" on="1"/>
        <pt x="68" y="484" on="1"/>
        <pt x="136" y="484" on="1"/>
        <pt x="153" y="538" on="0"/>
        <pt x="206" y="629" on="0"/>
        <pt x="275" y="695" on="0"/>
        <pt x="358" y="731" on="0"/>
        <pt x="406" y="731" on="1"/>
        <pt x="452" y="731" on="0"/>
        <pt x="526" y="703" on="0"/>
        <pt x="558" y="679" on="1"/>
        <pt x="523" y="575" on="1"/>
        <pt x="495" y="601" on="0"/>
        <pt x="438" y="629" on="0"/>
        <pt x="406" y="629" on="1"/>
        <pt x="356" y="629" on="0"/>
        <pt x="278" y="550" on="0"/>
        <pt x="253" y="484" on="1"/>
        <pt x="439" y="484" on="1"/>
        <pt x="439" y="408" on="1"/>
      </contour>
    </TTGlyph>
    <TTGlyph name="Euro.tab_flat" xMin="32" yMin="-11" xMax="558" yMax="731">
      <contour>
        <pt x="232" y="408" on="1"/>
        <pt x="228" y="387" on="0"/>
        <pt x="223" y="341" on="0"/>
        <pt x="222" y="317" on="1"/>
        <pt x="419" y="317" on="1"/>
        <pt x="407" y="240" on="1"/>
        <pt x="223" y="240" on="1"/>
        <pt x="230" y="159" on="0"/>
        <pt x="294" y="91" on="0"/>
        <pt x="345" y="91" on="1"/>
        <pt x="375" y="91" on="0"/>
        <pt x="438" y="117" on="0"/>
        <pt x="469" y="139" on="1"/>
        <pt x="469" y="33" on="1"/>
        <pt x="440" y="13" on="0"/>
        <pt x="367" y="-11" on="0"/>
        <pt x="328" y="-11" on="1"/>
        <pt x="231" y="-11" on="0"/>
        <pt x="114" y="115" on="0"/>
        <pt x="106" y="240" on="1"/>
        <pt x="32" y="240" on="1"/>
        <pt x="42" y="317" on="1"/>
        <pt x="106" y="317" on="1"/>
        <pt x="108" y="340" on="0"/>
        <pt x="112" y="386" on="0"/>
        <pt x="117" y="408" on="1"/>
        <pt x="56" y="408" on="1"/>
        <pt x="68" y="484" on="1"/>
        <pt x="136" y="484" on="1"/>
        <pt x="153" y="538" on="0"/>
        <pt x="206" y="629" on="0"/>
        <pt x="275" y="695" on="0"/>
        <pt x="358" y="731" on="0"/>
        <pt x="406" y="731" on="1"/>
        <pt x="452" y="731" on="0"/>
        <pt x="526" y="703" on="0"/>
        <pt x="558" y="679" on="1"/>
        <pt x="523" y="575" on="1"/>
        <pt x="495" y="601" on="0"/>
        <pt x="438" y="629" on="0"/>
        <pt x="406" y="629" on="1"/>
        <pt x="356" y="629" on="0"/>
        <pt x="278" y="550" on="0"/>
        <pt x="253" y="484" on="1"/>
        <pt x="444" y="484" on="1"/>
        <pt x="433" y="408" on="1"/>
      </contour>
    </TTGlyph>
    <TTGlyph name="F" xMin="33" yMin="0" xMax="501" yMax="725">
      <contour>
        <pt x="483" y="606" on="1"/>
        <pt x="258" y="606" on="1"/>
        <pt x="230" y="419" on="1"/>
        <pt x="398" y="419" on="1"/>
        <pt x="398" y="301" on="1"/>
        <pt x="212" y="301" on="1"/>
        <pt x="168" y="0" on="1"/>
        <pt x="33" y="0" on="1"/>
        <pt x="141" y="725" on="1"/>
        <pt x="501" y="725" on="1"/>
      </contour>
    </TTGlyph>
    <TTGlyph name="F.flat" xMin="33" yMin="0" xMax="501" yMax="725">
      <contour>
        <pt x="483" y="606" on="1"/>
        <pt x="258" y="606" on="1"/>
        <pt x="230" y="419" on="1"/>
        <pt x="407" y="419" on="1"/>
        <pt x="389" y="301" on="1"/>
        <pt x="212" y="301" on="1"/>
        <pt x="168" y="0" on="1"/>
        <pt x="33" y="0" on="1"/>
        <pt x="141" y="725" on="1"/>
        <pt x="501" y="725" on="1"/>
      </contour>
    </TTGlyph>
    <TTGlyph name="G" xMin="55" yMin="-13" xMax="601" yMax="737">
      <contour>
        <pt x="530" y="50" on="1"/>
        <pt x="492" y="26" on="0"/>
        <pt x="387" y="-13" on="0"/>
        <pt x="322" y="-13" on="1"/>
        <pt x="260" y="-13" on="0"/>
        <pt x="162" y="27" on="0"/>
        <pt x="92" y="103" on="0"/>
        <pt x="55" y="215" on="0"/>
        <pt x="55" y="287" on="1"/>
        <pt x="55" y="381" on="0"/>
        <pt x="108" y="545" on="0"/>
        <pt x="202" y="667" on="0"/>
        <pt x="333" y="737" on="0"/>
        <pt x="411" y="737" on="1"/>
        <pt x="468" y="737" on="0"/>
        <pt x="563" y="707" on="0"/>
        <pt x="601" y="684" on="1"/>
        <pt x="564" y="563" on="1"/>
        <pt x="530" y="589" on="0"/>
        <pt x="455" y="620" on="0"/>
        <pt x="412" y="620" on="1"/>
        <pt x="365" y="620" on="0"/>
        <pt x="284" y="569" on="0"/>
        <pt x="225" y="480" on="0"/>
        <pt x="192" y="361" on="0"/>
        <pt x="192" y="294" on="1"/>
        <pt x="192" y="243" on="0"/>
        <pt x="214" y="169" on="0"/>
        <pt x="252" y="122" on="0"/>
        <pt x="304" y="99" on="0"/>
        <pt x="334" y="99" on="1"/>
        <pt x="361" y="99" on="0"/>
        <pt x="400" y="111" on="0"/>
        <pt x="417" y="121" on="1"/>
        <pt x="443" y="297" on="1"/>
        <pt x="335" y="297" on="1"/>
        <pt x="335" y="406" on="1"/>
        <pt x="582" y="406" on="1"/>
      </contour>
    </TTGlyph>
    <TTGlyph name="G.flat" xMin="55" yMin="-13" xMax="601" yMax="737">
      <contour>
        <pt x="530" y="50" on="1"/>
        <pt x="492" y="26" on="0"/>
        <pt x="387" y="-13" on="0"/>
        <pt x="322" y="-13" on="1"/>
        <pt x="260" y="-13" on="0"/>
        <pt x="162" y="27" on="0"/>
        <pt x="92" y="103" on="0"/>
        <pt x="55" y="215" on="0"/>
        <pt x="55" y="287" on="1"/>
        <pt x="55" y="381" on="0"/>
        <pt x="108" y="545" on="0"/>
        <pt x="202" y="667" on="0"/>
        <pt x="333" y="737" on="0"/>
        <pt x="411" y="737" on="1"/>
        <pt x="468" y="737" on="0"/>
        <pt x="563" y="707" on="0"/>
        <pt x="601" y="684" on="1"/>
        <pt x="564" y="563" on="1"/>
        <pt x="530" y="589" on="0"/>
        <pt x="455" y="620" on="0"/>
        <pt x="412" y="620" on="1"/>
        <pt x="365" y="620" on="0"/>
        <pt x="284" y="569" on="0"/>
        <pt x="225" y="480" on="0"/>
        <pt x="192" y="361" on="0"/>
        <pt x="192" y="294" on="1"/>
        <pt x="192" y="243" on="0"/>
        <pt x="214" y="169" on="0"/>
        <pt x="252" y="122" on="0"/>
        <pt x="304" y="99" on="0"/>
        <pt x="334" y="99" on="1"/>
        <pt x="361" y="99" on="0"/>
        <pt x="400" y="111" on="0"/>
        <pt x="417" y="121" on="1"/>
        <pt x="443" y="297" on="1"/>
        <pt x="327" y="297" on="1"/>
        <pt x="343" y="406" on="1"/>
        <pt x="582" y="406" on="1"/>
      </contour>
    </TTGlyph>
    <TTGlyph name="Gbreve" xMin="55" yMin="-13" xMax="601" yMax="930">
      <component glyphName="breve.cap" x="149" y="218" flags="0x4"/>
      <component glyphName="G" x="0" y="0" flags="0x4"/>
    </TTGlyph>
    <TTGlyph name="Gbreve.flat" xMin="55" yMin="-13" xMax="601" yMax="930">
      <component glyphName="breve.cap" x="149" y="218" flags="0x4"/>
      <component glyphName="G.flat" x="0" y="0" flags="0x4"/>
    </TTGlyph>
    <TTGlyph name="Gcommaaccent" xMin="55" yMin="-261" xMax="601" yMax="737">
      <component glyphName="G" x="0" y="0" flags="0x204"/>
      <component glyphName="commaaccent.cap" x="92" y="-8" flags="0x4"/>
    </TTGlyph>
    <TTGlyph name="Gcommaaccent.flat" xMin="55" yMin="-261" xMax="601" yMax="737">
      <component glyphName="G.flat" x="0" y="0" flags="0x204"/>
      <component glyphName="commaaccent.cap" x="92" y="-8" flags="0x4"/>
    </TTGlyph>
    <TTGlyph name="Gdotaccent" xMin="55" yMin="-13" xMax="601" yMax="910">
      <component glyphName="dotaccent.cap" x="151" y="218" flags="0x4"/>
      <component glyphName="G" x="0" y="0" flags="0x4"/>
    </TTGlyph>
    <TTGlyph name="Gdotaccent.flat" xMin="55" yMin="-13" xMax="601" yMax="910">
      <component glyphName="dotaccent.cap" x="151" y="218" flags="0x4"/>
      <component glyphName="G.flat" x="0" y="0" flags="0x4"/>
    </TTGlyph>
    <TTGlyph name="H" xMin="33" yMin="0" xMax="641" yMax="725">
      <contour>
        <pt x="532" y="0" on="1"/>
        <pt x="398" y="0" on="1"/>
        <pt x="445" y="314" on="1"/>
        <pt x="215" y="314" on="1"/>
        <pt x="168" y="0" on="1"/>
        <pt x="33" y="0" on="1"/>
        <pt x="141" y="725" on="1"/>
        <pt x="276" y="725" on="1"/>
        <pt x="233" y="437" on="1"/>
        <pt x="463" y="437" on="1"/>
        <pt x="506" y="725" on="1"/>
        <pt x="641" y="725" on="1"/>
      </contour>
    </TTGlyph>
    <TTGlyph name="Hbar" xMin="51" yMin="0" xMax="718" yMax="725">
      <contour>
        <pt x="629" y="536" on="1"/>
        <pt x="549" y="0" on="1"/>
        <pt x="414" y="0" on="1"/>
        <pt x="460" y="309" on="1"/>
        <pt x="232" y="309" on="1"/>
        <pt x="186" y="0" on="1"/>
        <pt x="51" y="0" on="1"/>
        <pt x="131" y="536" on="1"/>
        <pt x="64" y="536" on="1"/>
        <pt x="65" y="634" on="1"/>
        <pt x="145" y="634" on="1"/>
        <pt x="159" y="725" on="1"/>
        <pt x="293" y="725" on="1"/>
        <pt x="280" y="634" on="1"/>
        <pt x="509" y="634" on="1"/>
        <pt x="523" y="725" on="1"/>
        <pt x="657" y="725" on="1"/>
        <pt x="643" y="634" on="1"/>
        <pt x="718" y="634" on="1"/>
        <pt x="704" y="536" on="1"/>
      </contour>
      <contour>
        <pt x="478" y="426" on="1"/>
        <pt x="495" y="542" on="1"/>
        <pt x="266" y="542" on="1"/>
        <pt x="249" y="426" on="1"/>
      </contour>
    </TTGlyph>
    <TTGlyph name="Hbar.flat" xMin="51" yMin="0" xMax="718" yMax="725">
      <contour>
        <pt x="629" y="536" on="1"/>
        <pt x="549" y="0" on="1"/>
        <pt x="414" y="0" on="1"/>
        <pt x="460" y="309" on="1"/>
        <pt x="232" y="309" on="1"/>
        <pt x="186" y="0" on="1"/>
        <pt x="51" y="0" on="1"/>
        <pt x="131" y="536" on="1"/>
        <pt x="57" y="536" on="1"/>
        <pt x="72" y="634" on="1"/>
        <pt x="145" y="634" on="1"/>
        <pt x="159" y="725" on="1"/>
        <pt x="293" y="725" on="1"/>
        <pt x="280" y="634" on="1"/>
        <pt x="509" y="634" on="1"/>
        <pt x="523" y="725" on="1"/>
        <pt x="657" y="725" on="1"/>
        <pt x="643" y="634" on="1"/>
        <pt x="718" y="634" on="1"/>
        <pt x="704" y="536" on="1"/>
      </contour>
      <contour>
        <pt x="478" y="426" on="1"/>
        <pt x="495" y="542" on="1"/>
        <pt x="266" y="542" on="1"/>
        <pt x="249" y="426" on="1"/>
      </contour>
    </TTGlyph>
    <TTGlyph name="I" xMin="37" yMin="0" xMax="280" yMax="725">
      <contour>
        <pt x="172" y="0" on="1"/>
        <pt x="37" y="0" on="1"/>
        <pt x="145" y="725" on="1"/>
        <pt x="280" y="725" on="1"/>
      </contour>
    </TTGlyph>
    <TTGlyph name="Iacute" xMin="37" yMin="0" xMax="404" yMax="933">
      <component glyphName="I" x="0" y="0" flags="0x204"/>
      <component glyphName="acute.cap" x="7" y="208" flags="0x4"/>
    </TTGlyph>
    <TTGlyph name="Ibreve" xMin="37" yMin="0" xMax="379" yMax="920">
      <component glyphName="I" x="0" y="0" flags="0x204"/>
      <component glyphName="breve.cap" x="-47" y="208" flags="0x4"/>
    </TTGlyph>
    <TTGlyph name="Icircumflex" xMin="37" yMin="0" xMax="368" yMax="927">
      <component glyphName="I" x="0" y="0" flags="0x204"/>
      <component glyphName="circumflex.cap" x="-47" y="208" flags="0x4"/>
    </TTGlyph>
    <TTGlyph name="Idieresis" xMin="37" yMin="0" xMax="383" yMax="900">
      <component glyphName="I" x="0" y="0" flags="0x204"/>
      <component glyphName="dieresis.cap" x="-45" y="208" flags="0x4"/>
    </TTGlyph>
    <TTGlyph name="Idotaccent" xMin="37" yMin="0" xMax="297" yMax="900">
      <component glyphName="I" x="0" y="0" flags="0x204"/>
      <component glyphName="dotaccent.cap" x="-44" y="208" flags="0x4"/>
    </TTGlyph>
    <TTGlyph name="Igrave" xMin="37" yMin="0" xMax="280" yMax="933">
      <component glyphName="I" x="0" y="0" flags="0x204"/>
      <component glyphName="grave.cap" x="-105" y="208" flags="0x4"/>
    </TTGlyph>
    <TTGlyph name="Imacron" xMin="37" yMin="0" xMax="378" yMax="884">
      <component glyphName="I" x="0" y="0" flags="0x204"/>
      <component glyphName="macron.cap" x="-45" y="208" flags="0x4"/>
    </TTGlyph>
    <TTGlyph name="Iogonek" xMin="-9" yMin="-199" xMax="280" yMax="725">
      <contour>
        <pt x="172" y="0" on="1"/>
        <pt x="147" y="0" on="1"/>
        <pt x="134" y="-15" on="1"/>
        <pt x="108" y="-48" on="0"/>
        <pt x="87" y="-82" on="0"/>
        <pt x="87" y="-96" on="1"/>
        <pt x="87" y="-123" on="0"/>
        <pt x="124" y="-123" on="1"/>
        <pt x="135" y="-123" on="0"/>
        <pt x="155" y="-120" on="0"/>
        <pt x="167" y="-118" on="1"/>
        <pt x="157" y="-183" on="1"/>
        <pt x="138" y="-191" on="0"/>
        <pt x="98" y="-199" on="0"/>
        <pt x="75" y="-199" on="1"/>
        <pt x="34" y="-199" on="0"/>
        <pt x="-9" y="-163" on="0"/>
        <pt x="-9" y="-129" on="1"/>
        <pt x="-9" y="-102" on="0"/>
        <pt x="22" y="-46" on="0"/>
        <pt x="57" y="-10" on="1"/>
        <pt x="67" y="0" on="1"/>
        <pt x="37" y="0" on="1"/>
        <pt x="145" y="725" on="1"/>
        <pt x="280" y="725" on="1"/>
      </contour>
    </TTGlyph>
    <TTGlyph name="J" xMin="6" yMin="-7" xMax="389" yMax="725">
      <contour>
        <pt x="310" y="193" on="1"/>
        <pt x="293" y="86" on="0"/>
        <pt x="184" y="-7" on="0"/>
        <pt x="89" y="-7" on="1"/>
        <pt x="39" y="-7" on="0"/>
        <pt x="6" y="2" on="1"/>
        <pt x="6" y="122" on="1"/>
        <pt x="23" y="117" on="0"/>
        <pt x="57" y="111" on="0"/>
        <pt x="77" y="111" on="1"/>
        <pt x="116" y="111" on="0"/>
        <pt x="169" y="152" on="0"/>
        <pt x="177" y="208" on="1"/>
        <pt x="254" y="725" on="1"/>
        <pt x="389" y="725" on="1"/>
      </contour>
    </TTGlyph>
    <TTGlyph name="K" xMin="33" yMin="-8" xMax="624" yMax="725">
      <contour>
        <pt x="352" y="375" on="1"/>
        <pt x="529" y="18" on="1"/>
        <pt x="393" y="-8" on="1"/>
        <pt x="220" y="351" on="1"/>
        <pt x="168" y="0" on="1"/>
        <pt x="33" y="0" on="1"/>
        <pt x="87" y="362" on="1"/>
        <pt x="97" y="430" on="0"/>
        <pt x="116" y="560" on="0"/>
        <pt x="124" y="611" on="1"/>
        <pt x="133" y="671" on="0"/>
        <pt x="141" y="725" on="1"/>
        <pt x="276" y="725" on="1"/>
        <pt x="227" y="402" on="1"/>
        <pt x="469" y="725" on="1"/>
        <pt x="624" y="725" on="1"/>
      </contour>
    </TTGlyph>
    <TTGlyph name="K.flat" xMin="33" yMin="0" xMax="624" yMax="725">
      <contour>
        <pt x="352" y="375" on="1"/>
        <pt x="537" y="0" on="1"/>
        <pt x="389" y="0" on="1"/>
        <pt x="220" y="351" on="1"/>
        <pt x="168" y="0" on="1"/>
        <pt x="33" y="0" on="1"/>
        <pt x="87" y="362" on="1"/>
        <pt x="97" y="430" on="0"/>
        <pt x="116" y="560" on="0"/>
        <pt x="124" y="611" on="1"/>
        <pt x="133" y="671" on="0"/>
        <pt x="141" y="725" on="1"/>
        <pt x="276" y="725" on="1"/>
        <pt x="227" y="402" on="1"/>
        <pt x="469" y="725" on="1"/>
        <pt x="624" y="725" on="1"/>
      </contour>
    </TTGlyph>
    <TTGlyph name="Kcommaaccent" xMin="33" yMin="-246" xMax="624" yMax="725">
      <component glyphName="K" x="0" y="0" flags="0x204"/>
      <component glyphName="commaaccent.cap" x="63" y="7" flags="0x4"/>
    </TTGlyph>
    <TTGlyph name="Kcommaaccent.flat" xMin="33" yMin="-246" xMax="624" yMax="725">
      <component glyphName="K.flat" x="0" y="0" flags="0x204"/>
      <component glyphName="commaaccent.cap" x="63" y="7" flags="0x4"/>
    </TTGlyph>
    <TTGlyph name="L" xMin="33" yMin="0" xMax="393" yMax="725">
      <contour>
        <pt x="33" y="0" on="1"/>
        <pt x="142" y="725" on="1"/>
        <pt x="276" y="725" on="1"/>
        <pt x="186" y="121" on="1"/>
        <pt x="393" y="121" on="1"/>
        <pt x="393" y="0" on="1"/>
      </contour>
    </TTGlyph>
    <TTGlyph name="L.flat" xMin="33" yMin="0" xMax="402" yMax="725">
      <contour>
        <pt x="33" y="0" on="1"/>
        <pt x="142" y="725" on="1"/>
        <pt x="276" y="725" on="1"/>
        <pt x="186" y="121" on="1"/>
        <pt x="402" y="121" on="1"/>
        <pt x="383" y="0" on="1"/>
      </contour>
    </TTGlyph>
    <TTGlyph name="Lacute" xMin="33" yMin="0" xMax="409" yMax="935">
      <component glyphName="acute.cap" x="12" y="210" flags="0x4"/>
      <component glyphName="L" x="0" y="0" flags="0x4"/>
    </TTGlyph>
    <TTGlyph name="Lacute.flat" xMin="33" yMin="0" xMax="409" yMax="935">
      <component glyphName="acute.cap" x="12" y="210" flags="0x4"/>
      <component glyphName="L.flat" x="0" y="0" flags="0x4"/>
    </TTGlyph>
    <TTGlyph name="Lcaron" xMin="33" yMin="0" xMax="440" yMax="731">
      <component glyphName="L" x="0" y="0" flags="0x204"/>
      <component glyphName="caron.alt.cap" x="89" y="-19" flags="0x4"/>
    </TTGlyph>
    <TTGlyph name="Lcaron.flat" xMin="33" yMin="0" xMax="439" yMax="731">
      <component glyphName="L.flat" x="0" y="0" flags="0x204"/>
      <component glyphName="caron.alt.cap" x="88" y="-19" flags="0x4"/>
    </TTGlyph>
    <TTGlyph name="Lcommaaccent" xMin="33" yMin="-253" xMax="393" yMax="725">
      <component glyphName="L" x="0" y="0" flags="0x204"/>
      <component glyphName="commaaccent.cap" x="-1" y="0" flags="0x4"/>
    </TTGlyph>
    <TTGlyph name="Lcommaaccent.flat" xMin="33" yMin="-253" xMax="402" yMax="725">
      <component glyphName="L.flat" x="0" y="0" flags="0x204"/>
      <component glyphName="commaaccent.cap" x="-5" y="0" flags="0x4"/>
    </TTGlyph>
    <TTGlyph name="Ldot" xMin="34" yMin="0" xMax="443" yMax="725">
      <contour>
        <pt x="313" y="322" on="1"/>
        <pt x="331" y="442" on="1"/>
        <pt x="443" y="442" on="1"/>
        <pt x="425" y="322" on="1"/>
      </contour>
      <contour>
        <pt x="34" y="0" on="1"/>
        <pt x="143" y="725" on="1"/>
        <pt x="277" y="725" on="1"/>
        <pt x="187" y="121" on="1"/>
        <pt x="394" y="121" on="1"/>
        <pt x="394" y="0" on="1"/>
      </contour>
    </TTGlyph>
    <TTGlyph name="Ldot.flat" xMin="34" yMin="0" xMax="444" yMax="725">
      <contour>
        <pt x="314" y="322" on="1"/>
        <pt x="332" y="442" on="1"/>
        <pt x="444" y="442" on="1"/>
        <pt x="426" y="322" on="1"/>
      </contour>
      <contour>
        <pt x="34" y="0" on="1"/>
        <pt x="143" y="725" on="1"/>
        <pt x="277" y="725" on="1"/>
        <pt x="187" y="121" on="1"/>
        <pt x="403" y="121" on="1"/>
        <pt x="384" y="0" on="1"/>
      </contour>
    </TTGlyph>
    <TTGlyph name="Lslash" xMin="35" yMin="0" xMax="416" yMax="725">
      <contour>
        <pt x="56" y="0" on="1"/>
        <pt x="95" y="262" on="1"/>
        <pt x="35" y="233" on="1"/>
        <pt x="35" y="348" on="1"/>
        <pt x="114" y="385" on="1"/>
        <pt x="165" y="725" on="1"/>
        <pt x="299" y="725" on="1"/>
        <pt x="258" y="452" on="1"/>
        <pt x="391" y="515" on="1"/>
        <pt x="371" y="391" on="1"/>
        <pt x="240" y="329" on="1"/>
        <pt x="209" y="121" on="1"/>
        <pt x="416" y="121" on="1"/>
        <pt x="416" y="0" on="1"/>
      </contour>
    </TTGlyph>
    <TTGlyph name="Lslash.flat" xMin="23" yMin="0" xMax="421" yMax="725">
      <contour>
        <pt x="56" y="0" on="1"/>
        <pt x="95" y="262" on="1"/>
        <pt x="23" y="227" on="1"/>
        <pt x="42" y="352" on="1"/>
        <pt x="114" y="385" on="1"/>
        <pt x="165" y="725" on="1"/>
        <pt x="299" y="725" on="1"/>
        <pt x="258" y="452" on="1"/>
        <pt x="391" y="515" on="1"/>
        <pt x="371" y="391" on="1"/>
        <pt x="240" y="329" on="1"/>
        <pt x="209" y="121" on="1"/>
        <pt x="421" y="121" on="1"/>
        <pt x="411" y="0" on="1"/>
      </contour>
    </TTGlyph>
    <TTGlyph name="M" xMin="17" yMin="-3" xMax="806" yMax="725">
      <contour>
        <pt x="744" y="0" on="1"/>
        <pt x="612" y="0" on="1"/>
        <pt x="662" y="539" on="1"/>
        <pt x="435" y="-3" on="1"/>
        <pt x="314" y="-3" on="1"/>
        <pt x="249" y="538" on="1"/>
        <pt x="138" y="0" on="1"/>
        <pt x="17" y="0" on="1"/>
        <pt x="171" y="725" on="1"/>
        <pt x="342" y="725" on="1"/>
        <pt x="408" y="184" on="1"/>
        <pt x="634" y="725" on="1"/>
        <pt x="806" y="725" on="1"/>
      </contour>
    </TTGlyph>
    <TTGlyph name="M.alt" xMin="33" yMin="-4" xMax="824" yMax="725">
      <contour>
        <pt x="588" y="0" on="1"/>
        <pt x="667" y="530" on="1"/>
        <pt x="429" y="-4" on="1"/>
        <pt x="310" y="-4" on="1"/>
        <pt x="230" y="530" on="1"/>
        <pt x="151" y="0" on="1"/>
        <pt x="33" y="0" on="1"/>
        <pt x="141" y="725" on="1"/>
        <pt x="316" y="725" on="1"/>
        <pt x="400" y="179" on="1"/>
        <pt x="645" y="725" on="1"/>
        <pt x="824" y="725" on="1"/>
        <pt x="716" y="0" on="1"/>
      </contour>
    </TTGlyph>
    <TTGlyph name="N" xMin="33" yMin="0" xMax="639" yMax="725">
      <contour>
        <pt x="639" y="725" on="1"/>
        <pt x="639" y="725" on="0"/>
        <pt x="629" y="662" on="0"/>
        <pt x="614" y="560" on="0"/>
        <pt x="595" y="430" on="0"/>
        <pt x="585" y="362" on="1"/>
        <pt x="531" y="0" on="1"/>
        <pt x="423" y="0" on="1"/>
        <pt x="230" y="498" on="1"/>
        <pt x="156" y="0" on="1"/>
        <pt x="33" y="0" on="1"/>
        <pt x="141" y="725" on="1"/>
        <pt x="269" y="725" on="1"/>
        <pt x="447" y="261" on="1"/>
        <pt x="515" y="725" on="1"/>
        <pt x="639" y="725" on="1"/>
      </contour>
    </TTGlyph>
    <TTGlyph name="Nacute" xMin="33" yMin="0" xMax="639" yMax="927">
      <component glyphName="acute.cap" x="184" y="202" flags="0x4"/>
      <component glyphName="N" x="0" y="0" flags="0x4"/>
    </TTGlyph>
    <TTGlyph name="Ncaron" xMin="33" yMin="0" xMax="639" yMax="921">
      <component glyphName="caron.cap" x="131" y="202" flags="0x4"/>
      <component glyphName="N" x="0" y="0" flags="0x4"/>
    </TTGlyph>
    <TTGlyph name="Ncommaaccent" xMin="33" yMin="-246" xMax="639" yMax="725">
      <component glyphName="commaaccent.cap" x="77" y="7" flags="0x4"/>
      <component glyphName="N" x="0" y="0" flags="0x4"/>
    </TTGlyph>
    <TTGlyph name="Ntilde" xMin="33" yMin="0" xMax="639" yMax="918">
      <component glyphName="tilde.cap" x="133" y="202" flags="0x4"/>
      <component glyphName="N" x="0" y="0" flags="0x4"/>
    </TTGlyph>
    <TTGlyph name="O" xMin="56" yMin="-14" xMax="634" yMax="738">
      <contour>
        <pt x="308" y="-14" on="1"/>
        <pt x="246" y="-14" on="0"/>
        <pt x="152" y="29" on="0"/>
        <pt x="89" y="107" on="0"/>
        <pt x="56" y="217" on="0"/>
        <pt x="56" y="285" on="1"/>
        <pt x="56" y="340" on="0"/>
        <pt x="74" y="448" on="0"/>
        <pt x="107" y="544" on="0"/>
        <pt x="155" y="626" on="0"/>
        <pt x="186" y="657" on="1"/>
        <pt x="225" y="696" on="0"/>
        <pt x="322" y="738" on="0"/>
        <pt x="383" y="738" on="1"/>
        <pt x="444" y="738" on="0"/>
        <pt x="538" y="695" on="0"/>
        <pt x="602" y="617" on="0"/>
        <pt x="634" y="507" on="0"/>
        <pt x="634" y="440" on="1"/>
        <pt x="634" y="384" on="0"/>
        <pt x="617" y="277" on="0"/>
        <pt x="584" y="181" on="0"/>
        <pt x="536" y="99" on="0"/>
        <pt x="505" y="69" on="1"/>
        <pt x="466" y="29" on="0"/>
        <pt x="369" y="-14" on="0"/>
      </contour>
      <contour>
        <pt x="311" y="96" on="1"/>
        <pt x="337" y="96" on="0"/>
        <pt x="381" y="118" on="0"/>
        <pt x="401" y="137" on="1"/>
        <pt x="423" y="159" on="0"/>
        <pt x="458" y="226" on="0"/>
        <pt x="483" y="309" on="0"/>
        <pt x="497" y="401" on="0"/>
        <pt x="497" y="448" on="1"/>
        <pt x="497" y="539" on="0"/>
        <pt x="436" y="628" on="0"/>
        <pt x="380" y="628" on="1"/>
        <pt x="354" y="628" on="0"/>
        <pt x="309" y="607" on="0"/>
        <pt x="290" y="588" on="1"/>
        <pt x="268" y="566" on="0"/>
        <pt x="233" y="499" on="0"/>
        <pt x="208" y="416" on="0"/>
        <pt x="194" y="324" on="0"/>
        <pt x="194" y="277" on="1"/>
        <pt x="194" y="186" on="0"/>
        <pt x="254" y="96" on="0"/>
      </contour>
    </TTGlyph>
    <TTGlyph name="OE" xMin="56" yMin="0" xMax="842" yMax="725">
      <contour>
        <pt x="194" y="297" on="1"/>
        <pt x="194" y="202" on="0"/>
        <pt x="283" y="111" on="0"/>
        <pt x="365" y="111" on="1"/>
        <pt x="386" y="111" on="1"/>
        <pt x="462" y="614" on="1"/>
        <pt x="452" y="614" on="1"/>
        <pt x="392" y="613" on="0"/>
        <pt x="309" y="577" on="0"/>
        <pt x="279" y="547" on="1"/>
        <pt x="237" y="505" on="0"/>
        <pt x="194" y="373" on="0"/>
      </contour>
      <contour>
        <pt x="842" y="725" on="1"/>
        <pt x="825" y="609" on="1"/>
        <pt x="595" y="609" on="1"/>
        <pt x="568" y="435" on="1"/>
        <pt x="742" y="435" on="1"/>
        <pt x="742" y="318" on="1"/>
        <pt x="550" y="318" on="1"/>
        <pt x="520" y="115" on="1"/>
        <pt x="761" y="115" on="1"/>
        <pt x="743" y="0" on="1"/>
        <pt x="364" y="0" on="1"/>
        <pt x="217" y="0" on="0"/>
        <pt x="56" y="153" on="0"/>
        <pt x="56" y="296" on="1"/>
        <pt x="56" y="393" on="0"/>
        <pt x="116" y="558" on="0"/>
        <pt x="173" y="615" on="1"/>
        <pt x="227" y="668" on="0"/>
        <pt x="375" y="725" on="0"/>
        <pt x="479" y="725" on="1"/>
      </contour>
    </TTGlyph>
    <TTGlyph name="OE.flat" xMin="56" yMin="0" xMax="842" yMax="725">
      <contour>
        <pt x="194" y="297" on="1"/>
        <pt x="194" y="202" on="0"/>
        <pt x="283" y="111" on="0"/>
        <pt x="365" y="111" on="1"/>
        <pt x="386" y="111" on="1"/>
        <pt x="462" y="614" on="1"/>
        <pt x="452" y="614" on="1"/>
        <pt x="392" y="613" on="0"/>
        <pt x="309" y="577" on="0"/>
        <pt x="279" y="547" on="1"/>
        <pt x="237" y="505" on="0"/>
        <pt x="194" y="373" on="0"/>
      </contour>
      <contour>
        <pt x="842" y="725" on="1"/>
        <pt x="825" y="609" on="1"/>
        <pt x="595" y="609" on="1"/>
        <pt x="568" y="435" on="1"/>
        <pt x="750" y="435" on="1"/>
        <pt x="733" y="318" on="1"/>
        <pt x="550" y="318" on="1"/>
        <pt x="520" y="115" on="1"/>
        <pt x="761" y="115" on="1"/>
        <pt x="743" y="0" on="1"/>
        <pt x="364" y="0" on="1"/>
        <pt x="217" y="0" on="0"/>
        <pt x="56" y="153" on="0"/>
        <pt x="56" y="296" on="1"/>
        <pt x="56" y="393" on="0"/>
        <pt x="116" y="558" on="0"/>
        <pt x="173" y="615" on="1"/>
        <pt x="227" y="668" on="0"/>
        <pt x="375" y="725" on="0"/>
        <pt x="479" y="725" on="1"/>
      </contour>
    </TTGlyph>
    <TTGlyph name="Oacute" xMin="56" yMin="-14" xMax="634" yMax="943">
      <component glyphName="acute.cap" x="195" y="218" flags="0x4"/>
      <component glyphName="O" x="0" y="0" flags="0x4"/>
    </TTGlyph>
    <TTGlyph name="Obreve" xMin="56" yMin="-14" xMax="634" yMax="930">
      <component glyphName="breve.cap" x="140" y="218" flags="0x4"/>
      <component glyphName="O" x="0" y="0" flags="0x4"/>
    </TTGlyph>
    <TTGlyph name="Ocircumflex" xMin="56" yMin="-14" xMax="634" yMax="937">
      <component glyphName="O" x="0" y="0" flags="0x204"/>
      <component glyphName="circumflex.cap" x="140" y="218" flags="0x4"/>
    </TTGlyph>
    <TTGlyph name="Odieresis" xMin="56" yMin="-14" xMax="634" yMax="910">
      <component glyphName="dieresis.cap" x="142" y="218" flags="0x4"/>
      <component glyphName="O" x="0" y="0" flags="0x4"/>
    </TTGlyph>
    <TTGlyph name="Ograve" xMin="56" yMin="-14" xMax="634" yMax="943">
      <component glyphName="grave.cap" x="83" y="218" flags="0x4"/>
      <component glyphName="O" x="0" y="0" flags="0x4"/>
    </TTGlyph>
    <TTGlyph name="Ohungarumlaut" xMin="56" yMin="-14" xMax="652" yMax="943">
      <component glyphName="O" x="0" y="0" flags="0x204"/>
      <component glyphName="hungarumlaut.cap" x="188" y="218" flags="0x4"/>
    </TTGlyph>
    <TTGlyph name="Omacron" xMin="56" yMin="-14" xMax="634" yMax="894">
      <component glyphName="macron.cap" x="142" y="218" flags="0x4"/>
      <component glyphName="O" x="0" y="0" flags="0x4"/>
    </TTGlyph>
    <TTGlyph name="Oslash" xMin="-10" yMin="-14" xMax="701" yMax="738">
      <contour>
        <pt x="308" y="-14" on="1"/>
        <pt x="254" y="-14" on="0"/>
        <pt x="169" y="20" on="0"/>
        <pt x="137" y="51" on="1"/>
        <pt x="85" y="-10" on="1"/>
        <pt x="-10" y="13" on="1"/>
        <pt x="87" y="126" on="1"/>
        <pt x="71" y="160" on="0"/>
        <pt x="56" y="240" on="0"/>
        <pt x="56" y="285" on="1"/>
        <pt x="56" y="340" on="0"/>
        <pt x="74" y="448" on="0"/>
        <pt x="107" y="544" on="0"/>
        <pt x="155" y="626" on="0"/>
        <pt x="186" y="657" on="1"/>
        <pt x="225" y="696" on="0"/>
        <pt x="322" y="738" on="0"/>
        <pt x="383" y="738" on="1"/>
        <pt x="489" y="738" on="0"/>
        <pt x="554" y="673" on="1"/>
        <pt x="607" y="735" on="1"/>
        <pt x="701" y="711" on="1"/>
        <pt x="604" y="599" on="1"/>
        <pt x="620" y="565" on="0"/>
        <pt x="635" y="485" on="0"/>
        <pt x="635" y="440" on="1"/>
        <pt x="635" y="384" on="0"/>
        <pt x="617" y="277" on="0"/>
        <pt x="584" y="181" on="0"/>
        <pt x="536" y="99" on="0"/>
        <pt x="505" y="69" on="1"/>
        <pt x="466" y="29" on="0"/>
        <pt x="369" y="-14" on="0"/>
      </contour>
      <contour>
        <pt x="191" y="277" on="1"/>
        <pt x="191" y="264" on="0"/>
        <pt x="192" y="241" on="0"/>
        <pt x="193" y="230" on="1"/>
        <pt x="475" y="574" on="1"/>
        <pt x="446" y="630" on="0"/>
        <pt x="380" y="630" on="1"/>
        <pt x="329" y="630" on="0"/>
        <pt x="289" y="590" on="1"/>
        <pt x="266" y="567" on="0"/>
        <pt x="230" y="499" on="0"/>
        <pt x="205" y="417" on="0"/>
        <pt x="191" y="324" on="0"/>
      </contour>
      <contour>
        <pt x="311" y="94" on="1"/>
        <pt x="337" y="94" on="0"/>
        <pt x="382" y="116" on="0"/>
        <pt x="402" y="136" on="1"/>
        <pt x="424" y="158" on="0"/>
        <pt x="461" y="226" on="0"/>
        <pt x="486" y="308" on="0"/>
        <pt x="500" y="401" on="0"/>
        <pt x="500" y="448" on="1"/>
        <pt x="500" y="461" on="0"/>
        <pt x="499" y="483" on="0"/>
        <pt x="498" y="494" on="1"/>
        <pt x="216" y="150" on="1"/>
        <pt x="246" y="94" on="0"/>
      </contour>
    </TTGlyph>
    <TTGlyph name="Oslashacute" xMin="-10" yMin="-14" xMax="701" yMax="943">
      <component glyphName="Oslash" x="0" y="0" flags="0x204"/>
      <component glyphName="acute.cap" x="193" y="218" flags="0x4"/>
    </TTGlyph>
    <TTGlyph name="Otilde" xMin="56" yMin="-14" xMax="634" yMax="934">
      <component glyphName="tilde.cap" x="143" y="218" flags="0x4"/>
      <component glyphName="O" x="0" y="0" flags="0x4"/>
    </TTGlyph>
    <TTGlyph name="P" xMin="33" yMin="0" xMax="544" yMax="725">
      <contour>
        <pt x="544" y="518" on="1"/>
        <pt x="544" y="459" on="0"/>
        <pt x="502" y="364" on="0"/>
        <pt x="425" y="297" on="0"/>
        <pt x="315" y="261" on="0"/>
        <pt x="246" y="261" on="1"/>
        <pt x="206" y="261" on="1"/>
        <pt x="167" y="0" on="1"/>
        <pt x="33" y="0" on="1"/>
        <pt x="141" y="725" on="1"/>
        <pt x="296" y="725" on="1"/>
        <pt x="421" y="725" on="0"/>
        <pt x="544" y="617" on="0"/>
      </contour>
      <contour>
        <pt x="412" y="513" on="1"/>
        <pt x="412" y="567" on="0"/>
        <pt x="348" y="618" on="0"/>
        <pt x="290" y="618" on="1"/>
        <pt x="259" y="618" on="1"/>
        <pt x="223" y="369" on="1"/>
        <pt x="258" y="369" on="1"/>
        <pt x="332" y="369" on="0"/>
        <pt x="411" y="447" on="0"/>
      </contour>
    </TTGlyph>
    <TTGlyph name="Q" xMin="56" yMin="-144" xMax="635" yMax="738">
      <contour>
        <pt x="260" y="-21" on="1"/>
        <pt x="207" y="1" on="0"/>
        <pt x="131" y="56" on="0"/>
        <pt x="80" y="129" on="0"/>
        <pt x="56" y="223" on="0"/>
        <pt x="56" y="285" on="1"/>
        <pt x="56" y="400" on="0"/>
        <pt x="124" y="595" on="0"/>
        <pt x="186" y="656" on="1"/>
        <pt x="225" y="696" on="0"/>
        <pt x="322" y="738" on="0"/>
        <pt x="383" y="738" on="1"/>
        <pt x="445" y="738" on="0"/>
        <pt x="539" y="695" on="0"/>
        <pt x="603" y="617" on="0"/>
        <pt x="635" y="509" on="0"/>
        <pt x="635" y="443" on="1"/>
        <pt x="635" y="324" on="0"/>
        <pt x="565" y="139" on="0"/>
        <pt x="508" y="82" on="1"/>
        <pt x="492" y="66" on="0"/>
        <pt x="456" y="39" on="0"/>
        <pt x="436" y="29" on="1"/>
        <pt x="588" y="-26" on="1"/>
        <pt x="547" y="-144" on="1"/>
      </contour>
      <contour>
        <pt x="311" y="96" on="1"/>
        <pt x="337" y="96" on="0"/>
        <pt x="382" y="118" on="0"/>
        <pt x="401" y="137" on="1"/>
        <pt x="423" y="159" on="0"/>
        <pt x="458" y="226" on="0"/>
        <pt x="483" y="309" on="0"/>
        <pt x="497" y="401" on="0"/>
        <pt x="497" y="448" on="1"/>
        <pt x="497" y="539" on="0"/>
        <pt x="436" y="628" on="0"/>
        <pt x="380" y="628" on="1"/>
        <pt x="354" y="628" on="0"/>
        <pt x="309" y="607" on="0"/>
        <pt x="290" y="588" on="1"/>
        <pt x="268" y="566" on="0"/>
        <pt x="233" y="499" on="0"/>
        <pt x="208" y="416" on="0"/>
        <pt x="194" y="324" on="0"/>
        <pt x="194" y="277" on="1"/>
        <pt x="194" y="186" on="0"/>
        <pt x="255" y="96" on="0"/>
      </contour>
    </TTGlyph>
    <TTGlyph name="Q.alt" xMin="56" yMin="-14" xMax="635" yMax="738">
      <contour>
        <pt x="496" y="64" on="1"/>
        <pt x="488" y="56" on="1"/>
        <pt x="451" y="23" on="0"/>
        <pt x="363" y="-14" on="0"/>
        <pt x="308" y="-14" on="1"/>
        <pt x="246" y="-14" on="0"/>
        <pt x="152" y="29" on="0"/>
        <pt x="89" y="107" on="0"/>
        <pt x="56" y="217" on="0"/>
        <pt x="56" y="285" on="1"/>
        <pt x="56" y="340" on="0"/>
        <pt x="74" y="448" on="0"/>
        <pt x="107" y="544" on="0"/>
        <pt x="155" y="626" on="0"/>
        <pt x="186" y="657" on="1"/>
        <pt x="225" y="696" on="0"/>
        <pt x="322" y="738" on="0"/>
        <pt x="383" y="738" on="1"/>
        <pt x="444" y="738" on="0"/>
        <pt x="539" y="695" on="0"/>
        <pt x="602" y="617" on="0"/>
        <pt x="635" y="507" on="0"/>
        <pt x="635" y="440" on="1"/>
        <pt x="635" y="361" on="0"/>
        <pt x="598" y="213" on="0"/>
        <pt x="565" y="153" on="1"/>
        <pt x="611" y="110" on="1"/>
        <pt x="574" y="-14" on="1"/>
      </contour>
      <contour>
        <pt x="311" y="96" on="1"/>
        <pt x="337" y="96" on="0"/>
        <pt x="382" y="117" on="0"/>
        <pt x="402" y="137" on="1"/>
        <pt x="404" y="139" on="0"/>
        <pt x="409" y="145" on="0"/>
        <pt x="412" y="147" on="1"/>
        <pt x="294" y="261" on="1"/>
        <pt x="416" y="296" on="1"/>
        <pt x="466" y="247" on="1"/>
        <pt x="482" y="291" on="0"/>
        <pt x="498" y="394" on="0"/>
        <pt x="498" y="448" on="1"/>
        <pt x="498" y="539" on="0"/>
        <pt x="437" y="628" on="0"/>
        <pt x="380" y="628" on="1"/>
        <pt x="354" y="628" on="0"/>
        <pt x="310" y="607" on="0"/>
        <pt x="290" y="588" on="1"/>
        <pt x="268" y="566" on="0"/>
        <pt x="233" y="498" on="0"/>
        <pt x="208" y="416" on="0"/>
        <pt x="194" y="323" on="0"/>
        <pt x="194" y="277" on="1"/>
        <pt x="194" y="186" on="0"/>
        <pt x="255" y="96" on="0"/>
      </contour>
    </TTGlyph>
    <TTGlyph name="Q.alt_flat" xMin="56" yMin="-15" xMax="635" yMax="738">
      <contour>
        <pt x="498" y="66" on="1"/>
        <pt x="492" y="60" on="0"/>
        <pt x="489" y="58" on="1"/>
        <pt x="451" y="23" on="0"/>
        <pt x="364" y="-14" on="0"/>
        <pt x="308" y="-14" on="1"/>
        <pt x="246" y="-14" on="0"/>
        <pt x="152" y="29" on="0"/>
        <pt x="89" y="107" on="0"/>
        <pt x="56" y="217" on="0"/>
        <pt x="56" y="285" on="1"/>
        <pt x="56" y="340" on="0"/>
        <pt x="74" y="448" on="0"/>
        <pt x="107" y="544" on="0"/>
        <pt x="155" y="626" on="0"/>
        <pt x="186" y="657" on="1"/>
        <pt x="225" y="696" on="0"/>
        <pt x="322" y="738" on="0"/>
        <pt x="383" y="738" on="1"/>
        <pt x="444" y="738" on="0"/>
        <pt x="539" y="695" on="0"/>
        <pt x="602" y="617" on="0"/>
        <pt x="635" y="507" on="0"/>
        <pt x="635" y="440" on="1"/>
        <pt x="635" y="362" on="0"/>
        <pt x="599" y="217" on="0"/>
        <pt x="567" y="157" on="1"/>
        <pt x="616" y="116" on="1"/>
        <pt x="590" y="-15" on="1"/>
      </contour>
      <contour>
        <pt x="311" y="96" on="1"/>
        <pt x="337" y="96" on="0"/>
        <pt x="382" y="117" on="0"/>
        <pt x="402" y="137" on="1"/>
        <pt x="409" y="144" on="1"/>
        <pt x="335" y="208" on="1"/>
        <pt x="360" y="333" on="1"/>
        <pt x="465" y="243" on="1"/>
        <pt x="481" y="288" on="0"/>
        <pt x="498" y="392" on="0"/>
        <pt x="498" y="448" on="1"/>
        <pt x="498" y="539" on="0"/>
        <pt x="437" y="628" on="0"/>
        <pt x="380" y="628" on="1"/>
        <pt x="354" y="628" on="0"/>
        <pt x="310" y="607" on="0"/>
        <pt x="290" y="588" on="1"/>
        <pt x="268" y="566" on="0"/>
        <pt x="233" y="498" on="0"/>
        <pt x="208" y="416" on="0"/>
        <pt x="194" y="323" on="0"/>
        <pt x="194" y="277" on="1"/>
        <pt x="194" y="186" on="0"/>
        <pt x="255" y="96" on="0"/>
      </contour>
    </TTGlyph>
    <TTGlyph name="R" xMin="33" yMin="-8" xMax="546" yMax="725">
      <contour>
        <pt x="546" y="531" on="1"/>
        <pt x="546" y="486" on="0"/>
        <pt x="520" y="414" on="0"/>
        <pt x="476" y="358" on="0"/>
        <pt x="415" y="320" on="0"/>
        <pt x="381" y="309" on="1"/>
        <pt x="513" y="18" on="1"/>
        <pt x="376" y="-8" on="1"/>
        <pt x="251" y="283" on="1"/>
        <pt x="209" y="283" on="1"/>
        <pt x="167" y="0" on="1"/>
        <pt x="33" y="0" on="1"/>
        <pt x="87" y="362" on="1"/>
        <pt x="97" y="430" on="0"/>
        <pt x="116" y="560" on="0"/>
        <pt x="124" y="611" on="1"/>
        <pt x="133" y="671" on="0"/>
        <pt x="141" y="725" on="1"/>
        <pt x="301" y="725" on="1"/>
        <pt x="418" y="725" on="0"/>
        <pt x="546" y="627" on="0"/>
      </contour>
      <contour>
        <pt x="411" y="520" on="1"/>
        <pt x="411" y="565" on="0"/>
        <pt x="357" y="619" on="0"/>
        <pt x="294" y="619" on="1"/>
        <pt x="258" y="619" on="1"/>
        <pt x="223" y="386" on="1"/>
        <pt x="272" y="386" on="1"/>
        <pt x="341" y="386" on="0"/>
        <pt x="411" y="462" on="0"/>
      </contour>
    </TTGlyph>
    <TTGlyph name="R.flat" xMin="33" yMin="0" xMax="546" yMax="725">
      <contour>
        <pt x="546" y="531" on="1"/>
        <pt x="546" y="486" on="0"/>
        <pt x="520" y="414" on="0"/>
        <pt x="476" y="358" on="0"/>
        <pt x="415" y="320" on="0"/>
        <pt x="381" y="309" on="1"/>
        <pt x="520" y="0" on="1"/>
        <pt x="373" y="0" on="1"/>
        <pt x="251" y="283" on="1"/>
        <pt x="209" y="283" on="1"/>
        <pt x="167" y="0" on="1"/>
        <pt x="33" y="0" on="1"/>
        <pt x="87" y="362" on="1"/>
        <pt x="97" y="430" on="0"/>
        <pt x="116" y="560" on="0"/>
        <pt x="124" y="611" on="1"/>
        <pt x="133" y="671" on="0"/>
        <pt x="141" y="725" on="1"/>
        <pt x="301" y="725" on="1"/>
        <pt x="418" y="725" on="0"/>
        <pt x="546" y="627" on="0"/>
      </contour>
      <contour>
        <pt x="411" y="520" on="1"/>
        <pt x="411" y="565" on="0"/>
        <pt x="357" y="619" on="0"/>
        <pt x="294" y="619" on="1"/>
        <pt x="258" y="619" on="1"/>
        <pt x="223" y="386" on="1"/>
        <pt x="272" y="386" on="1"/>
        <pt x="341" y="386" on="0"/>
        <pt x="411" y="462" on="0"/>
      </contour>
    </TTGlyph>
    <TTGlyph name="R_p" xMin="39" yMin="-193" xMax="985" yMax="717">
      <contour>
        <pt x="247" y="281" on="1"/>
        <pt x="207" y="281" on="1"/>
        <pt x="165" y="0" on="1"/>
        <pt x="39" y="0" on="1"/>
        <pt x="146" y="717" on="1"/>
        <pt x="291" y="717" on="1"/>
        <pt x="408" y="717" on="0"/>
        <pt x="534" y="621" on="0"/>
        <pt x="534" y="526" on="1"/>
        <pt x="534" y="482" on="0"/>
        <pt x="509" y="410" on="0"/>
        <pt x="465" y="356" on="0"/>
        <pt x="405" y="317" on="0"/>
        <pt x="371" y="306" on="1"/>
        <pt x="499" y="18" on="1"/>
        <pt x="370" y="-8" on="1"/>
      </contour>
      <contour>
        <pt x="407" y="515" on="1"/>
        <pt x="407" y="560" on="0"/>
        <pt x="354" y="614" on="0"/>
        <pt x="291" y="614" on="1"/>
        <pt x="255" y="614" on="1"/>
        <pt x="220" y="381" on="1"/>
        <pt x="269" y="381" on="1"/>
        <pt x="337" y="381" on="0"/>
        <pt x="407" y="456" on="0"/>
      </contour>
      <contour>
        <pt x="672" y="104" on="1"/>
        <pt x="685" y="98" on="0"/>
        <pt x="707" y="93" on="0"/>
        <pt x="722" y="93" on="1"/>
        <pt x="749" y="93" on="0"/>
        <pt x="800" y="126" on="0"/>
        <pt x="839" y="186" on="0"/>
        <pt x="863" y="270" on="0"/>
        <pt x="863" y="322" on="1"/>
        <pt x="863" y="365" on="0"/>
        <pt x="836" y="414" on="0"/>
        <pt x="809" y="414" on="1"/>
        <pt x="785" y="414" on="0"/>
        <pt x="737" y="379" on="0"/>
        <pt x="708" y="347" on="1"/>
      </contour>
      <contour>
        <pt x="595" y="385" on="1"/>
        <pt x="595" y="511" on="1"/>
        <pt x="706" y="511" on="1"/>
        <pt x="711" y="436" on="1"/>
        <pt x="742" y="473" on="0"/>
        <pt x="811" y="521" on="0"/>
        <pt x="851" y="521" on="1"/>
        <pt x="910" y="521" on="0"/>
        <pt x="985" y="428" on="0"/>
        <pt x="985" y="340" on="1"/>
        <pt x="985" y="260" on="0"/>
        <pt x="942" y="132" on="0"/>
        <pt x="869" y="42" on="0"/>
        <pt x="772" y="-6" on="0"/>
        <pt x="719" y="-6" on="1"/>
        <pt x="702" y="-6" on="0"/>
        <pt x="670" y="-1" on="0"/>
        <pt x="656" y="3" on="1"/>
        <pt x="654" y="-10" on="0"/>
        <pt x="652" y="-25" on="1"/>
        <pt x="650" y="-38" on="0"/>
        <pt x="646" y="-69" on="0"/>
        <pt x="644" y="-86" on="1"/>
        <pt x="639" y="-125" on="0"/>
        <pt x="631" y="-174" on="1"/>
        <pt x="507" y="-193" on="1"/>
      </contour>
    </TTGlyph>
    <TTGlyph name="R_p.flat" xMin="39" yMin="-193" xMax="985" yMax="717">
      <contour>
        <pt x="247" y="281" on="1"/>
        <pt x="207" y="281" on="1"/>
        <pt x="165" y="0" on="1"/>
        <pt x="39" y="0" on="1"/>
        <pt x="146" y="717" on="1"/>
        <pt x="291" y="717" on="1"/>
        <pt x="408" y="717" on="0"/>
        <pt x="534" y="621" on="0"/>
        <pt x="534" y="526" on="1"/>
        <pt x="534" y="482" on="0"/>
        <pt x="509" y="410" on="0"/>
        <pt x="465" y="356" on="0"/>
        <pt x="405" y="317" on="0"/>
        <pt x="371" y="306" on="1"/>
        <pt x="507" y="0" on="1"/>
        <pt x="367" y="0" on="1"/>
      </contour>
      <contour>
        <pt x="595" y="385" on="1"/>
        <pt x="595" y="511" on="1"/>
        <pt x="706" y="511" on="1"/>
        <pt x="711" y="436" on="1"/>
        <pt x="742" y="473" on="0"/>
        <pt x="811" y="521" on="0"/>
        <pt x="851" y="521" on="1"/>
        <pt x="910" y="521" on="0"/>
        <pt x="985" y="428" on="0"/>
        <pt x="985" y="340" on="1"/>
        <pt x="985" y="260" on="0"/>
        <pt x="942" y="132" on="0"/>
        <pt x="869" y="42" on="0"/>
        <pt x="772" y="-6" on="0"/>
        <pt x="719" y="-6" on="1"/>
        <pt x="702" y="-6" on="0"/>
        <pt x="670" y="-1" on="0"/>
        <pt x="656" y="3" on="1"/>
        <pt x="654" y="-10" on="0"/>
        <pt x="652" y="-25" on="1"/>
        <pt x="650" y="-38" on="0"/>
        <pt x="646" y="-69" on="0"/>
        <pt x="644" y="-86" on="1"/>
        <pt x="639" y="-125" on="0"/>
        <pt x="631" y="-174" on="1"/>
        <pt x="507" y="-193" on="1"/>
      </contour>
      <contour>
        <pt x="672" y="104" on="1"/>
        <pt x="685" y="98" on="0"/>
        <pt x="707" y="93" on="0"/>
        <pt x="722" y="93" on="1"/>
        <pt x="749" y="93" on="0"/>
        <pt x="800" y="126" on="0"/>
        <pt x="839" y="186" on="0"/>
        <pt x="863" y="270" on="0"/>
        <pt x="863" y="322" on="1"/>
        <pt x="863" y="365" on="0"/>
        <pt x="836" y="414" on="0"/>
        <pt x="809" y="414" on="1"/>
        <pt x="785" y="414" on="0"/>
        <pt x="737" y="379" on="0"/>
        <pt x="708" y="347" on="1"/>
      </contour>
      <contour>
        <pt x="407" y="515" on="1"/>
        <pt x="407" y="560" on="0"/>
        <pt x="354" y="614" on="0"/>
        <pt x="291" y="614" on="1"/>
        <pt x="255" y="614" on="1"/>
        <pt x="220" y="381" on="1"/>
        <pt x="269" y="381" on="1"/>
        <pt x="337" y="381" on="0"/>
        <pt x="407" y="456" on="0"/>
      </contour>
    </TTGlyph>
    <TTGlyph name="Racute" xMin="33" yMin="-8" xMax="546" yMax="933">
      <component glyphName="R" x="0" y="0" flags="0x204"/>
      <component glyphName="acute.cap" x="131" y="208" flags="0x4"/>
    </TTGlyph>
    <TTGlyph name="Racute.flat" xMin="33" yMin="0" xMax="546" yMax="933">
      <component glyphName="acute.cap" x="131" y="208" flags="0x4"/>
      <component glyphName="R.flat" x="0" y="0" flags="0x4"/>
    </TTGlyph>
    <TTGlyph name="Rcaron" xMin="33" yMin="-8" xMax="546" yMax="927">
      <component glyphName="caron.cap" x="79" y="208" flags="0x4"/>
      <component glyphName="R" x="0" y="0" flags="0x4"/>
    </TTGlyph>
    <TTGlyph name="Rcaron.flat" xMin="33" yMin="0" xMax="546" yMax="927">
      <component glyphName="caron.cap" x="79" y="208" flags="0x4"/>
      <component glyphName="R.flat" x="0" y="0" flags="0x4"/>
    </TTGlyph>
    <TTGlyph name="Rcommaaccent" xMin="33" yMin="-246" xMax="546" yMax="725">
      <component glyphName="R" x="0" y="0" flags="0x204"/>
      <component glyphName="commaaccent.cap" x="49" y="7" flags="0x4"/>
    </TTGlyph>
    <TTGlyph name="Rcommaaccent.flat" xMin="33" yMin="-246" xMax="546" yMax="725">
      <component glyphName="R.flat" x="0" y="0" flags="0x4"/>
      <component glyphName="commaaccent.cap" x="49" y="7" flags="0x4"/>
    </TTGlyph>
    <TTGlyph name="S" xMin="12" yMin="-11" xMax="498" yMax="735">
      <contour>
        <pt x="461" y="570" on="1"/>
        <pt x="426" y="593" on="0"/>
        <pt x="354" y="624" on="0"/>
        <pt x="316" y="624" on="1"/>
        <pt x="271" y="624" on="0"/>
        <pt x="227" y="576" on="0"/>
        <pt x="227" y="542" on="1"/>
        <pt x="227" y="527" on="0"/>
        <pt x="237" y="500" on="0"/>
        <pt x="258" y="473" on="0"/>
        <pt x="292" y="443" on="0"/>
        <pt x="316" y="424" on="1"/>
        <pt x="353" y="396" on="0"/>
        <pt x="406" y="346" on="0"/>
        <pt x="440" y="296" on="0"/>
        <pt x="455" y="243" on="0"/>
        <pt x="455" y="212" on="1"/>
        <pt x="455" y="159" on="0"/>
        <pt x="419" y="76" on="0"/>
        <pt x="356" y="19" on="0"/>
        <pt x="269" y="-11" on="0"/>
        <pt x="219" y="-11" on="1"/>
        <pt x="161" y="-11" on="0"/>
        <pt x="52" y="26" on="0"/>
        <pt x="12" y="50" on="1"/>
        <pt x="49" y="165" on="1"/>
        <pt x="87" y="139" on="0"/>
        <pt x="174" y="101" on="0"/>
        <pt x="219" y="101" on="1"/>
        <pt x="264" y="101" on="0"/>
        <pt x="321" y="152" on="0"/>
        <pt x="321" y="196" on="1"/>
        <pt x="321" y="228" on="0"/>
        <pt x="282" y="280" on="0"/>
        <pt x="236" y="317" on="1"/>
        <pt x="199" y="344" on="0"/>
        <pt x="146" y="391" on="0"/>
        <pt x="111" y="441" on="0"/>
        <pt x="94" y="495" on="0"/>
        <pt x="94" y="529" on="1"/>
        <pt x="94" y="574" on="0"/>
        <pt x="126" y="649" on="0"/>
        <pt x="184" y="704" on="0"/>
        <pt x="266" y="735" on="0"/>
        <pt x="316" y="735" on="1"/>
        <pt x="373" y="735" on="0"/>
        <pt x="465" y="705" on="0"/>
        <pt x="498" y="685" on="1"/>
      </contour>
    </TTGlyph>
    <TTGlyph name="Sacute" xMin="12" yMin="-11" xMax="515" yMax="943">
      <component glyphName="S" x="0" y="0" flags="0x204"/>
      <component glyphName="acute.cap" x="118" y="218" flags="0x4"/>
    </TTGlyph>
    <TTGlyph name="Scaron" xMin="12" yMin="-11" xMax="501" yMax="937">
      <component glyphName="S" x="0" y="0" flags="0x204"/>
      <component glyphName="caron.cap" x="65" y="218" flags="0x4"/>
    </TTGlyph>
    <TTGlyph name="Scedilla" xMin="12" yMin="-199" xMax="498" yMax="735">
      <component glyphName="S" x="0" y="0" flags="0x204"/>
      <component glyphName="cedilla.cap" x="9" y="-5" flags="0x4"/>
    </TTGlyph>
    <TTGlyph name="Scommaaccent" xMin="12" yMin="-261" xMax="498" yMax="735">
      <component glyphName="S" x="0" y="0" flags="0x204"/>
      <component glyphName="commaaccent.cap" x="0" y="-8" flags="0x4"/>
    </TTGlyph>
    <TTGlyph name="T" xMin="82" yMin="0" xMax="576" yMax="725">
      <contour>
        <pt x="394" y="607" on="1"/>
        <pt x="303" y="0" on="1"/>
        <pt x="169" y="0" on="1"/>
        <pt x="259" y="607" on="1"/>
        <pt x="82" y="607" on="1"/>
        <pt x="101" y="725" on="1"/>
        <pt x="576" y="725" on="1"/>
        <pt x="576" y="607" on="1"/>
      </contour>
    </TTGlyph>
    <TTGlyph name="T.flat" xMin="82" yMin="0" xMax="587" yMax="725">
      <contour>
        <pt x="394" y="607" on="1"/>
        <pt x="303" y="0" on="1"/>
        <pt x="169" y="0" on="1"/>
        <pt x="259" y="607" on="1"/>
        <pt x="82" y="607" on="1"/>
        <pt x="101" y="725" on="1"/>
        <pt x="587" y="725" on="1"/>
        <pt x="569" y="607" on="1"/>
      </contour>
    </TTGlyph>
    <TTGlyph name="Tcaron" xMin="82" yMin="0" xMax="576" yMax="927">
      <component glyphName="caron.cap" x="88" y="208" flags="0x4"/>
      <component glyphName="T" x="0" y="0" flags="0x4"/>
    </TTGlyph>
    <TTGlyph name="Tcaron.flat" xMin="82" yMin="0" xMax="587" yMax="927">
      <component glyphName="caron.cap" x="88" y="208" flags="0x4"/>
      <component glyphName="T.flat" x="0" y="0" flags="0x4"/>
    </TTGlyph>
    <TTGlyph name="Tcommaaccent" xMin="82" yMin="-253" xMax="576" yMax="725">
      <component glyphName="T" x="0" y="0" flags="0x204"/>
      <component glyphName="commaaccent.cap" x="31" y="0" flags="0x4"/>
    </TTGlyph>
    <TTGlyph name="Tcommaaccent.flat" xMin="82" yMin="-253" xMax="587" yMax="725">
      <component glyphName="T.flat" x="0" y="0" flags="0x204"/>
      <component glyphName="commaaccent.cap" x="31" y="0" flags="0x4"/>
    </TTGlyph>
    <TTGlyph name="Thorn" xMin="33" yMin="0" xMax="524" yMax="725">
      <contour>
        <pt x="524" y="397" on="1"/>
        <pt x="524" y="340" on="0"/>
        <pt x="484" y="246" on="0"/>
        <pt x="408" y="180" on="0"/>
        <pt x="299" y="144" on="0"/>
        <pt x="231" y="144" on="1"/>
        <pt x="188" y="144" on="1"/>
        <pt x="167" y="0" on="1"/>
        <pt x="33" y="0" on="1"/>
        <pt x="141" y="725" on="1"/>
        <pt x="275" y="725" on="1"/>
        <pt x="257" y="600" on="1"/>
        <pt x="283" y="600" on="1"/>
        <pt x="404" y="600" on="0"/>
        <pt x="524" y="494" on="0"/>
      </contour>
      <contour>
        <pt x="391" y="390" on="1"/>
        <pt x="391" y="442" on="0"/>
        <pt x="331" y="494" on="0"/>
        <pt x="274" y="494" on="1"/>
        <pt x="240" y="494" on="1"/>
        <pt x="205" y="251" on="1"/>
        <pt x="243" y="251" on="1"/>
        <pt x="315" y="251" on="0"/>
        <pt x="391" y="329" on="0"/>
      </contour>
    </TTGlyph>
    <TTGlyph name="U" xMin="61" yMin="-13" xMax="632" yMax="725">
      <contour>
        <pt x="560" y="245" on="1"/>
        <pt x="540" y="114" on="0"/>
        <pt x="403" y="-13" on="0"/>
        <pt x="288" y="-13" on="1"/>
        <pt x="179" y="-13" on="0"/>
        <pt x="61" y="95" on="0"/>
        <pt x="61" y="198" on="1"/>
        <pt x="61" y="215" on="0"/>
        <pt x="64" y="250" on="0"/>
        <pt x="66" y="267" on="1"/>
        <pt x="134" y="725" on="1"/>
        <pt x="270" y="725" on="1"/>
        <pt x="201" y="260" on="1"/>
        <pt x="199" y="246" on="0"/>
        <pt x="197" y="221" on="0"/>
        <pt x="197" y="208" on="1"/>
        <pt x="197" y="158" on="0"/>
        <pt x="247" y="103" on="0"/>
        <pt x="297" y="103" on="1"/>
        <pt x="352" y="103" on="0"/>
        <pt x="415" y="177" on="0"/>
        <pt x="426" y="246" on="1"/>
        <pt x="497" y="725" on="1"/>
        <pt x="632" y="725" on="1"/>
      </contour>
    </TTGlyph>
    <TTGlyph name="U.alt" xMin="58" yMin="-8" xMax="629" yMax="725">
      <contour>
        <pt x="521" y="0" on="1"/>
        <pt x="409" y="0" on="1"/>
        <pt x="409" y="66" on="1"/>
        <pt x="362" y="33" on="0"/>
        <pt x="273" y="-8" on="0"/>
        <pt x="218" y="-8" on="1"/>
        <pt x="143" y="-8" on="0"/>
        <pt x="58" y="67" on="0"/>
        <pt x="58" y="145" on="1"/>
        <pt x="58" y="159" on="0"/>
        <pt x="61" y="192" on="0"/>
        <pt x="63" y="208" on="1"/>
        <pt x="139" y="725" on="1"/>
        <pt x="275" y="725" on="1"/>
        <pt x="199" y="218" on="1"/>
        <pt x="196" y="198" on="0"/>
        <pt x="196" y="183" on="1"/>
        <pt x="194" y="111" on="0"/>
        <pt x="268" y="111" on="1"/>
        <pt x="303" y="111" on="0"/>
        <pt x="372" y="144" on="0"/>
        <pt x="412" y="175" on="1"/>
        <pt x="494" y="725" on="1"/>
        <pt x="629" y="725" on="1"/>
      </contour>
    </TTGlyph>
    <TTGlyph name="Uacute" xMin="61" yMin="-13" xMax="632" yMax="927">
      <component glyphName="acute.cap" x="177" y="202" flags="0x4"/>
      <component glyphName="U" x="0" y="0" flags="0x4"/>
    </TTGlyph>
    <TTGlyph name="Uacute.alt" xMin="58" yMin="-8" xMax="629" yMax="927">
      <component glyphName="acute.cap" x="177" y="202" flags="0x4"/>
      <component glyphName="U.alt" x="0" y="0" flags="0x4"/>
    </TTGlyph>
    <TTGlyph name="Ubreve" xMin="61" yMin="-13" xMax="632" yMax="911">
      <component glyphName="breve.cap" x="122" y="199" flags="0x4"/>
      <component glyphName="U" x="0" y="0" flags="0x4"/>
    </TTGlyph>
    <TTGlyph name="Ubreve.alt" xMin="58" yMin="-8" xMax="629" yMax="911">
      <component glyphName="breve.cap" x="124" y="199" flags="0x4"/>
      <component glyphName="U.alt" x="0" y="0" flags="0x4"/>
    </TTGlyph>
    <TTGlyph name="Ucircumflex" xMin="61" yMin="-13" xMax="632" yMax="921">
      <component glyphName="U" x="0" y="0" flags="0x204"/>
      <component glyphName="circumflex.cap" x="122" y="202" flags="0x4"/>
    </TTGlyph>
    <TTGlyph name="Ucircumflex.alt" xMin="58" yMin="-8" xMax="629" yMax="921">
      <component glyphName="circumflex.cap" x="123" y="202" flags="0x4"/>
      <component glyphName="U.alt" x="0" y="0" flags="0x4"/>
    </TTGlyph>
    <TTGlyph name="Udieresis" xMin="61" yMin="-13" xMax="632" yMax="894">
      <component glyphName="dieresis.cap" x="124" y="202" flags="0x4"/>
      <component glyphName="U" x="0" y="0" flags="0x4"/>
    </TTGlyph>
    <TTGlyph name="Udieresis.alt" xMin="58" yMin="-8" xMax="629" yMax="894">
      <component glyphName="dieresis.cap" x="125" y="202" flags="0x4"/>
      <component glyphName="U.alt" x="0" y="0" flags="0x4"/>
    </TTGlyph>
    <TTGlyph name="Ugrave" xMin="61" yMin="-13" xMax="632" yMax="927">
      <component glyphName="grave.cap" x="64" y="202" flags="0x4"/>
      <component glyphName="U" x="0" y="0" flags="0x4"/>
    </TTGlyph>
    <TTGlyph name="Ugrave.alt" xMin="58" yMin="-8" xMax="629" yMax="927">
      <component glyphName="grave.cap" x="65" y="202" flags="0x4"/>
      <component glyphName="U.alt" x="0" y="0" flags="0x4"/>
    </TTGlyph>
    <TTGlyph name="Uhungarumlaut" xMin="61" yMin="-13" xMax="634" yMax="927">
      <component glyphName="U" x="0" y="0" flags="0x204"/>
      <component glyphName="hungarumlaut.cap" x="170" y="202" flags="0x4"/>
    </TTGlyph>
    <TTGlyph name="Uhungarumlaut.alt" xMin="58" yMin="-8" xMax="635" yMax="927">
      <component glyphName="U.alt" x="0" y="0" flags="0x204"/>
      <component glyphName="hungarumlaut.cap" x="171" y="202" flags="0x4"/>
    </TTGlyph>
    <TTGlyph name="Umacron" xMin="61" yMin="-13" xMax="632" yMax="878">
      <component glyphName="macron.cap" x="124" y="202" flags="0x4"/>
      <component glyphName="U" x="0" y="0" flags="0x4"/>
    </TTGlyph>
    <TTGlyph name="Umacron.alt" xMin="58" yMin="-8" xMax="629" yMax="878">
      <component glyphName="macron.cap" x="126" y="202" flags="0x4"/>
      <component glyphName="U.alt" x="0" y="0" flags="0x4"/>
    </TTGlyph>
    <TTGlyph name="Uogonek" xMin="62" yMin="-199" xMax="633" yMax="725">
      <contour>
        <pt x="561" y="245" on="1"/>
        <pt x="542" y="121" on="0"/>
        <pt x="417" y="-5" on="0"/>
        <pt x="313" y="-12" on="1"/>
        <pt x="311" y="-15" on="1"/>
        <pt x="285" y="-48" on="0"/>
        <pt x="264" y="-82" on="0"/>
        <pt x="264" y="-96" on="1"/>
        <pt x="264" y="-123" on="0"/>
        <pt x="301" y="-123" on="1"/>
        <pt x="312" y="-123" on="0"/>
        <pt x="332" y="-120" on="0"/>
        <pt x="344" y="-118" on="1"/>
        <pt x="334" y="-183" on="1"/>
        <pt x="315" y="-191" on="0"/>
        <pt x="275" y="-199" on="0"/>
        <pt x="252" y="-199" on="1"/>
        <pt x="211" y="-199" on="0"/>
        <pt x="168" y="-163" on="0"/>
        <pt x="168" y="-129" on="1"/>
        <pt x="168" y="-104" on="0"/>
        <pt x="195" y="-52" on="0"/>
        <pt x="227" y="-17" on="1"/>
        <pt x="229" y="-15" on="0"/>
        <pt x="233" y="-11" on="0"/>
        <pt x="235" y="-9" on="1"/>
        <pt x="151" y="4" on="0"/>
        <pt x="62" y="109" on="0"/>
        <pt x="62" y="198" on="1"/>
        <pt x="62" y="215" on="0"/>
        <pt x="65" y="250" on="0"/>
        <pt x="67" y="267" on="1"/>
        <pt x="135" y="725" on="1"/>
        <pt x="271" y="725" on="1"/>
        <pt x="202" y="260" on="1"/>
        <pt x="200" y="246" on="0"/>
        <pt x="198" y="221" on="0"/>
        <pt x="198" y="208" on="1"/>
        <pt x="198" y="158" on="0"/>
        <pt x="248" y="103" on="0"/>
        <pt x="298" y="103" on="1"/>
        <pt x="353" y="103" on="0"/>
        <pt x="416" y="177" on="0"/>
        <pt x="427" y="246" on="1"/>
        <pt x="498" y="725" on="1"/>
        <pt x="633" y="725" on="1"/>
      </contour>
    </TTGlyph>
    <TTGlyph name="Uogonek.alt" xMin="58" yMin="-199" xMax="629" yMax="725">
      <contour>
        <pt x="498" y="-183" on="1"/>
        <pt x="479" y="-191" on="0"/>
        <pt x="439" y="-199" on="0"/>
        <pt x="416" y="-199" on="1"/>
        <pt x="375" y="-199" on="0"/>
        <pt x="332" y="-163" on="0"/>
        <pt x="332" y="-129" on="1"/>
        <pt x="332" y="-100" on="0"/>
        <pt x="367" y="-40" on="0"/>
        <pt x="409" y="1" on="1"/>
        <pt x="409" y="66" on="1"/>
        <pt x="362" y="33" on="0"/>
        <pt x="273" y="-8" on="0"/>
        <pt x="218" y="-8" on="1"/>
        <pt x="143" y="-8" on="0"/>
        <pt x="58" y="67" on="0"/>
        <pt x="58" y="145" on="1"/>
        <pt x="58" y="159" on="0"/>
        <pt x="61" y="192" on="0"/>
        <pt x="63" y="208" on="1"/>
        <pt x="139" y="725" on="1"/>
        <pt x="275" y="725" on="1"/>
        <pt x="199" y="218" on="1"/>
        <pt x="196" y="198" on="0"/>
        <pt x="196" y="183" on="1"/>
        <pt x="194" y="111" on="0"/>
        <pt x="268" y="111" on="1"/>
        <pt x="303" y="111" on="0"/>
        <pt x="372" y="144" on="0"/>
        <pt x="412" y="175" on="1"/>
        <pt x="494" y="725" on="1"/>
        <pt x="629" y="725" on="1"/>
        <pt x="521" y="0" on="1"/>
        <pt x="488" y="0" on="1"/>
        <pt x="475" y="-15" on="1"/>
        <pt x="449" y="-48" on="0"/>
        <pt x="428" y="-82" on="0"/>
        <pt x="428" y="-96" on="1"/>
        <pt x="428" y="-123" on="0"/>
        <pt x="465" y="-123" on="1"/>
        <pt x="476" y="-123" on="0"/>
        <pt x="496" y="-120" on="0"/>
        <pt x="508" y="-118" on="1"/>
        <pt x="498" y="-183" on="1"/>
      </contour>
    </TTGlyph>
    <TTGlyph name="Uring" xMin="61" yMin="-13" xMax="632" yMax="981">
      <component glyphName="U" x="0" y="0" flags="0x204"/>
      <component glyphName="ring.cap" x="119" y="196" flags="0x4"/>
    </TTGlyph>
    <TTGlyph name="Uring.alt" xMin="58" yMin="-8" xMax="629" yMax="981">
      <component glyphName="ring.cap" x="121" y="196" flags="0x4"/>
      <component glyphName="U.alt" x="0" y="0" flags="0x4"/>
    </TTGlyph>
    <TTGlyph name="V" xMin="95" yMin="-3" xMax="659" yMax="732">
      <contour>
        <pt x="336" y="-3" on="1"/>
        <pt x="201" y="-3" on="1"/>
        <pt x="95" y="706" on="1"/>
        <pt x="235" y="732" on="1"/>
        <pt x="297" y="178" on="1"/>
        <pt x="520" y="725" on="1"/>
        <pt x="659" y="725" on="1"/>
      </contour>
    </TTGlyph>
    <TTGlyph name="V.flat" xMin="92" yMin="-3" xMax="659" yMax="725">
      <contour>
        <pt x="335" y="-3" on="1"/>
        <pt x="201" y="-3" on="1"/>
        <pt x="92" y="725" on="1"/>
        <pt x="235" y="725" on="1"/>
        <pt x="298" y="178" on="1"/>
        <pt x="520" y="725" on="1"/>
        <pt x="659" y="725" on="1"/>
      </contour>
    </TTGlyph>
    <TTGlyph name="W" xMin="100" yMin="0" xMax="969" yMax="733">
      <contour>
        <pt x="686" y="0" on="1"/>
        <pt x="556" y="0" on="1"/>
        <pt x="503" y="529" on="1"/>
        <pt x="294" y="0" on="1"/>
        <pt x="165" y="0" on="1"/>
        <pt x="100" y="708" on="1"/>
        <pt x="241" y="733" on="1"/>
        <pt x="271" y="214" on="1"/>
        <pt x="469" y="725" on="1"/>
        <pt x="608" y="725" on="1"/>
        <pt x="655" y="213" on="1"/>
        <pt x="836" y="725" on="1"/>
        <pt x="969" y="725" on="1"/>
      </contour>
    </TTGlyph>
    <TTGlyph name="W.alt" xMin="93" yMin="-2" xMax="970" yMax="733">
      <contour>
        <pt x="622" y="187" on="1"/>
        <pt x="832" y="725" on="1"/>
        <pt x="970" y="725" on="1"/>
        <pt x="656" y="-2" on="1"/>
        <pt x="531" y="-2" on="1"/>
        <pt x="478" y="353" on="1"/>
        <pt x="321" y="-2" on="1"/>
        <pt x="195" y="-2" on="1"/>
        <pt x="93" y="708" on="1"/>
        <pt x="231" y="733" on="1"/>
        <pt x="295" y="185" on="1"/>
        <pt x="449" y="534" on="1"/>
        <pt x="425" y="709" on="1"/>
        <pt x="559" y="732" on="1"/>
      </contour>
    </TTGlyph>
    <TTGlyph name="W.alt_flat" xMin="92" yMin="-2" xMax="971" yMax="725">
      <contour>
        <pt x="622" y="187" on="1"/>
        <pt x="832" y="725" on="1"/>
        <pt x="971" y="725" on="1"/>
        <pt x="657" y="-2" on="1"/>
        <pt x="531" y="-2" on="1"/>
        <pt x="479" y="354" on="1"/>
        <pt x="321" y="-2" on="1"/>
        <pt x="195" y="-2" on="1"/>
        <pt x="92" y="725" on="1"/>
        <pt x="232" y="725" on="1"/>
        <pt x="296" y="185" on="1"/>
        <pt x="450" y="534" on="1"/>
        <pt x="423" y="725" on="1"/>
        <pt x="560" y="725" on="1"/>
      </contour>
    </TTGlyph>
    <TTGlyph name="W.flat" xMin="100" yMin="0" xMax="969" yMax="725">
      <contour>
        <pt x="686" y="0" on="1"/>
        <pt x="557" y="0" on="1"/>
        <pt x="503" y="529" on="1"/>
        <pt x="294" y="0" on="1"/>
        <pt x="165" y="0" on="1"/>
        <pt x="100" y="725" on="1"/>
        <pt x="242" y="725" on="1"/>
        <pt x="272" y="214" on="1"/>
        <pt x="469" y="725" on="1"/>
        <pt x="608" y="725" on="1"/>
        <pt x="655" y="213" on="1"/>
        <pt x="836" y="725" on="1"/>
        <pt x="969" y="725" on="1"/>
      </contour>
    </TTGlyph>
    <TTGlyph name="Wacute" xMin="100" yMin="0" xMax="969" yMax="933">
      <component glyphName="acute.cap" x="334" y="208" flags="0x4"/>
      <component glyphName="W" x="0" y="0" flags="0x4"/>
    </TTGlyph>
    <TTGlyph name="Wacute.alt" xMin="93" yMin="-2" xMax="970" yMax="933">
      <component glyphName="acute.cap" x="318" y="208" flags="0x4"/>
      <component glyphName="W.alt" x="0" y="0" flags="0x4"/>
    </TTGlyph>
    <TTGlyph name="Wacute.alt_flat" xMin="92" yMin="-2" xMax="971" yMax="933">
      <component glyphName="acute.cap" x="319" y="208" flags="0x4"/>
      <component glyphName="W.alt_flat" x="0" y="0" flags="0x4"/>
    </TTGlyph>
    <TTGlyph name="Wacute.flat" xMin="100" yMin="0" xMax="969" yMax="933">
      <component glyphName="acute.cap" x="334" y="208" flags="0x4"/>
      <component glyphName="W.flat" x="0" y="0" flags="0x4"/>
    </TTGlyph>
    <TTGlyph name="Wcircumflex" xMin="100" yMin="0" xMax="969" yMax="927">
      <component glyphName="W" x="0" y="0" flags="0x204"/>
      <component glyphName="circumflex.cap" x="280" y="208" flags="0x4"/>
    </TTGlyph>
    <TTGlyph name="Wcircumflex.alt" xMin="93" yMin="-2" xMax="970" yMax="927">
      <component glyphName="W.alt" x="0" y="0" flags="0x204"/>
      <component glyphName="circumflex.cap" x="264" y="208" flags="0x4"/>
    </TTGlyph>
    <TTGlyph name="Wcircumflex.alt_flat" xMin="92" yMin="-2" xMax="971" yMax="927">
      <component glyphName="W.alt_flat" x="0" y="0" flags="0x204"/>
      <component glyphName="circumflex.cap" x="264" y="208" flags="0x4"/>
    </TTGlyph>
    <TTGlyph name="Wcircumflex.flat" xMin="100" yMin="0" xMax="969" yMax="927">
      <component glyphName="W.flat" x="0" y="0" flags="0x204"/>
      <component glyphName="circumflex.cap" x="280" y="208" flags="0x4"/>
    </TTGlyph>
    <TTGlyph name="Wdieresis" xMin="100" yMin="0" xMax="969" yMax="900">
      <component glyphName="dieresis.cap" x="281" y="208" flags="0x4"/>
      <component glyphName="W" x="0" y="0" flags="0x4"/>
    </TTGlyph>
    <TTGlyph name="Wdieresis.alt" xMin="93" yMin="-2" xMax="970" yMax="900">
      <component glyphName="dieresis.cap" x="266" y="208" flags="0x4"/>
      <component glyphName="W.alt" x="0" y="0" flags="0x4"/>
    </TTGlyph>
    <TTGlyph name="Wdieresis.alt_flat" xMin="92" yMin="-2" xMax="971" yMax="900">
      <component glyphName="dieresis.cap" x="267" y="208" flags="0x4"/>
      <component glyphName="W.alt_flat" x="0" y="0" flags="0x4"/>
    </TTGlyph>
    <TTGlyph name="Wdieresis.flat" xMin="100" yMin="0" xMax="969" yMax="900">
      <component glyphName="dieresis.cap" x="282" y="208" flags="0x4"/>
      <component glyphName="W.flat" x="0" y="0" flags="0x4"/>
    </TTGlyph>
    <TTGlyph name="Wgrave" xMin="100" yMin="0" xMax="969" yMax="933">
      <component glyphName="grave.cap" x="221" y="208" flags="0x4"/>
      <component glyphName="W" x="0" y="0" flags="0x4"/>
    </TTGlyph>
    <TTGlyph name="Wgrave.alt" xMin="93" yMin="-2" xMax="970" yMax="933">
      <component glyphName="grave.cap" x="206" y="208" flags="0x4"/>
      <component glyphName="W.alt" x="0" y="0" flags="0x4"/>
    </TTGlyph>
    <TTGlyph name="Wgrave.alt_flat" xMin="92" yMin="-2" xMax="971" yMax="933">
      <component glyphName="grave.cap" x="206" y="208" flags="0x4"/>
      <component glyphName="W.alt_flat" x="0" y="0" flags="0x4"/>
    </TTGlyph>
    <TTGlyph name="Wgrave.flat" xMin="100" yMin="0" xMax="969" yMax="933">
      <component glyphName="grave.cap" x="222" y="208" flags="0x4"/>
      <component glyphName="W.flat" x="0" y="0" flags="0x4"/>
    </TTGlyph>
    <TTGlyph name="X" xMin="-19" yMin="-8" xMax="621" yMax="733">
      <contour>
        <pt x="388" y="375" on="1"/>
        <pt x="532" y="17" on="1"/>
        <pt x="395" y="-8" on="1"/>
        <pt x="295" y="269" on="1"/>
        <pt x="129" y="0" on="1"/>
        <pt x="-19" y="0" on="1"/>
        <pt x="238" y="379" on="1"/>
        <pt x="105" y="709" on="1"/>
        <pt x="242" y="733" on="1"/>
        <pt x="330" y="487" on="1"/>
        <pt x="474" y="725" on="1"/>
        <pt x="621" y="725" on="1"/>
      </contour>
    </TTGlyph>
    <TTGlyph name="X.flat" xMin="-19" yMin="0" xMax="623" yMax="725">
      <contour>
        <pt x="388" y="373" on="1"/>
        <pt x="537" y="0" on="1"/>
        <pt x="390" y="0" on="1"/>
        <pt x="295" y="266" on="1"/>
        <pt x="129" y="0" on="1"/>
        <pt x="-19" y="0" on="1"/>
        <pt x="237" y="377" on="1"/>
        <pt x="98" y="725" on="1"/>
        <pt x="244" y="725" on="1"/>
        <pt x="330" y="485" on="1"/>
        <pt x="476" y="725" on="1"/>
        <pt x="623" y="725" on="1"/>
      </contour>
    </TTGlyph>
    <TTGlyph name="Y" xMin="84" yMin="0" xMax="649" yMax="733">
      <contour>
        <pt x="364" y="272" on="1"/>
        <pt x="323" y="0" on="1"/>
        <pt x="188" y="0" on="1"/>
        <pt x="229" y="272" on="1"/>
        <pt x="84" y="709" on="1"/>
        <pt x="222" y="733" on="1"/>
        <pt x="319" y="407" on="1"/>
        <pt x="500" y="725" on="1"/>
        <pt x="649" y="725" on="1"/>
      </contour>
    </TTGlyph>
    <TTGlyph name="Y.flat" xMin="80" yMin="0" xMax="650" yMax="725">
      <contour>
        <pt x="365" y="272" on="1"/>
        <pt x="325" y="0" on="1"/>
        <pt x="190" y="0" on="1"/>
        <pt x="230" y="272" on="1"/>
        <pt x="80" y="725" on="1"/>
        <pt x="225" y="725" on="1"/>
        <pt x="319" y="407" on="1"/>
        <pt x="501" y="725" on="1"/>
        <pt x="650" y="725" on="1"/>
      </contour>
    </TTGlyph>
    <TTGlyph name="Yacute" xMin="84" yMin="0" xMax="649" yMax="927">
      <component glyphName="Y" x="0" y="0" flags="0x204"/>
      <component glyphName="acute.cap" x="155" y="202" flags="0x4"/>
    </TTGlyph>
    <TTGlyph name="Yacute.flat" xMin="80" yMin="0" xMax="650" yMax="927">
      <component glyphName="acute.cap" x="156" y="202" flags="0x4"/>
      <component glyphName="Y.flat" x="0" y="0" flags="0x4"/>
    </TTGlyph>
    <TTGlyph name="Ycircumflex" xMin="84" yMin="0" xMax="649" yMax="921">
      <component glyphName="Y" x="0" y="0" flags="0x204"/>
      <component glyphName="circumflex.cap" x="101" y="202" flags="0x4"/>
    </TTGlyph>
    <TTGlyph name="Ycircumflex.flat" xMin="80" yMin="0" xMax="650" yMax="921">
      <component glyphName="Y.flat" x="0" y="0" flags="0x204"/>
      <component glyphName="circumflex.cap" x="102" y="202" flags="0x4"/>
    </TTGlyph>
    <TTGlyph name="Ydieresis" xMin="84" yMin="0" xMax="649" yMax="894">
      <component glyphName="Y" x="0" y="0" flags="0x204"/>
      <component glyphName="dieresis.cap" x="103" y="202" flags="0x4"/>
    </TTGlyph>
    <TTGlyph name="Ydieresis.flat" xMin="80" yMin="0" xMax="650" yMax="894">
      <component glyphName="dieresis.cap" x="104" y="202" flags="0x4"/>
      <component glyphName="Y.flat" x="0" y="0" flags="0x4"/>
    </TTGlyph>
    <TTGlyph name="Ygrave" xMin="84" yMin="0" xMax="649" yMax="927">
      <component glyphName="Y" x="0" y="0" flags="0x204"/>
      <component glyphName="grave.cap" x="43" y="202" flags="0x4"/>
    </TTGlyph>
    <TTGlyph name="Ygrave.flat" xMin="80" yMin="0" xMax="650" yMax="927">
      <component glyphName="grave.cap" x="44" y="202" flags="0x4"/>
      <component glyphName="Y.flat" x="0" y="0" flags="0x4"/>
    </TTGlyph>
    <TTGlyph name="Z" xMin="5" yMin="0" xMax="567" yMax="725">
      <contour>
        <pt x="551" y="624" on="1"/>
        <pt x="181" y="111" on="1"/>
        <pt x="470" y="111" on="1"/>
        <pt x="470" y="0" on="1"/>
        <pt x="5" y="0" on="1"/>
        <pt x="21" y="101" on="1"/>
        <pt x="391" y="614" on="1"/>
        <pt x="125" y="614" on="1"/>
        <pt x="125" y="725" on="1"/>
        <pt x="567" y="725" on="1"/>
      </contour>
    </TTGlyph>
    <TTGlyph name="Z.flat" xMin="5" yMin="0" xMax="567" yMax="725">
      <contour>
        <pt x="551" y="624" on="1"/>
        <pt x="181" y="111" on="1"/>
        <pt x="478" y="111" on="1"/>
        <pt x="461" y="0" on="1"/>
        <pt x="5" y="0" on="1"/>
        <pt x="21" y="101" on="1"/>
        <pt x="391" y="614" on="1"/>
        <pt x="116" y="614" on="1"/>
        <pt x="132" y="725" on="1"/>
        <pt x="567" y="725" on="1"/>
      </contour>
    </TTGlyph>
    <TTGlyph name="Zacute" xMin="5" yMin="0" xMax="567" yMax="933">
      <component glyphName="Z" x="0" y="0" flags="0x204"/>
      <component glyphName="acute.cap" x="135" y="208" flags="0x4"/>
    </TTGlyph>
    <TTGlyph name="Zacute.flat" xMin="5" yMin="0" xMax="567" yMax="933">
      <component glyphName="acute.cap" x="135" y="208" flags="0x4"/>
      <component glyphName="Z.flat" x="0" y="0" flags="0x4"/>
    </TTGlyph>
    <TTGlyph name="Zcaron" xMin="5" yMin="0" xMax="567" yMax="927">
      <component glyphName="caron.cap" x="84" y="208" flags="0x4"/>
      <component glyphName="Z" x="0" y="0" flags="0x4"/>
    </TTGlyph>
    <TTGlyph name="Zcaron.flat" xMin="5" yMin="0" xMax="567" yMax="927">
      <component glyphName="caron.cap" x="84" y="208" flags="0x4"/>
      <component glyphName="Z.flat" x="0" y="0" flags="0x4"/>
    </TTGlyph>
    <TTGlyph name="Zdotaccent" xMin="5" yMin="0" xMax="567" yMax="900">
      <component glyphName="dotaccent.cap" x="84" y="208" flags="0x4"/>
      <component glyphName="Z" x="0" y="0" flags="0x4"/>
    </TTGlyph>
    <TTGlyph name="Zdotaccent.flat" xMin="5" yMin="0" xMax="567" yMax="900">
      <component glyphName="dotaccent.cap" x="84" y="208" flags="0x4"/>
      <component glyphName="Z.flat" x="0" y="0" flags="0x4"/>
    </TTGlyph>
    <TTGlyph name="a" xMin="36" yMin="-11" xMax="509" yMax="551">
      <contour>
        <pt x="329" y="84" on="1"/>
        <pt x="294" y="42" on="0"/>
        <pt x="218" y="-11" on="0"/>
        <pt x="176" y="-11" on="1"/>
        <pt x="115" y="-11" on="0"/>
        <pt x="36" y="84" on="0"/>
        <pt x="36" y="176" on="1"/>
        <pt x="36" y="262" on="0"/>
        <pt x="84" y="401" on="0"/>
        <pt x="165" y="498" on="0"/>
        <pt x="274" y="551" on="0"/>
        <pt x="335" y="551" on="1"/>
        <pt x="379" y="551" on="0"/>
        <pt x="464" y="533" on="0"/>
        <pt x="509" y="515" on="1"/>
        <pt x="452" y="136" on="1"/>
        <pt x="452" y="0" on="1"/>
        <pt x="335" y="0" on="1"/>
      </contour>
      <contour>
        <pt x="371" y="436" on="1"/>
        <pt x="349" y="447" on="0"/>
        <pt x="320" y="447" on="1"/>
        <pt x="290" y="447" on="0"/>
        <pt x="234" y="409" on="0"/>
        <pt x="191" y="342" on="0"/>
        <pt x="164" y="251" on="0"/>
        <pt x="164" y="197" on="1"/>
        <pt x="164" y="152" on="0"/>
        <pt x="193" y="103" on="0"/>
        <pt x="221" y="103" on="1"/>
        <pt x="247" y="103" on="0"/>
        <pt x="302" y="146" on="0"/>
        <pt x="333" y="181" on="1"/>
      </contour>
    </TTGlyph>
    <TTGlyph name="a.alt" xMin="18" yMin="-11" xMax="464" yMax="555">
      <contour>
        <pt x="335" y="372" on="1"/>
        <pt x="336" y="377" on="0"/>
        <pt x="336" y="386" on="0"/>
        <pt x="336" y="391" on="1"/>
        <pt x="336" y="450" on="0"/>
        <pt x="269" y="450" on="1"/>
        <pt x="233" y="450" on="0"/>
        <pt x="152" y="425" on="0"/>
        <pt x="108" y="404" on="1"/>
        <pt x="108" y="511" on="1"/>
        <pt x="149" y="529" on="0"/>
        <pt x="243" y="555" on="0"/>
        <pt x="299" y="555" on="1"/>
        <pt x="384" y="555" on="0"/>
        <pt x="464" y="486" on="0"/>
        <pt x="464" y="417" on="1"/>
        <pt x="464" y="406" on="0"/>
        <pt x="462" y="384" on="0"/>
        <pt x="460" y="372" on="1"/>
        <pt x="421" y="109" on="1"/>
        <pt x="420" y="0" on="1"/>
        <pt x="303" y="0" on="1"/>
        <pt x="298" y="69" on="1"/>
        <pt x="264" y="34" on="0"/>
        <pt x="189" y="-11" on="0"/>
        <pt x="142" y="-11" on="1"/>
        <pt x="85" y="-11" on="0"/>
        <pt x="18" y="61" on="0"/>
        <pt x="18" y="122" on="1"/>
        <pt x="18" y="215" on="0"/>
        <pt x="170" y="329" on="0"/>
        <pt x="330" y="342" on="1"/>
      </contour>
      <contour>
        <pt x="190" y="88" on="1"/>
        <pt x="216" y="88" on="0"/>
        <pt x="269" y="119" on="0"/>
        <pt x="299" y="147" on="1"/>
        <pt x="318" y="266" on="1"/>
        <pt x="269" y="259" on="0"/>
        <pt x="202" y="234" on="0"/>
        <pt x="162" y="201" on="0"/>
        <pt x="144" y="162" on="0"/>
        <pt x="144" y="141" on="1"/>
        <pt x="144" y="88" on="0"/>
      </contour>
    </TTGlyph>
    <TTGlyph name="aacute" xMin="36" yMin="-11" xMax="539" yMax="774">
      <component glyphName="a" x="0" y="0" flags="0x204"/>
      <component glyphName="acute" x="117" y="1" flags="0x4"/>
    </TTGlyph>
    <TTGlyph name="aacute.alt" xMin="18" yMin="-11" xMax="499" yMax="774">
      <component glyphName="acute" x="77" y="1" flags="0x4"/>
      <component glyphName="a.alt" x="0" y="0" flags="0x4"/>
    </TTGlyph>
    <TTGlyph name="abreve" xMin="36" yMin="-11" xMax="513" yMax="760">
      <component glyphName="a" x="0" y="0" flags="0x204"/>
      <component glyphName="breve" x="60" y="1" flags="0x4"/>
    </TTGlyph>
    <TTGlyph name="abreve.alt" xMin="18" yMin="-11" xMax="472" yMax="760">
      <component glyphName="a.alt" x="0" y="0" flags="0x204"/>
      <component glyphName="breve" x="19" y="1" flags="0x4"/>
    </TTGlyph>
    <TTGlyph name="acircumflex" xMin="36" yMin="-11" xMax="509" yMax="768">
      <component glyphName="a" x="0" y="0" flags="0x204"/>
      <component glyphName="circumflex" x="60" y="1" flags="0x4"/>
    </TTGlyph>
    <TTGlyph name="acircumflex.alt" xMin="18" yMin="-11" xMax="464" yMax="768">
      <component glyphName="circumflex" x="19" y="1" flags="0x4"/>
      <component glyphName="a.alt" x="0" y="0" flags="0x4"/>
    </TTGlyph>
    <TTGlyph name="acute" xMin="176" yMin="607" xMax="422" yMax="773">
      <contour>
        <pt x="263" y="607" on="1"/>
        <pt x="176" y="607" on="1"/>
        <pt x="273" y="773" on="1"/>
        <pt x="422" y="742" on="1"/>
      </contour>
    </TTGlyph>
    <TTGlyph name="acute.cap" xMin="165" yMin="569" xMax="397" yMax="725">
      <contour>
        <pt x="247" y="569" on="1"/>
        <pt x="165" y="569" on="1"/>
        <pt x="255" y="725" on="1"/>
        <pt x="397" y="696" on="1"/>
      </contour>
    </TTGlyph>
    <TTGlyph name="adieresis" xMin="36" yMin="-11" xMax="517" yMax="738">
      <component glyphName="a" x="0" y="0" flags="0x204"/>
      <component glyphName="dieresis" x="62" y="1" flags="0x4"/>
    </TTGlyph>
    <TTGlyph name="adieresis.alt" xMin="18" yMin="-11" xMax="476" yMax="738">
      <component glyphName="dieresis" x="21" y="1" flags="0x4"/>
      <component glyphName="a.alt" x="0" y="0" flags="0x4"/>
    </TTGlyph>
    <TTGlyph name="ae" xMin="18" yMin="-11" xMax="742" yMax="556">
      <contour>
        <pt x="742" y="358" on="1"/>
        <pt x="742" y="326" on="0"/>
        <pt x="735" y="269" on="0"/>
        <pt x="729" y="243" on="1"/>
        <pt x="438" y="243" on="1"/>
        <pt x="437" y="237" on="0"/>
        <pt x="437" y="224" on="0"/>
        <pt x="437" y="217" on="1"/>
        <pt x="438" y="154" on="0"/>
        <pt x="491" y="91" on="0"/>
        <pt x="540" y="91" on="1"/>
        <pt x="581" y="91" on="0"/>
        <pt x="656" y="121" on="0"/>
        <pt x="694" y="147" on="1"/>
        <pt x="694" y="41" on="1"/>
        <pt x="653" y="17" on="0"/>
        <pt x="570" y="-11" on="0"/>
        <pt x="519" y="-11" on="1"/>
        <pt x="461" y="-11" on="0"/>
        <pt x="374" y="34" on="0"/>
        <pt x="348" y="76" on="1"/>
        <pt x="303" y="38" on="0"/>
        <pt x="207" y="-11" on="0"/>
        <pt x="154" y="-11" on="1"/>
        <pt x="94" y="-11" on="0"/>
        <pt x="18" y="58" on="0"/>
        <pt x="18" y="124" on="1"/>
        <pt x="18" y="215" on="0"/>
        <pt x="165" y="326" on="0"/>
        <pt x="326" y="343" on="1"/>
        <pt x="329" y="368" on="1"/>
        <pt x="330" y="374" on="0"/>
        <pt x="331" y="386" on="0"/>
        <pt x="331" y="391" on="1"/>
        <pt x="331" y="450" on="0"/>
        <pt x="264" y="450" on="1"/>
        <pt x="230" y="450" on="0"/>
        <pt x="151" y="425" on="0"/>
        <pt x="106" y="404" on="1"/>
        <pt x="106" y="510" on="1"/>
        <pt x="148" y="529" on="0"/>
        <pt x="240" y="555" on="0"/>
        <pt x="290" y="555" on="1"/>
        <pt x="391" y="555" on="0"/>
        <pt x="422" y="491" on="1"/>
        <pt x="452" y="522" on="0"/>
        <pt x="527" y="556" on="0"/>
        <pt x="570" y="556" on="1"/>
        <pt x="613" y="556" on="0"/>
        <pt x="678" y="526" on="0"/>
        <pt x="721" y="472" on="0"/>
        <pt x="742" y="400" on="0"/>
      </contour>
      <contour>
        <pt x="622" y="328" on="1"/>
        <pt x="623" y="338" on="0"/>
        <pt x="624" y="356" on="0"/>
        <pt x="624" y="365" on="1"/>
        <pt x="624" y="410" on="0"/>
        <pt x="594" y="463" on="0"/>
        <pt x="560" y="463" on="1"/>
        <pt x="525" y="463" on="0"/>
        <pt x="465" y="389" on="0"/>
        <pt x="450" y="328" on="1"/>
      </contour>
      <contour>
        <pt x="319" y="152" on="1"/>
        <pt x="313" y="182" on="0"/>
        <pt x="313" y="217" on="1"/>
        <pt x="313" y="228" on="0"/>
        <pt x="314" y="252" on="0"/>
        <pt x="315" y="266" on="1"/>
        <pt x="264" y="258" on="0"/>
        <pt x="198" y="232" on="0"/>
        <pt x="159" y="199" on="0"/>
        <pt x="143" y="163" on="0"/>
        <pt x="143" y="144" on="1"/>
        <pt x="143" y="116" on="0"/>
        <pt x="172" y="88" on="0"/>
        <pt x="198" y="88" on="1"/>
        <pt x="223" y="88" on="0"/>
        <pt x="281" y="118" on="0"/>
      </contour>
    </TTGlyph>
    <TTGlyph name="aeacute" xMin="18" yMin="-11" xMax="742" yMax="773">
      <component glyphName="acute" x="220" y="0" flags="0x4"/>
      <component glyphName="ae" x="0" y="0" flags="0x4"/>
    </TTGlyph>
    <TTGlyph name="agrave" xMin="36" yMin="-11" xMax="509" yMax="774">
      <component glyphName="a" x="0" y="0" flags="0x204"/>
      <component glyphName="grave" x="-2" y="1" flags="0x4"/>
    </TTGlyph>
    <TTGlyph name="agrave.alt" xMin="18" yMin="-11" xMax="464" yMax="774">
      <component glyphName="a.alt" x="0" y="0" flags="0x204"/>
      <component glyphName="grave" x="-43" y="1" flags="0x4"/>
    </TTGlyph>
    <TTGlyph name="amacron" xMin="36" yMin="-11" xMax="513" yMax="721">
      <component glyphName="a" x="0" y="0" flags="0x204"/>
      <component glyphName="macron" x="63" y="1" flags="0x4"/>
    </TTGlyph>
    <TTGlyph name="amacron.alt" xMin="18" yMin="-11" xMax="472" yMax="721">
      <component glyphName="a.alt" x="0" y="0" flags="0x204"/>
      <component glyphName="macron" x="22" y="1" flags="0x4"/>
    </TTGlyph>
    <TTGlyph name="ampersand" xMin="23" yMin="-13" xMax="593" yMax="738">
      <contour>
        <pt x="213" y="-13" on="1"/>
        <pt x="169" y="-13" on="0"/>
        <pt x="98" y="14" on="0"/>
        <pt x="49" y="62" on="0"/>
        <pt x="23" y="128" on="0"/>
        <pt x="23" y="167" on="1"/>
        <pt x="23" y="209" on="0"/>
        <pt x="50" y="282" on="0"/>
        <pt x="98" y="343" on="0"/>
        <pt x="165" y="392" on="0"/>
        <pt x="205" y="411" on="1"/>
        <pt x="186" y="446" on="0"/>
        <pt x="163" y="512" on="0"/>
        <pt x="163" y="549" on="1"/>
        <pt x="163" y="589" on="0"/>
        <pt x="191" y="658" on="0"/>
        <pt x="244" y="709" on="0"/>
        <pt x="317" y="738" on="0"/>
        <pt x="362" y="738" on="1"/>
        <pt x="416" y="738" on="0"/>
        <pt x="495" y="711" on="0"/>
        <pt x="528" y="693" on="1"/>
        <pt x="492" y="584" on="1"/>
        <pt x="461" y="603" on="0"/>
        <pt x="400" y="629" on="0"/>
        <pt x="368" y="629" on="1"/>
        <pt x="330" y="629" on="0"/>
        <pt x="287" y="586" on="0"/>
        <pt x="287" y="551" on="1"/>
        <pt x="287" y="522" on="0"/>
        <pt x="310" y="471" on="0"/>
        <pt x="330" y="439" on="1"/>
        <pt x="428" y="282" on="1"/>
        <pt x="443" y="314" on="0"/>
        <pt x="470" y="385" on="0"/>
        <pt x="483" y="429" on="1"/>
        <pt x="585" y="402" on="1"/>
        <pt x="566" y="341" on="0"/>
        <pt x="518" y="230" on="0"/>
        <pt x="489" y="184" on="1"/>
        <pt x="593" y="18" on="1"/>
        <pt x="468" y="-7" on="1"/>
        <pt x="412" y="83" on="1"/>
        <pt x="367" y="36" on="0"/>
        <pt x="269" y="-13" on="0"/>
      </contour>
      <contour>
        <pt x="234" y="91" on="1"/>
        <pt x="265" y="91" on="0"/>
        <pt x="328" y="129" on="0"/>
        <pt x="358" y="169" on="1"/>
        <pt x="256" y="332" on="1"/>
        <pt x="149" y="274" on="0"/>
        <pt x="149" y="181" on="1"/>
        <pt x="149" y="143" on="0"/>
        <pt x="192" y="91" on="0"/>
      </contour>
    </TTGlyph>
    <TTGlyph name="ampersand.flat" xMin="23" yMin="-13" xMax="603" yMax="738">
      <contour>
        <pt x="213" y="-13" on="1"/>
        <pt x="169" y="-13" on="0"/>
        <pt x="98" y="14" on="0"/>
        <pt x="49" y="62" on="0"/>
        <pt x="23" y="128" on="0"/>
        <pt x="23" y="167" on="1"/>
        <pt x="23" y="209" on="0"/>
        <pt x="50" y="282" on="0"/>
        <pt x="98" y="343" on="0"/>
        <pt x="165" y="392" on="0"/>
        <pt x="205" y="411" on="1"/>
        <pt x="186" y="446" on="0"/>
        <pt x="163" y="512" on="0"/>
        <pt x="163" y="549" on="1"/>
        <pt x="163" y="589" on="0"/>
        <pt x="191" y="658" on="0"/>
        <pt x="244" y="709" on="0"/>
        <pt x="317" y="738" on="0"/>
        <pt x="362" y="738" on="1"/>
        <pt x="416" y="738" on="0"/>
        <pt x="495" y="711" on="0"/>
        <pt x="528" y="693" on="1"/>
        <pt x="492" y="584" on="1"/>
        <pt x="461" y="603" on="0"/>
        <pt x="400" y="629" on="0"/>
        <pt x="368" y="629" on="1"/>
        <pt x="330" y="629" on="0"/>
        <pt x="287" y="586" on="0"/>
        <pt x="287" y="551" on="1"/>
        <pt x="287" y="522" on="0"/>
        <pt x="310" y="471" on="0"/>
        <pt x="330" y="439" on="1"/>
        <pt x="428" y="282" on="1"/>
        <pt x="458" y="343" on="0"/>
        <pt x="483" y="429" on="1"/>
        <pt x="585" y="402" on="1"/>
        <pt x="547" y="277" on="0"/>
        <pt x="489" y="184" on="1"/>
        <pt x="603" y="0" on="1"/>
        <pt x="464" y="0" on="1"/>
        <pt x="412" y="83" on="1"/>
        <pt x="367" y="36" on="0"/>
        <pt x="269" y="-13" on="0"/>
      </contour>
      <contour>
        <pt x="234" y="91" on="1"/>
        <pt x="265" y="91" on="0"/>
        <pt x="328" y="129" on="0"/>
        <pt x="358" y="169" on="1"/>
        <pt x="256" y="332" on="1"/>
        <pt x="149" y="274" on="0"/>
        <pt x="149" y="181" on="1"/>
        <pt x="149" y="143" on="0"/>
        <pt x="192" y="91" on="0"/>
      </contour>
    </TTGlyph>
    <TTGlyph name="aogonek" xMin="36" yMin="-212" xMax="509" yMax="551">
      <contour>
        <pt x="329" y="84" on="1"/>
        <pt x="294" y="42" on="0"/>
        <pt x="218" y="-11" on="0"/>
        <pt x="176" y="-11" on="1"/>
        <pt x="115" y="-11" on="0"/>
        <pt x="36" y="84" on="0"/>
        <pt x="36" y="176" on="1"/>
        <pt x="36" y="262" on="0"/>
        <pt x="84" y="401" on="0"/>
        <pt x="165" y="498" on="0"/>
        <pt x="274" y="551" on="0"/>
        <pt x="335" y="551" on="1"/>
        <pt x="379" y="551" on="0"/>
        <pt x="464" y="533" on="0"/>
        <pt x="509" y="515" on="1"/>
        <pt x="452" y="136" on="1"/>
        <pt x="452" y="0" on="1"/>
        <pt x="416" y="0" on="1"/>
        <pt x="402" y="-17" on="1"/>
        <pt x="374" y="-52" on="0"/>
        <pt x="352" y="-88" on="0"/>
        <pt x="352" y="-103" on="1"/>
        <pt x="352" y="-131" on="0"/>
        <pt x="392" y="-131" on="1"/>
        <pt x="403" y="-131" on="0"/>
        <pt x="425" y="-128" on="0"/>
        <pt x="437" y="-126" on="1"/>
        <pt x="426" y="-195" on="1"/>
        <pt x="406" y="-203" on="0"/>
        <pt x="364" y="-212" on="0"/>
        <pt x="339" y="-212" on="1"/>
        <pt x="297" y="-212" on="0"/>
        <pt x="250" y="-173" on="0"/>
        <pt x="250" y="-137" on="1"/>
        <pt x="250" y="-108" on="0"/>
        <pt x="285" y="-47" on="0"/>
        <pt x="327" y="-5" on="1"/>
        <pt x="331" y="-1" on="1"/>
        <pt x="335" y="3" on="1"/>
      </contour>
      <contour>
        <pt x="371" y="436" on="1"/>
        <pt x="349" y="447" on="0"/>
        <pt x="320" y="447" on="1"/>
        <pt x="290" y="447" on="0"/>
        <pt x="234" y="409" on="0"/>
        <pt x="191" y="342" on="0"/>
        <pt x="164" y="251" on="0"/>
        <pt x="164" y="197" on="1"/>
        <pt x="164" y="152" on="0"/>
        <pt x="193" y="103" on="0"/>
        <pt x="221" y="103" on="1"/>
        <pt x="247" y="103" on="0"/>
        <pt x="302" y="146" on="0"/>
        <pt x="333" y="181" on="1"/>
      </contour>
    </TTGlyph>
    <TTGlyph name="aogonek.alt" xMin="18" yMin="-212" xMax="464" yMax="555">
      <contour>
        <pt x="335" y="372" on="1"/>
        <pt x="336" y="377" on="0"/>
        <pt x="336" y="386" on="0"/>
        <pt x="336" y="391" on="1"/>
        <pt x="336" y="450" on="0"/>
        <pt x="269" y="450" on="1"/>
        <pt x="233" y="450" on="0"/>
        <pt x="152" y="425" on="0"/>
        <pt x="108" y="404" on="1"/>
        <pt x="108" y="511" on="1"/>
        <pt x="149" y="529" on="0"/>
        <pt x="243" y="555" on="0"/>
        <pt x="299" y="555" on="1"/>
        <pt x="384" y="555" on="0"/>
        <pt x="464" y="486" on="0"/>
        <pt x="464" y="417" on="1"/>
        <pt x="464" y="406" on="0"/>
        <pt x="462" y="384" on="0"/>
        <pt x="460" y="372" on="1"/>
        <pt x="421" y="109" on="1"/>
        <pt x="420" y="0" on="1"/>
        <pt x="383" y="0" on="1"/>
        <pt x="369" y="-17" on="1"/>
        <pt x="341" y="-52" on="0"/>
        <pt x="319" y="-88" on="0"/>
        <pt x="319" y="-103" on="1"/>
        <pt x="319" y="-131" on="0"/>
        <pt x="359" y="-131" on="1"/>
        <pt x="370" y="-131" on="0"/>
        <pt x="392" y="-128" on="0"/>
        <pt x="404" y="-126" on="1"/>
        <pt x="393" y="-195" on="1"/>
        <pt x="373" y="-203" on="0"/>
        <pt x="331" y="-212" on="0"/>
        <pt x="306" y="-212" on="1"/>
        <pt x="264" y="-212" on="0"/>
        <pt x="217" y="-173" on="0"/>
        <pt x="217" y="-137" on="1"/>
        <pt x="217" y="-108" on="0"/>
        <pt x="253" y="-46" on="0"/>
        <pt x="295" y="-4" on="1"/>
        <pt x="303" y="4" on="1"/>
        <pt x="298" y="69" on="1"/>
        <pt x="264" y="34" on="0"/>
        <pt x="189" y="-11" on="0"/>
        <pt x="142" y="-11" on="1"/>
        <pt x="85" y="-11" on="0"/>
        <pt x="18" y="61" on="0"/>
        <pt x="18" y="122" on="1"/>
        <pt x="18" y="215" on="0"/>
        <pt x="170" y="329" on="0"/>
        <pt x="330" y="342" on="1"/>
      </contour>
      <contour>
        <pt x="190" y="88" on="1"/>
        <pt x="216" y="88" on="0"/>
        <pt x="269" y="119" on="0"/>
        <pt x="299" y="147" on="1"/>
        <pt x="318" y="266" on="1"/>
        <pt x="269" y="259" on="0"/>
        <pt x="202" y="234" on="0"/>
        <pt x="162" y="201" on="0"/>
        <pt x="144" y="162" on="0"/>
        <pt x="144" y="141" on="1"/>
        <pt x="144" y="88" on="0"/>
      </contour>
    </TTGlyph>
    <TTGlyph name="aring" xMin="36" yMin="-11" xMax="509" yMax="837">
      <component glyphName="a" x="0" y="0" flags="0x204"/>
      <component glyphName="ring" x="59" y="1" flags="0x4"/>
    </TTGlyph>
    <TTGlyph name="aring.alt" xMin="18" yMin="-11" xMax="464" yMax="837">
      <component glyphName="ring" x="18" y="1" flags="0x4"/>
      <component glyphName="a.alt" x="0" y="0" flags="0x4"/>
    </TTGlyph>
    <TTGlyph name="aringacute" xMin="36" yMin="-11" xMax="574" yMax="1047">
      <contour>
        <pt x="329" y="84" on="1"/>
        <pt x="294" y="42" on="0"/>
        <pt x="218" y="-11" on="0"/>
        <pt x="176" y="-11" on="1"/>
        <pt x="115" y="-11" on="0"/>
        <pt x="36" y="84" on="0"/>
        <pt x="36" y="176" on="1"/>
        <pt x="36" y="262" on="0"/>
        <pt x="84" y="401" on="0"/>
        <pt x="165" y="498" on="0"/>
        <pt x="274" y="551" on="0"/>
        <pt x="335" y="551" on="1"/>
        <pt x="379" y="551" on="0"/>
        <pt x="464" y="533" on="0"/>
        <pt x="509" y="515" on="1"/>
        <pt x="452" y="136" on="1"/>
        <pt x="452" y="0" on="1"/>
        <pt x="335" y="0" on="1"/>
      </contour>
      <contour>
        <pt x="371" y="436" on="1"/>
        <pt x="349" y="447" on="0"/>
        <pt x="320" y="447" on="1"/>
        <pt x="290" y="447" on="0"/>
        <pt x="234" y="409" on="0"/>
        <pt x="191" y="342" on="0"/>
        <pt x="164" y="251" on="0"/>
        <pt x="164" y="197" on="1"/>
        <pt x="164" y="152" on="0"/>
        <pt x="193" y="103" on="0"/>
        <pt x="221" y="103" on="1"/>
        <pt x="247" y="103" on="0"/>
        <pt x="302" y="146" on="0"/>
        <pt x="333" y="181" on="1"/>
      </contour>
      <contour>
        <pt x="415" y="881" on="1"/>
        <pt x="328" y="881" on="1"/>
        <pt x="425" y="1047" on="1"/>
        <pt x="574" y="1016" on="1"/>
      </contour>
      <contour>
        <pt x="363" y="659" on="1"/>
        <pt x="389" y="659" on="0"/>
        <pt x="419" y="694" on="0"/>
        <pt x="419" y="721" on="1"/>
        <pt x="419" y="748" on="0"/>
        <pt x="389" y="783" on="0"/>
        <pt x="363" y="783" on="1"/>
        <pt x="337" y="783" on="0"/>
        <pt x="305" y="748" on="0"/>
        <pt x="305" y="721" on="1"/>
        <pt x="305" y="694" on="0"/>
        <pt x="337" y="659" on="0"/>
      </contour>
      <contour>
        <pt x="363" y="605" on="1"/>
        <pt x="305" y="605" on="0"/>
        <pt x="235" y="669" on="0"/>
        <pt x="235" y="721" on="1"/>
        <pt x="235" y="772" on="0"/>
        <pt x="305" y="837" on="0"/>
        <pt x="363" y="837" on="1"/>
        <pt x="420" y="837" on="0"/>
        <pt x="489" y="772" on="0"/>
        <pt x="489" y="721" on="1"/>
        <pt x="489" y="669" on="0"/>
        <pt x="420" y="605" on="0"/>
      </contour>
    </TTGlyph>
    <TTGlyph name="aringacute.alt" xMin="18" yMin="-11" xMax="529" yMax="1044">
      <contour>
        <pt x="370" y="878" on="1"/>
        <pt x="283" y="878" on="1"/>
        <pt x="380" y="1044" on="1"/>
        <pt x="529" y="1013" on="1"/>
      </contour>
      <contour>
        <pt x="322" y="659" on="1"/>
        <pt x="348" y="659" on="0"/>
        <pt x="378" y="694" on="0"/>
        <pt x="378" y="721" on="1"/>
        <pt x="378" y="748" on="0"/>
        <pt x="348" y="783" on="0"/>
        <pt x="322" y="783" on="1"/>
        <pt x="296" y="783" on="0"/>
        <pt x="264" y="748" on="0"/>
        <pt x="264" y="721" on="1"/>
        <pt x="264" y="694" on="0"/>
        <pt x="296" y="659" on="0"/>
      </contour>
      <contour>
        <pt x="322" y="605" on="1"/>
        <pt x="264" y="605" on="0"/>
        <pt x="194" y="669" on="0"/>
        <pt x="194" y="721" on="1"/>
        <pt x="194" y="772" on="0"/>
        <pt x="264" y="837" on="0"/>
        <pt x="322" y="837" on="1"/>
        <pt x="379" y="837" on="0"/>
        <pt x="448" y="772" on="0"/>
        <pt x="448" y="721" on="1"/>
        <pt x="448" y="669" on="0"/>
        <pt x="379" y="605" on="0"/>
      </contour>
      <contour>
        <pt x="335" y="372" on="1"/>
        <pt x="336" y="377" on="0"/>
        <pt x="336" y="386" on="0"/>
        <pt x="336" y="391" on="1"/>
        <pt x="336" y="450" on="0"/>
        <pt x="269" y="450" on="1"/>
        <pt x="233" y="450" on="0"/>
        <pt x="152" y="425" on="0"/>
        <pt x="108" y="404" on="1"/>
        <pt x="108" y="511" on="1"/>
        <pt x="149" y="529" on="0"/>
        <pt x="243" y="555" on="0"/>
        <pt x="299" y="555" on="1"/>
        <pt x="384" y="555" on="0"/>
        <pt x="464" y="486" on="0"/>
        <pt x="464" y="417" on="1"/>
        <pt x="464" y="406" on="0"/>
        <pt x="462" y="384" on="0"/>
        <pt x="460" y="372" on="1"/>
        <pt x="421" y="109" on="1"/>
        <pt x="420" y="0" on="1"/>
        <pt x="303" y="0" on="1"/>
        <pt x="298" y="69" on="1"/>
        <pt x="264" y="34" on="0"/>
        <pt x="189" y="-11" on="0"/>
        <pt x="142" y="-11" on="1"/>
        <pt x="85" y="-11" on="0"/>
        <pt x="18" y="61" on="0"/>
        <pt x="18" y="122" on="1"/>
        <pt x="18" y="215" on="0"/>
        <pt x="170" y="329" on="0"/>
        <pt x="330" y="342" on="1"/>
      </contour>
      <contour>
        <pt x="190" y="88" on="1"/>
        <pt x="216" y="88" on="0"/>
        <pt x="269" y="119" on="0"/>
        <pt x="299" y="147" on="1"/>
        <pt x="318" y="266" on="1"/>
        <pt x="269" y="259" on="0"/>
        <pt x="202" y="234" on="0"/>
        <pt x="162" y="201" on="0"/>
        <pt x="144" y="162" on="0"/>
        <pt x="144" y="141" on="1"/>
        <pt x="144" y="88" on="0"/>
      </contour>
    </TTGlyph>
    <TTGlyph name="asciicircum" xMin="103" yMin="538" xMax="420" yMax="729">
      <contour>
        <pt x="333" y="538" on="1"/>
        <pt x="278" y="638" on="1"/>
        <pt x="192" y="538" on="1"/>
        <pt x="103" y="538" on="1"/>
        <pt x="240" y="729" on="1"/>
        <pt x="338" y="729" on="1"/>
        <pt x="420" y="538" on="1"/>
      </contour>
    </TTGlyph>
    <TTGlyph name="asciitilde" xMin="50" yMin="250" xMax="418" yMax="415">
      <contour>
        <pt x="418" y="402" on="1"/>
        <pt x="400" y="323" on="0"/>
        <pt x="343" y="255" on="0"/>
        <pt x="304" y="255" on="1"/>
        <pt x="283" y="255" on="0"/>
        <pt x="247" y="270" on="0"/>
        <pt x="227" y="283" on="1"/>
        <pt x="203" y="297" on="0"/>
        <pt x="176" y="310" on="0"/>
        <pt x="165" y="310" on="1"/>
        <pt x="152" y="310" on="0"/>
        <pt x="135" y="285" on="0"/>
        <pt x="124" y="250" on="1"/>
        <pt x="50" y="264" on="1"/>
        <pt x="69" y="342" on="0"/>
        <pt x="125" y="411" on="0"/>
        <pt x="165" y="411" on="1"/>
        <pt x="186" y="411" on="0"/>
        <pt x="222" y="395" on="0"/>
        <pt x="242" y="382" on="1"/>
        <pt x="266" y="368" on="0"/>
        <pt x="293" y="356" on="0"/>
        <pt x="304" y="356" on="1"/>
        <pt x="316" y="356" on="0"/>
        <pt x="334" y="380" on="0"/>
        <pt x="345" y="415" on="1"/>
      </contour>
    </TTGlyph>
    <TTGlyph name="asterisk" xMin="86" yMin="439" xMax="444" yMax="779">
      <contour>
        <pt x="333" y="575" on="1"/>
        <pt x="387" y="458" on="1"/>
        <pt x="358" y="439" on="1"/>
        <pt x="265" y="526" on="1"/>
        <pt x="172" y="439" on="1"/>
        <pt x="143" y="458" on="1"/>
        <pt x="197" y="575" on="1"/>
        <pt x="86" y="637" on="1"/>
        <pt x="97" y="670" on="1"/>
        <pt x="224" y="655" on="1"/>
        <pt x="247" y="779" on="1"/>
        <pt x="283" y="779" on="1"/>
        <pt x="306" y="655" on="1"/>
        <pt x="434" y="670" on="1"/>
        <pt x="444" y="637" on="1"/>
      </contour>
    </TTGlyph>
    <TTGlyph name="at" xMin="46" yMin="-155" xMax="816" yMax="707">
      <contour>
        <pt x="613" y="50" on="1"/>
        <pt x="561" y="50" on="0"/>
        <pt x="494" y="101" on="0"/>
        <pt x="485" y="146" on="1"/>
        <pt x="447" y="98" on="0"/>
        <pt x="379" y="50" on="0"/>
        <pt x="338" y="50" on="1"/>
        <pt x="290" y="50" on="0"/>
        <pt x="226" y="125" on="0"/>
        <pt x="226" y="196" on="1"/>
        <pt x="226" y="263" on="0"/>
        <pt x="267" y="378" on="0"/>
        <pt x="339" y="463" on="0"/>
        <pt x="435" y="511" on="0"/>
        <pt x="490" y="511" on="1"/>
        <pt x="531" y="511" on="0"/>
        <pt x="601" y="494" on="0"/>
        <pt x="632" y="480" on="1"/>
        <pt x="588" y="209" on="1"/>
        <pt x="587" y="200" on="0"/>
        <pt x="584" y="176" on="0"/>
        <pt x="584" y="165" on="1"/>
        <pt x="584" y="139" on="0"/>
        <pt x="611" y="109" on="0"/>
        <pt x="638" y="109" on="1"/>
        <pt x="665" y="109" on="0"/>
        <pt x="712" y="146" on="0"/>
        <pt x="747" y="213" on="0"/>
        <pt x="768" y="306" on="0"/>
        <pt x="768" y="362" on="1"/>
        <pt x="768" y="439" on="0"/>
        <pt x="726" y="553" on="0"/>
        <pt x="651" y="629" on="0"/>
        <pt x="548" y="667" on="0"/>
        <pt x="486" y="667" on="1"/>
        <pt x="407" y="667" on="0"/>
        <pt x="265" y="594" on="0"/>
        <pt x="158" y="468" on="0"/>
        <pt x="95" y="298" on="0"/>
        <pt x="95" y="201" on="1"/>
        <pt x="95" y="121" on="0"/>
        <pt x="138" y="2" on="0"/>
        <pt x="215" y="-76" on="0"/>
        <pt x="322" y="-115" on="0"/>
        <pt x="386" y="-115" on="1"/>
        <pt x="450" y="-115" on="0"/>
        <pt x="559" y="-85" on="0"/>
        <pt x="607" y="-59" on="1"/>
        <pt x="614" y="-100" on="1"/>
        <pt x="568" y="-123" on="0"/>
        <pt x="453" y="-155" on="0"/>
        <pt x="384" y="-155" on="1"/>
        <pt x="306" y="-155" on="0"/>
        <pt x="181" y="-107" on="0"/>
        <pt x="93" y="-16" on="0"/>
        <pt x="46" y="116" on="0"/>
        <pt x="46" y="200" on="1"/>
        <pt x="46" y="303" on="0"/>
        <pt x="116" y="488" on="0"/>
        <pt x="237" y="626" on="0"/>
        <pt x="398" y="707" on="0"/>
        <pt x="489" y="707" on="1"/>
        <pt x="561" y="707" on="0"/>
        <pt x="682" y="662" on="0"/>
        <pt x="768" y="574" on="0"/>
        <pt x="816" y="446" on="0"/>
        <pt x="816" y="364" on="1"/>
        <pt x="816" y="295" on="0"/>
        <pt x="787" y="179" on="0"/>
        <pt x="734" y="96" on="0"/>
        <pt x="659" y="50" on="0"/>
      </contour>
      <contour>
        <pt x="378" y="144" on="1"/>
        <pt x="400" y="144" on="0"/>
        <pt x="452" y="188" on="0"/>
        <pt x="484" y="228" on="1"/>
        <pt x="515" y="416" on="1"/>
        <pt x="505" y="419" on="0"/>
        <pt x="489" y="422" on="0"/>
        <pt x="478" y="422" on="1"/>
        <pt x="448" y="422" on="0"/>
        <pt x="396" y="388" on="0"/>
        <pt x="356" y="330" on="0"/>
        <pt x="333" y="255" on="0"/>
        <pt x="333" y="215" on="1"/>
        <pt x="333" y="177" on="0"/>
        <pt x="357" y="144" on="0"/>
      </contour>
    </TTGlyph>
    <TTGlyph name="atilde" xMin="36" yMin="-11" xMax="535" yMax="764">
      <component glyphName="a" x="0" y="0" flags="0x204"/>
      <component glyphName="tilde" x="63" y="1" flags="0x4"/>
    </TTGlyph>
    <TTGlyph name="atilde.alt" xMin="18" yMin="-11" xMax="495" yMax="764">
      <component glyphName="a.alt" x="0" y="0" flags="0x204"/>
      <component glyphName="tilde" x="23" y="1" flags="0x4"/>
    </TTGlyph>
    <TTGlyph name="b" xMin="31" yMin="-7" xMax="506" yMax="809">
      <contour>
        <pt x="144" y="789" on="1"/>
        <pt x="274" y="809" on="1"/>
        <pt x="224" y="479" on="1"/>
        <pt x="253" y="511" on="0"/>
        <pt x="321" y="556" on="0"/>
        <pt x="363" y="556" on="1"/>
        <pt x="426" y="556" on="0"/>
        <pt x="506" y="456" on="0"/>
        <pt x="506" y="362" on="1"/>
        <pt x="506" y="276" on="0"/>
        <pt x="459" y="140" on="0"/>
        <pt x="380" y="44" on="0"/>
        <pt x="273" y="-7" on="0"/>
        <pt x="213" y="-7" on="1"/>
        <pt x="168" y="-7" on="0"/>
        <pt x="77" y="13" on="0"/>
        <pt x="31" y="31" on="1"/>
      </contour>
      <contour>
        <pt x="169" y="110" on="1"/>
        <pt x="183" y="104" on="0"/>
        <pt x="209" y="98" on="0"/>
        <pt x="226" y="98" on="1"/>
        <pt x="255" y="98" on="0"/>
        <pt x="310" y="133" on="0"/>
        <pt x="352" y="197" on="0"/>
        <pt x="378" y="288" on="0"/>
        <pt x="378" y="344" on="1"/>
        <pt x="378" y="390" on="0"/>
        <pt x="349" y="442" on="0"/>
        <pt x="319" y="442" on="1"/>
        <pt x="292" y="442" on="0"/>
        <pt x="239" y="404" on="0"/>
        <pt x="207" y="370" on="1"/>
      </contour>
    </TTGlyph>
    <TTGlyph name="backslash" xMin="65" yMin="-141" xMax="472" yMax="782">
      <contour>
        <pt x="370" y="-141" on="1"/>
        <pt x="65" y="760" on="1"/>
        <pt x="168" y="782" on="1"/>
        <pt x="472" y="-118" on="1"/>
      </contour>
    </TTGlyph>
    <TTGlyph name="baht" xMin="-60" yMin="-129" xMax="565" yMax="787">
      <contour>
        <pt x="314" y="719" on="1"/>
        <pt x="381" y="719" on="0"/>
        <pt x="431" y="697" on="1"/>
        <pt x="489" y="787" on="1"/>
        <pt x="565" y="768" on="1"/>
        <pt x="491" y="654" on="1"/>
        <pt x="526" y="611" on="0"/>
        <pt x="526" y="552" on="1"/>
        <pt x="526" y="485" on="0"/>
        <pt x="451" y="393" on="0"/>
        <pt x="392" y="374" on="1"/>
        <pt x="441" y="354" on="0"/>
        <pt x="497" y="276" on="0"/>
        <pt x="497" y="222" on="1"/>
        <pt x="497" y="119" on="0"/>
        <pt x="349" y="0" on="0"/>
        <pt x="216" y="0" on="1"/>
        <pt x="93" y="0" on="1"/>
        <pt x="15" y="-129" on="1"/>
        <pt x="-60" y="-112" on="1"/>
        <pt x="47" y="69" on="1"/>
        <pt x="144" y="719" on="1"/>
      </contour>
      <contour>
        <pt x="375" y="225" on="1"/>
        <pt x="375" y="273" on="0"/>
        <pt x="314" y="328" on="0"/>
        <pt x="255" y="328" on="1"/>
        <pt x="207" y="328" on="1"/>
        <pt x="172" y="100" on="1"/>
        <pt x="228" y="100" on="1"/>
        <pt x="296" y="100" on="0"/>
        <pt x="375" y="166" on="0"/>
      </contour>
      <contour>
        <pt x="404" y="531" on="1"/>
        <pt x="404" y="570" on="0"/>
        <pt x="355" y="616" on="0"/>
        <pt x="306" y="616" on="1"/>
        <pt x="250" y="616" on="1"/>
        <pt x="220" y="417" on="1"/>
        <pt x="274" y="417" on="1"/>
        <pt x="331" y="417" on="0"/>
        <pt x="404" y="478" on="0"/>
      </contour>
    </TTGlyph>
    <TTGlyph name="bar" xMin="26" yMin="-214" xMax="285" yMax="820">
      <contour>
        <pt x="26" y="-214" on="1"/>
        <pt x="178" y="804" on="1"/>
        <pt x="285" y="820" on="1"/>
        <pt x="133" y="-200" on="1"/>
      </contour>
    </TTGlyph>
    <TTGlyph name="bar.tab" xMin="19" yMin="-135" xMax="281" yMax="905">
      <contour>
        <pt x="19" y="-135" on="1"/>
        <pt x="172" y="889" on="1"/>
        <pt x="281" y="905" on="1"/>
        <pt x="127" y="-121" on="1"/>
      </contour>
    </TTGlyph>
    <TTGlyph name="braceleft" xMin="55" yMin="-109" xMax="529" yMax="780">
      <contour>
        <pt x="516" y="692" on="1"/>
        <pt x="428" y="692" on="1"/>
        <pt x="382" y="692" on="0"/>
        <pt x="344" y="641" on="0"/>
        <pt x="343" y="593" on="1"/>
        <pt x="343" y="518" on="1"/>
        <pt x="343" y="364" on="0"/>
        <pt x="201" y="337" on="1"/>
        <pt x="201" y="335" on="1"/>
        <pt x="251" y="322" on="0"/>
        <pt x="299" y="273" on="0"/>
        <pt x="298" y="226" on="1"/>
        <pt x="298" y="203" on="0"/>
        <pt x="286" y="149" on="0"/>
        <pt x="271" y="96" on="0"/>
        <pt x="259" y="48" on="0"/>
        <pt x="259" y="31" on="1"/>
        <pt x="257" y="-20" on="0"/>
        <pt x="326" y="-20" on="1"/>
        <pt x="402" y="-20" on="1"/>
        <pt x="402" y="-109" on="1"/>
        <pt x="278" y="-109" on="1"/>
        <pt x="133" y="-109" on="0"/>
        <pt x="133" y="6" on="1"/>
        <pt x="133" y="31" on="0"/>
        <pt x="146" y="86" on="0"/>
        <pt x="162" y="141" on="0"/>
        <pt x="175" y="193" on="0"/>
        <pt x="175" y="215" on="1"/>
        <pt x="175" y="292" on="0"/>
        <pt x="80" y="292" on="1"/>
        <pt x="55" y="292" on="1"/>
        <pt x="55" y="381" on="1"/>
        <pt x="96" y="381" on="1"/>
        <pt x="162" y="381" on="0"/>
        <pt x="221" y="450" on="0"/>
        <pt x="221" y="524" on="1"/>
        <pt x="221" y="596" on="1"/>
        <pt x="221" y="686" on="0"/>
        <pt x="311" y="780" on="0"/>
        <pt x="408" y="780" on="1"/>
        <pt x="529" y="780" on="1"/>
      </contour>
    </TTGlyph>
    <TTGlyph name="braceleft.flat" xMin="47" yMin="-109" xMax="529" yMax="780">
      <contour>
        <pt x="516" y="692" on="1"/>
        <pt x="428" y="692" on="1"/>
        <pt x="382" y="692" on="0"/>
        <pt x="344" y="641" on="0"/>
        <pt x="343" y="593" on="1"/>
        <pt x="343" y="518" on="1"/>
        <pt x="343" y="364" on="0"/>
        <pt x="201" y="337" on="1"/>
        <pt x="201" y="335" on="1"/>
        <pt x="251" y="322" on="0"/>
        <pt x="299" y="273" on="0"/>
        <pt x="298" y="226" on="1"/>
        <pt x="298" y="203" on="0"/>
        <pt x="286" y="149" on="0"/>
        <pt x="271" y="96" on="0"/>
        <pt x="259" y="48" on="0"/>
        <pt x="259" y="31" on="1"/>
        <pt x="257" y="-20" on="0"/>
        <pt x="326" y="-20" on="1"/>
        <pt x="409" y="-20" on="1"/>
        <pt x="396" y="-109" on="1"/>
        <pt x="278" y="-109" on="1"/>
        <pt x="133" y="-109" on="0"/>
        <pt x="133" y="6" on="1"/>
        <pt x="133" y="31" on="0"/>
        <pt x="146" y="86" on="0"/>
        <pt x="162" y="141" on="0"/>
        <pt x="175" y="193" on="0"/>
        <pt x="175" y="215" on="1"/>
        <pt x="175" y="292" on="0"/>
        <pt x="80" y="292" on="1"/>
        <pt x="47" y="292" on="1"/>
        <pt x="61" y="381" on="1"/>
        <pt x="96" y="381" on="1"/>
        <pt x="162" y="381" on="0"/>
        <pt x="221" y="450" on="0"/>
        <pt x="221" y="524" on="1"/>
        <pt x="221" y="596" on="1"/>
        <pt x="221" y="686" on="0"/>
        <pt x="311" y="780" on="0"/>
        <pt x="408" y="780" on="1"/>
        <pt x="529" y="780" on="1"/>
      </contour>
    </TTGlyph>
    <TTGlyph name="braceright" xMin="-13" yMin="-109" xMax="462" yMax="780">
      <contour>
        <pt x="0" y="-20" on="1"/>
        <pt x="89" y="-20" on="1"/>
        <pt x="135" y="-20" on="0"/>
        <pt x="173" y="30" on="0"/>
        <pt x="173" y="78" on="1"/>
        <pt x="173" y="154" on="1"/>
        <pt x="174" y="307" on="0"/>
        <pt x="316" y="336" on="1"/>
        <pt x="316" y="338" on="1"/>
        <pt x="266" y="350" on="0"/>
        <pt x="218" y="399" on="0"/>
        <pt x="219" y="446" on="1"/>
        <pt x="219" y="469" on="0"/>
        <pt x="231" y="523" on="0"/>
        <pt x="246" y="575" on="0"/>
        <pt x="258" y="623" on="0"/>
        <pt x="258" y="640" on="1"/>
        <pt x="260" y="692" on="0"/>
        <pt x="191" y="692" on="1"/>
        <pt x="115" y="692" on="1"/>
        <pt x="115" y="780" on="1"/>
        <pt x="239" y="780" on="1"/>
        <pt x="384" y="780" on="0"/>
        <pt x="384" y="666" on="1"/>
        <pt x="384" y="641" on="0"/>
        <pt x="371" y="587" on="0"/>
        <pt x="355" y="532" on="0"/>
        <pt x="342" y="479" on="0"/>
        <pt x="342" y="457" on="1"/>
        <pt x="342" y="380" on="0"/>
        <pt x="436" y="380" on="1"/>
        <pt x="462" y="380" on="1"/>
        <pt x="462" y="291" on="1"/>
        <pt x="421" y="291" on="1"/>
        <pt x="355" y="291" on="0"/>
        <pt x="296" y="221" on="0"/>
        <pt x="296" y="148" on="1"/>
        <pt x="296" y="76" on="1"/>
        <pt x="296" y="-15" on="0"/>
        <pt x="206" y="-109" on="0"/>
        <pt x="109" y="-109" on="1"/>
        <pt x="-13" y="-109" on="1"/>
      </contour>
    </TTGlyph>
    <TTGlyph name="braceright.flat" xMin="-13" yMin="-109" xMax="469" yMax="780">
      <contour>
        <pt x="0" y="-20" on="1"/>
        <pt x="89" y="-20" on="1"/>
        <pt x="135" y="-20" on="0"/>
        <pt x="173" y="30" on="0"/>
        <pt x="173" y="78" on="1"/>
        <pt x="173" y="154" on="1"/>
        <pt x="174" y="307" on="0"/>
        <pt x="316" y="336" on="1"/>
        <pt x="316" y="338" on="1"/>
        <pt x="266" y="350" on="0"/>
        <pt x="218" y="399" on="0"/>
        <pt x="219" y="446" on="1"/>
        <pt x="219" y="469" on="0"/>
        <pt x="231" y="523" on="0"/>
        <pt x="246" y="575" on="0"/>
        <pt x="258" y="623" on="0"/>
        <pt x="258" y="640" on="1"/>
        <pt x="260" y="692" on="0"/>
        <pt x="191" y="692" on="1"/>
        <pt x="108" y="692" on="1"/>
        <pt x="121" y="780" on="1"/>
        <pt x="239" y="780" on="1"/>
        <pt x="384" y="780" on="0"/>
        <pt x="384" y="666" on="1"/>
        <pt x="384" y="641" on="0"/>
        <pt x="371" y="587" on="0"/>
        <pt x="355" y="532" on="0"/>
        <pt x="342" y="479" on="0"/>
        <pt x="342" y="457" on="1"/>
        <pt x="342" y="380" on="0"/>
        <pt x="436" y="380" on="1"/>
        <pt x="469" y="380" on="1"/>
        <pt x="455" y="291" on="1"/>
        <pt x="421" y="291" on="1"/>
        <pt x="355" y="291" on="0"/>
        <pt x="296" y="221" on="0"/>
        <pt x="296" y="148" on="1"/>
        <pt x="296" y="76" on="1"/>
        <pt x="296" y="-15" on="0"/>
        <pt x="206" y="-109" on="0"/>
        <pt x="109" y="-109" on="1"/>
        <pt x="-13" y="-109" on="1"/>
      </contour>
    </TTGlyph>
    <TTGlyph name="bracketleft" xMin="34" yMin="-109" xMax="460" yMax="780">
      <contour>
        <pt x="447" y="691" on="1"/>
        <pt x="276" y="691" on="1"/>
        <pt x="169" y="-20" on="1"/>
        <pt x="332" y="-20" on="1"/>
        <pt x="332" y="-109" on="1"/>
        <pt x="34" y="-109" on="1"/>
        <pt x="167" y="780" on="1"/>
        <pt x="460" y="780" on="1"/>
      </contour>
    </TTGlyph>
    <TTGlyph name="bracketleft.flat" xMin="34" yMin="-109" xMax="460" yMax="780">
      <contour>
        <pt x="447" y="691" on="1"/>
        <pt x="276" y="691" on="1"/>
        <pt x="169" y="-20" on="1"/>
        <pt x="339" y="-20" on="1"/>
        <pt x="325" y="-109" on="1"/>
        <pt x="34" y="-109" on="1"/>
        <pt x="167" y="780" on="1"/>
        <pt x="460" y="780" on="1"/>
      </contour>
    </TTGlyph>
    <TTGlyph name="bracketright" xMin="-12" yMin="-109" xMax="414" yMax="780">
      <contour>
        <pt x="281" y="-109" on="1"/>
        <pt x="-12" y="-109" on="1"/>
        <pt x="1" y="-20" on="1"/>
        <pt x="173" y="-20" on="1"/>
        <pt x="279" y="692" on="1"/>
        <pt x="116" y="692" on="1"/>
        <pt x="116" y="780" on="1"/>
        <pt x="414" y="780" on="1"/>
      </contour>
    </TTGlyph>
    <TTGlyph name="bracketright.flat" xMin="-12" yMin="-109" xMax="414" yMax="780">
      <contour>
        <pt x="1" y="-20" on="1"/>
        <pt x="173" y="-20" on="1"/>
        <pt x="279" y="692" on="1"/>
        <pt x="110" y="692" on="1"/>
        <pt x="122" y="780" on="1"/>
        <pt x="414" y="780" on="1"/>
        <pt x="280" y="-109" on="1"/>
        <pt x="-12" y="-109" on="1"/>
      </contour>
    </TTGlyph>
    <TTGlyph name="breve" xMin="155" yMin="606" xMax="453" yMax="759">
      <contour>
        <pt x="453" y="746" on="1"/>
        <pt x="436" y="675" on="0"/>
        <pt x="352" y="606" on="0"/>
        <pt x="289" y="606" on="1"/>
        <pt x="223" y="606" on="0"/>
        <pt x="155" y="678" on="0"/>
        <pt x="157" y="745" on="1"/>
        <pt x="235" y="759" on="1"/>
        <pt x="239" y="694" on="0"/>
        <pt x="297" y="694" on="1"/>
        <pt x="353" y="694" on="0"/>
        <pt x="379" y="759" on="1"/>
      </contour>
    </TTGlyph>
    <TTGlyph name="breve.cap" xMin="146" yMin="568" xMax="426" yMax="712">
      <contour>
        <pt x="426" y="700" on="1"/>
        <pt x="410" y="634" on="0"/>
        <pt x="331" y="568" on="0"/>
        <pt x="271" y="568" on="1"/>
        <pt x="209" y="568" on="0"/>
        <pt x="146" y="636" on="0"/>
        <pt x="147" y="699" on="1"/>
        <pt x="221" y="712" on="1"/>
        <pt x="223" y="680" on="0"/>
        <pt x="252" y="652" on="0"/>
        <pt x="279" y="652" on="1"/>
        <pt x="305" y="652" on="0"/>
        <pt x="343" y="680" on="0"/>
        <pt x="355" y="712" on="1"/>
      </contour>
    </TTGlyph>
    <TTGlyph name="bullet" xMin="97" yMin="201" xMax="388" yMax="523">
      <contour>
        <pt x="366" y="221" on="1"/>
        <pt x="243" y="201" on="1"/>
        <pt x="120" y="221" on="1"/>
        <pt x="97" y="362" on="1"/>
        <pt x="120" y="503" on="1"/>
        <pt x="243" y="523" on="1"/>
        <pt x="366" y="503" on="1"/>
        <pt x="388" y="362" on="1"/>
      </contour>
    </TTGlyph>
    <TTGlyph name="c" xMin="38" yMin="-10" xMax="449" yMax="555">
      <contour>
        <pt x="416" y="405" on="1"/>
        <pt x="393" y="422" on="0"/>
        <pt x="345" y="444" on="0"/>
        <pt x="315" y="444" on="1"/>
        <pt x="283" y="444" on="0"/>
        <pt x="229" y="409" on="0"/>
        <pt x="190" y="350" on="0"/>
        <pt x="167" y="274" on="0"/>
        <pt x="167" y="233" on="1"/>
        <pt x="167" y="163" on="0"/>
        <pt x="225" y="101" on="0"/>
        <pt x="270" y="101" on="1"/>
        <pt x="299" y="101" on="0"/>
        <pt x="353" y="124" on="0"/>
        <pt x="380" y="141" on="1"/>
        <pt x="380" y="28" on="1"/>
        <pt x="354" y="11" on="0"/>
        <pt x="287" y="-10" on="0"/>
        <pt x="246" y="-10" on="1"/>
        <pt x="151" y="-10" on="0"/>
        <pt x="39" y="110" on="0"/>
        <pt x="38" y="221" on="1"/>
        <pt x="38" y="290" on="0"/>
        <pt x="79" y="411" on="0"/>
        <pt x="153" y="502" on="0"/>
        <pt x="255" y="555" on="0"/>
        <pt x="315" y="555" on="1"/>
        <pt x="357" y="555" on="0"/>
        <pt x="423" y="534" on="0"/>
        <pt x="449" y="517" on="1"/>
      </contour>
    </TTGlyph>
    <TTGlyph name="cacute" xMin="38" yMin="-10" xMax="510" yMax="774">
      <component glyphName="acute" x="88" y="1" flags="0x4"/>
      <component glyphName="c" x="0" y="0" flags="0x4"/>
    </TTGlyph>
    <TTGlyph name="caron" xMin="149" yMin="607" xMax="464" yMax="766">
      <contour>
        <pt x="231" y="766" on="1"/>
        <pt x="293" y="693" on="1"/>
        <pt x="379" y="766" on="1"/>
        <pt x="464" y="766" on="1"/>
        <pt x="339" y="607" on="1"/>
        <pt x="226" y="607" on="1"/>
        <pt x="149" y="766" on="1"/>
      </contour>
    </TTGlyph>
    <TTGlyph name="caron.alt" xMin="217" yMin="584" xMax="373" yMax="800">
      <contour>
        <pt x="364" y="800" on="1"/>
        <pt x="373" y="776" on="0"/>
        <pt x="373" y="753" on="1"/>
        <pt x="373" y="662" on="0"/>
        <pt x="279" y="584" on="1"/>
        <pt x="217" y="597" on="1"/>
        <pt x="244" y="634" on="0"/>
        <pt x="267" y="693" on="0"/>
        <pt x="267" y="720" on="1"/>
        <pt x="267" y="735" on="0"/>
        <pt x="260" y="767" on="0"/>
        <pt x="254" y="785" on="1"/>
      </contour>
    </TTGlyph>
    <TTGlyph name="caron.alt.cap" xMin="204" yMin="546" xMax="351" yMax="750">
      <contour>
        <pt x="342" y="750" on="1"/>
        <pt x="351" y="727" on="0"/>
        <pt x="351" y="706" on="1"/>
        <pt x="351" y="661" on="0"/>
        <pt x="307" y="584" on="0"/>
        <pt x="262" y="546" on="1"/>
        <pt x="204" y="559" on="1"/>
        <pt x="229" y="594" on="0"/>
        <pt x="250" y="649" on="0"/>
        <pt x="250" y="675" on="1"/>
        <pt x="250" y="689" on="0"/>
        <pt x="243" y="719" on="0"/>
        <pt x="238" y="736" on="1"/>
      </contour>
    </TTGlyph>
    <TTGlyph name="caron.cap" xMin="139" yMin="569" xMax="436" yMax="719">
      <contour>
        <pt x="217" y="719" on="1"/>
        <pt x="275" y="650" on="1"/>
        <pt x="355" y="719" on="1"/>
        <pt x="436" y="719" on="1"/>
        <pt x="318" y="569" on="1"/>
        <pt x="212" y="569" on="1"/>
        <pt x="139" y="719" on="1"/>
      </contour>
    </TTGlyph>
    <TTGlyph name="ccaron" xMin="38" yMin="-10" xMax="498" yMax="767">
      <component glyphName="caron" x="34" y="1" flags="0x4"/>
      <component glyphName="c" x="0" y="0" flags="0x4"/>
    </TTGlyph>
    <TTGlyph name="ccedilla" xMin="38" yMin="-208" xMax="449" yMax="555">
      <component glyphName="c" x="0" y="0" flags="0x204"/>
      <component glyphName="cedilla" x="8" y="-1" flags="0x4"/>
    </TTGlyph>
    <TTGlyph name="cdotaccent" xMin="38" yMin="-10" xMax="449" yMax="738">
      <component glyphName="c" x="0" y="0" flags="0x204"/>
      <component glyphName="dotaccent" x="33" y="1" flags="0x4"/>
    </TTGlyph>
    <TTGlyph name="cedilla" xMin="46" yMin="-207" xMax="280" yMax="-56">
      <contour>
        <pt x="128" y="-207" on="1"/>
        <pt x="46" y="-207" on="1"/>
        <pt x="135" y="-56" on="1"/>
        <pt x="280" y="-88" on="1"/>
      </contour>
    </TTGlyph>
    <TTGlyph name="cedilla.cap" xMin="43" yMin="-194" xMax="264" yMax="-53">
      <contour>
        <pt x="121" y="-194" on="1"/>
        <pt x="43" y="-194" on="1"/>
        <pt x="126" y="-53" on="1"/>
        <pt x="264" y="-82" on="1"/>
      </contour>
    </TTGlyph>
    <TTGlyph name="cent" xMin="55" yMin="-12" xMax="468" yMax="727">
      <contour>
        <pt x="400" y="608" on="1"/>
        <pt x="420" y="602" on="0"/>
        <pt x="454" y="585" on="0"/>
        <pt x="468" y="575" on="1"/>
        <pt x="436" y="474" on="1"/>
        <pt x="404" y="498" on="0"/>
        <pt x="367" y="511" on="1"/>
        <pt x="275" y="197" on="1"/>
        <pt x="277" y="197" on="1"/>
        <pt x="313" y="197" on="0"/>
        <pt x="376" y="219" on="0"/>
        <pt x="405" y="235" on="1"/>
        <pt x="405" y="134" on="1"/>
        <pt x="379" y="120" on="0"/>
        <pt x="307" y="97" on="0"/>
        <pt x="259" y="97" on="1"/>
        <pt x="250" y="97" on="1"/>
        <pt x="217" y="-12" on="1"/>
        <pt x="148" y="5" on="1"/>
        <pt x="180" y="111" on="1"/>
        <pt x="124" y="131" on="0"/>
        <pt x="55" y="232" on="0"/>
        <pt x="55" y="312" on="1"/>
        <pt x="55" y="375" on="0"/>
        <pt x="92" y="487" on="0"/>
        <pt x="160" y="571" on="0"/>
        <pt x="256" y="620" on="0"/>
        <pt x="316" y="620" on="1"/>
        <pt x="332" y="620" on="1"/>
        <pt x="362" y="727" on="1"/>
        <pt x="431" y="712" on="1"/>
      </contour>
      <contour>
        <pt x="173" y="320" on="1"/>
        <pt x="173" y="279" on="0"/>
        <pt x="195" y="228" on="0"/>
        <pt x="215" y="214" on="1"/>
        <pt x="306" y="519" on="1"/>
        <pt x="303" y="519" on="0"/>
        <pt x="297" y="518" on="0"/>
        <pt x="294" y="518" on="1"/>
        <pt x="266" y="513" on="0"/>
        <pt x="221" y="478" on="0"/>
        <pt x="190" y="424" on="0"/>
        <pt x="173" y="357" on="0"/>
      </contour>
    </TTGlyph>
    <TTGlyph name="cent.tab" xMin="81" yMin="-12" xMax="502" yMax="727">
      <contour>
        <pt x="428" y="608" on="1"/>
        <pt x="470" y="596" on="0"/>
        <pt x="502" y="575" on="1"/>
        <pt x="471" y="474" on="1"/>
        <pt x="454" y="487" on="0"/>
        <pt x="418" y="506" on="0"/>
        <pt x="395" y="511" on="1"/>
        <pt x="305" y="198" on="1"/>
        <pt x="307" y="198" on="1"/>
        <pt x="345" y="198" on="0"/>
        <pt x="407" y="218" on="0"/>
        <pt x="439" y="236" on="1"/>
        <pt x="440" y="135" on="1"/>
        <pt x="412" y="121" on="0"/>
        <pt x="338" y="98" on="0"/>
        <pt x="290" y="98" on="1"/>
        <pt x="281" y="98" on="1"/>
        <pt x="248" y="-12" on="1"/>
        <pt x="179" y="5" on="1"/>
        <pt x="209" y="111" on="1"/>
        <pt x="152" y="131" on="0"/>
        <pt x="81" y="231" on="0"/>
        <pt x="81" y="310" on="1"/>
        <pt x="81" y="373" on="0"/>
        <pt x="119" y="486" on="0"/>
        <pt x="188" y="570" on="0"/>
        <pt x="287" y="619" on="0"/>
        <pt x="347" y="619" on="1"/>
        <pt x="359" y="619" on="1"/>
        <pt x="389" y="727" on="1"/>
        <pt x="458" y="712" on="1"/>
      </contour>
      <contour>
        <pt x="195" y="320" on="1"/>
        <pt x="195" y="237" on="0"/>
        <pt x="244" y="211" on="1"/>
        <pt x="333" y="518" on="1"/>
        <pt x="328" y="518" on="1"/>
        <pt x="297" y="515" on="0"/>
        <pt x="248" y="482" on="0"/>
        <pt x="213" y="428" on="0"/>
        <pt x="195" y="358" on="0"/>
      </contour>
    </TTGlyph>
    <TTGlyph name="circumflex" xMin="126" yMin="607" xMax="441" yMax="767">
      <contour>
        <pt x="360" y="607" on="1"/>
        <pt x="298" y="680" on="1"/>
        <pt x="212" y="607" on="1"/>
        <pt x="126" y="607" on="1"/>
        <pt x="251" y="767" on="1"/>
        <pt x="364" y="767" on="1"/>
        <pt x="441" y="607" on="1"/>
      </contour>
    </TTGlyph>
    <TTGlyph name="circumflex.cap" xMin="118" yMin="569" xMax="415" yMax="719">
      <contour>
        <pt x="337" y="569" on="1"/>
        <pt x="279" y="637" on="1"/>
        <pt x="199" y="569" on="1"/>
        <pt x="118" y="569" on="1"/>
        <pt x="235" y="719" on="1"/>
        <pt x="342" y="719" on="1"/>
        <pt x="415" y="569" on="1"/>
      </contour>
    </TTGlyph>
    <TTGlyph name="colon" xMin="18" yMin="0" xMax="238" yMax="545">
      <contour>
        <pt x="214" y="384" on="1"/>
        <pt x="76" y="384" on="1"/>
        <pt x="99" y="545" on="1"/>
        <pt x="238" y="545" on="1"/>
      </contour>
      <contour>
        <pt x="157" y="0" on="1"/>
        <pt x="18" y="0" on="1"/>
        <pt x="43" y="161" on="1"/>
        <pt x="181" y="161" on="1"/>
      </contour>
    </TTGlyph>
    <TTGlyph name="colon.tab" xMin="25" yMin="0" xMax="242" yMax="545">
      <contour>
        <pt x="82" y="383" on="1"/>
        <pt x="106" y="545" on="1"/>
        <pt x="242" y="545" on="1"/>
        <pt x="218" y="383" on="1"/>
      </contour>
      <contour>
        <pt x="25" y="0" on="1"/>
        <pt x="49" y="162" on="1"/>
        <pt x="185" y="162" on="1"/>
        <pt x="161" y="0" on="1"/>
      </contour>
    </TTGlyph>
    <TTGlyph name="colonmonetary" xMin="52" yMin="-121" xMax="598" yMax="804">
      <contour>
        <pt x="441" y="714" on="1"/>
        <pt x="456" y="710" on="0"/>
        <pt x="484" y="700" on="0"/>
        <pt x="497" y="695" on="1"/>
        <pt x="531" y="803" on="1"/>
        <pt x="598" y="786" on="1"/>
        <pt x="391" y="109" on="1"/>
        <pt x="430" y="122" on="0"/>
        <pt x="466" y="145" on="1"/>
        <pt x="466" y="37" on="1"/>
        <pt x="443" y="25" on="0"/>
        <pt x="390" y="4" on="0"/>
        <pt x="357" y="-2" on="1"/>
        <pt x="321" y="-121" on="1"/>
        <pt x="254" y="-102" on="1"/>
        <pt x="284" y="-5" on="1"/>
        <pt x="252" y="-4" on="0"/>
        <pt x="224" y="4" on="1"/>
        <pt x="186" y="-121" on="1"/>
        <pt x="120" y="-102" on="1"/>
        <pt x="161" y="33" on="1"/>
        <pt x="111" y="65" on="0"/>
        <pt x="52" y="188" on="0"/>
        <pt x="52" y="284" on="1"/>
        <pt x="52" y="367" on="0"/>
        <pt x="93" y="521" on="0"/>
        <pt x="170" y="641" on="0"/>
        <pt x="282" y="716" on="0"/>
        <pt x="353" y="721" on="1"/>
        <pt x="358" y="722" on="0"/>
        <pt x="366" y="722" on="0"/>
        <pt x="371" y="722" on="1"/>
        <pt x="396" y="804" on="1"/>
        <pt x="462" y="785" on="1"/>
      </contour>
      <contour>
        <pt x="171" y="280" on="1"/>
        <pt x="171" y="234" on="0"/>
        <pt x="187" y="170" on="0"/>
        <pt x="202" y="149" on="1"/>
        <pt x="344" y="618" on="1"/>
        <pt x="303" y="610" on="0"/>
        <pt x="239" y="549" on="0"/>
        <pt x="194" y="457" on="0"/>
        <pt x="171" y="342" on="0"/>
      </contour>
      <contour>
        <pt x="328" y="97" on="1"/>
        <pt x="476" y="587" on="1"/>
        <pt x="447" y="608" on="0"/>
        <pt x="404" y="617" on="1"/>
        <pt x="249" y="109" on="1"/>
        <pt x="264" y="102" on="0"/>
        <pt x="297" y="97" on="0"/>
        <pt x="315" y="97" on="1"/>
      </contour>
    </TTGlyph>
    <TTGlyph name="comma" xMin="-30" yMin="-145" xMax="201" yMax="161">
      <contour>
        <pt x="42" y="-145" on="1"/>
        <pt x="-30" y="-127" on="1"/>
        <pt x="53" y="161" on="1"/>
        <pt x="201" y="161" on="1"/>
      </contour>
    </TTGlyph>
    <TTGlyph name="comma.alt" xMin="-37" yMin="-147" xMax="177" yMax="161">
      <contour>
        <pt x="174" y="161" on="1"/>
        <pt x="177" y="141" on="0"/>
        <pt x="177" y="120" on="1"/>
        <pt x="176" y="45" on="0"/>
        <pt x="104" y="-81" on="0"/>
        <pt x="33" y="-147" on="1"/>
        <pt x="-37" y="-118" on="1"/>
        <pt x="7" y="-55" on="0"/>
        <pt x="45" y="61" on="0"/>
        <pt x="45" y="115" on="1"/>
        <pt x="45" y="128" on="0"/>
        <pt x="44" y="148" on="0"/>
        <pt x="42" y="161" on="1"/>
      </contour>
    </TTGlyph>
    <TTGlyph name="comma.tab" xMin="-21" yMin="-151" xMax="207" yMax="163">
      <contour>
        <pt x="53" y="-151" on="1"/>
        <pt x="-21" y="-134" on="1"/>
        <pt x="63" y="163" on="1"/>
        <pt x="207" y="163" on="1"/>
      </contour>
    </TTGlyph>
    <TTGlyph name="comma.tab_alt" xMin="-32" yMin="-151" xMax="182" yMax="163">
      <contour>
        <pt x="179" y="163" on="1"/>
        <pt x="182" y="142" on="0"/>
        <pt x="182" y="122" on="1"/>
        <pt x="181" y="47" on="0"/>
        <pt x="108" y="-82" on="0"/>
        <pt x="33" y="-151" on="1"/>
        <pt x="-32" y="-122" on="1"/>
        <pt x="14" y="-57" on="0"/>
        <pt x="53" y="57" on="0"/>
        <pt x="53" y="115" on="1"/>
        <pt x="53" y="129" on="0"/>
        <pt x="51" y="149" on="0"/>
        <pt x="49" y="163" on="1"/>
      </contour>
    </TTGlyph>
    <TTGlyph name="commaaccent" xMin="97" yMin="-270" xMax="278" yMax="-56">
      <contour>
        <pt x="249" y="-56" on="1"/>
        <pt x="263" y="-74" on="0"/>
        <pt x="278" y="-108" on="0"/>
        <pt x="278" y="-126" on="1"/>
        <pt x="278" y="-161" on="0"/>
        <pt x="231" y="-229" on="0"/>
        <pt x="174" y="-270" on="1"/>
        <pt x="97" y="-253" on="1"/>
        <pt x="130" y="-218" on="0"/>
        <pt x="158" y="-167" on="0"/>
        <pt x="158" y="-144" on="1"/>
        <pt x="158" y="-129" on="0"/>
        <pt x="145" y="-100" on="0"/>
        <pt x="132" y="-82" on="1"/>
      </contour>
    </TTGlyph>
    <TTGlyph name="commaaccent.cap" xMin="90" yMin="-253" xMax="262" yMax="-53">
      <contour>
        <pt x="235" y="-53" on="1"/>
        <pt x="248" y="-70" on="0"/>
        <pt x="262" y="-101" on="0"/>
        <pt x="262" y="-118" on="1"/>
        <pt x="262" y="-151" on="0"/>
        <pt x="218" y="-215" on="0"/>
        <pt x="164" y="-253" on="1"/>
        <pt x="90" y="-238" on="1"/>
        <pt x="122" y="-205" on="0"/>
        <pt x="148" y="-157" on="0"/>
        <pt x="148" y="-135" on="1"/>
        <pt x="148" y="-121" on="0"/>
        <pt x="136" y="-94" on="0"/>
        <pt x="124" y="-77" on="1"/>
      </contour>
    </TTGlyph>
    <TTGlyph name="commaaccent.rot" xMin="276" yMin="603" xMax="457" yMax="816">
      <contour>
        <pt x="305" y="603" on="1"/>
        <pt x="291" y="621" on="0"/>
        <pt x="276" y="655" on="0"/>
        <pt x="276" y="674" on="1"/>
        <pt x="276" y="708" on="0"/>
        <pt x="323" y="776" on="0"/>
        <pt x="380" y="816" on="1"/>
        <pt x="457" y="801" on="1"/>
        <pt x="423" y="766" on="0"/>
        <pt x="396" y="714" on="0"/>
        <pt x="396" y="691" on="1"/>
        <pt x="396" y="676" on="0"/>
        <pt x="408" y="647" on="0"/>
        <pt x="421" y="629" on="1"/>
      </contour>
    </TTGlyph>
    <TTGlyph name="copyright" xMin="75" yMin="-19" xMax="730" yMax="743">
      <contour>
        <pt x="730" y="363" on="1"/>
        <pt x="730" y="278" on="0"/>
        <pt x="682" y="138" on="0"/>
        <pt x="595" y="37" on="0"/>
        <pt x="475" y="-19" on="0"/>
        <pt x="402" y="-19" on="1"/>
        <pt x="328" y="-19" on="0"/>
        <pt x="208" y="36" on="0"/>
        <pt x="122" y="136" on="0"/>
        <pt x="75" y="276" on="0"/>
        <pt x="75" y="361" on="1"/>
        <pt x="75" y="446" on="0"/>
        <pt x="123" y="587" on="0"/>
        <pt x="209" y="688" on="0"/>
        <pt x="330" y="743" on="0"/>
        <pt x="403" y="743" on="1"/>
        <pt x="476" y="743" on="0"/>
        <pt x="597" y="688" on="0"/>
        <pt x="683" y="588" on="0"/>
        <pt x="730" y="448" on="0"/>
      </contour>
      <contour>
        <pt x="684" y="362" on="1"/>
        <pt x="684" y="444" on="0"/>
        <pt x="640" y="572" on="0"/>
        <pt x="564" y="660" on="0"/>
        <pt x="462" y="706" on="0"/>
        <pt x="403" y="706" on="1"/>
        <pt x="343" y="706" on="0"/>
        <pt x="240" y="660" on="0"/>
        <pt x="164" y="572" on="0"/>
        <pt x="121" y="444" on="0"/>
        <pt x="121" y="362" on="1"/>
        <pt x="121" y="281" on="0"/>
        <pt x="165" y="153" on="0"/>
        <pt x="241" y="66" on="0"/>
        <pt x="344" y="20" on="0"/>
        <pt x="403" y="20" on="1"/>
        <pt x="462" y="20" on="0"/>
        <pt x="565" y="66" on="0"/>
        <pt x="641" y="153" on="0"/>
        <pt x="684" y="281" on="0"/>
      </contour>
      <contour>
        <pt x="533" y="183" on="1"/>
        <pt x="507" y="166" on="0"/>
        <pt x="450" y="148" on="0"/>
        <pt x="416" y="148" on="1"/>
        <pt x="332" y="148" on="0"/>
        <pt x="236" y="263" on="0"/>
        <pt x="236" y="365" on="1"/>
        <pt x="236" y="415" on="0"/>
        <pt x="262" y="495" on="0"/>
        <pt x="310" y="552" on="0"/>
        <pt x="377" y="583" on="0"/>
        <pt x="419" y="583" on="1"/>
        <pt x="451" y="583" on="0"/>
        <pt x="502" y="569" on="0"/>
        <pt x="526" y="555" on="1"/>
        <pt x="513" y="470" on="1"/>
        <pt x="489" y="487" on="0"/>
        <pt x="448" y="501" on="0"/>
        <pt x="425" y="501" on="1"/>
        <pt x="380" y="501" on="0"/>
        <pt x="330" y="428" on="0"/>
        <pt x="330" y="366" on="1"/>
        <pt x="330" y="303" on="0"/>
        <pt x="382" y="230" on="0"/>
        <pt x="427" y="230" on="1"/>
        <pt x="450" y="230" on="0"/>
        <pt x="493" y="247" on="0"/>
        <pt x="521" y="264" on="1"/>
      </contour>
    </TTGlyph>
    <TTGlyph name="d" xMin="36" yMin="-11" xMax="556" yMax="809">
      <contour>
        <pt x="456" y="134" on="1"/>
        <pt x="456" y="0" on="1"/>
        <pt x="338" y="0" on="1"/>
        <pt x="332" y="80" on="1"/>
        <pt x="298" y="41" on="0"/>
        <pt x="224" y="-11" on="0"/>
        <pt x="180" y="-11" on="1"/>
        <pt x="117" y="-11" on="0"/>
        <pt x="36" y="89" on="0"/>
        <pt x="36" y="183" on="1"/>
        <pt x="36" y="268" on="0"/>
        <pt x="82" y="405" on="0"/>
        <pt x="160" y="500" on="0"/>
        <pt x="264" y="551" on="0"/>
        <pt x="321" y="551" on="1"/>
        <pt x="341" y="551" on="0"/>
        <pt x="374" y="546" on="0"/>
        <pt x="390" y="541" on="1"/>
        <pt x="426" y="788" on="1"/>
        <pt x="556" y="809" on="1"/>
      </contour>
      <contour>
        <pt x="374" y="435" on="1"/>
        <pt x="360" y="442" on="0"/>
        <pt x="335" y="447" on="0"/>
        <pt x="318" y="447" on="1"/>
        <pt x="289" y="447" on="0"/>
        <pt x="233" y="412" on="0"/>
        <pt x="190" y="348" on="0"/>
        <pt x="164" y="257" on="0"/>
        <pt x="164" y="201" on="1"/>
        <pt x="164" y="155" on="0"/>
        <pt x="194" y="103" on="0"/>
        <pt x="224" y="103" on="1"/>
        <pt x="251" y="103" on="0"/>
        <pt x="303" y="141" on="0"/>
        <pt x="335" y="175" on="1"/>
      </contour>
    </TTGlyph>
    <TTGlyph name="dagger" xMin="82" yMin="-107" xMax="495" yMax="725">
      <contour>
        <pt x="310" y="516" on="1"/>
        <pt x="279" y="516" on="1"/>
        <pt x="267" y="649" on="1"/>
        <pt x="278" y="725" on="1"/>
        <pt x="374" y="725" on="1"/>
        <pt x="362" y="649" on="1"/>
      </contour>
      <contour>
        <pt x="443" y="431" on="1"/>
        <pt x="324" y="462" on="1"/>
        <pt x="329" y="493" on="1"/>
        <pt x="457" y="525" on="1"/>
        <pt x="495" y="525" on="1"/>
        <pt x="481" y="431" on="1"/>
      </contour>
      <contour>
        <pt x="121" y="431" on="1"/>
        <pt x="82" y="431" on="1"/>
        <pt x="96" y="525" on="1"/>
        <pt x="134" y="525" on="1"/>
        <pt x="253" y="493" on="1"/>
        <pt x="248" y="462" on="1"/>
      </contour>
      <contour>
        <pt x="216" y="-107" on="1"/>
        <pt x="187" y="-107" on="1"/>
        <pt x="177" y="27" on="1"/>
        <pt x="220" y="313" on="1"/>
        <pt x="267" y="440" on="1"/>
        <pt x="299" y="440" on="1"/>
        <pt x="309" y="313" on="1"/>
        <pt x="266" y="27" on="1"/>
      </contour>
    </TTGlyph>
    <TTGlyph name="daggerdbl" xMin="27" yMin="-176" xMax="500" yMax="725">
      <contour>
        <pt x="315" y="516" on="1"/>
        <pt x="284" y="516" on="1"/>
        <pt x="271" y="649" on="1"/>
        <pt x="283" y="725" on="1"/>
        <pt x="379" y="725" on="1"/>
        <pt x="367" y="649" on="1"/>
      </contour>
      <contour>
        <pt x="448" y="431" on="1"/>
        <pt x="329" y="462" on="1"/>
        <pt x="334" y="493" on="1"/>
        <pt x="461" y="525" on="1"/>
        <pt x="500" y="525" on="1"/>
        <pt x="486" y="431" on="1"/>
      </contour>
      <contour>
        <pt x="125" y="431" on="1"/>
        <pt x="86" y="431" on="1"/>
        <pt x="100" y="525" on="1"/>
        <pt x="139" y="525" on="1"/>
        <pt x="258" y="493" on="1"/>
        <pt x="253" y="462" on="1"/>
      </contour>
      <contour>
        <pt x="255" y="111" on="1"/>
        <pt x="223" y="111" on="1"/>
        <pt x="213" y="237" on="1"/>
        <pt x="224" y="313" on="1"/>
        <pt x="272" y="440" on="1"/>
        <pt x="304" y="440" on="1"/>
        <pt x="313" y="313" on="1"/>
        <pt x="302" y="237" on="1"/>
      </contour>
      <contour>
        <pt x="387" y="25" on="1"/>
        <pt x="269" y="57" on="1"/>
        <pt x="273" y="88" on="1"/>
        <pt x="401" y="119" on="1"/>
        <pt x="440" y="119" on="1"/>
        <pt x="426" y="25" on="1"/>
      </contour>
      <contour>
        <pt x="65" y="25" on="1"/>
        <pt x="27" y="25" on="1"/>
        <pt x="41" y="119" on="1"/>
        <pt x="79" y="119" on="1"/>
        <pt x="197" y="88" on="1"/>
        <pt x="193" y="57" on="1"/>
      </contour>
      <contour>
        <pt x="148" y="-176" on="1"/>
        <pt x="160" y="-99" on="1"/>
        <pt x="211" y="34" on="1"/>
        <pt x="243" y="34" on="1"/>
        <pt x="255" y="-99" on="1"/>
        <pt x="244" y="-176" on="1"/>
      </contour>
    </TTGlyph>
    <TTGlyph name="dcaron" xMin="36" yMin="-11" xMax="712" yMax="809">
      <component glyphName="caron.alt" x="339" y="9" flags="0x4"/>
      <component glyphName="d" x="0" y="0" flags="0x4"/>
    </TTGlyph>
    <TTGlyph name="dcroat" xMin="36" yMin="-11" xMax="615" yMax="809">
      <contour>
        <pt x="542" y="717" on="1"/>
        <pt x="615" y="717" on="1"/>
        <pt x="601" y="627" on="1"/>
        <pt x="529" y="627" on="1"/>
        <pt x="456" y="134" on="1"/>
        <pt x="456" y="0" on="1"/>
        <pt x="338" y="0" on="1"/>
        <pt x="332" y="80" on="1"/>
        <pt x="298" y="41" on="0"/>
        <pt x="224" y="-11" on="0"/>
        <pt x="180" y="-11" on="1"/>
        <pt x="117" y="-11" on="0"/>
        <pt x="36" y="89" on="0"/>
        <pt x="36" y="183" on="1"/>
        <pt x="36" y="268" on="0"/>
        <pt x="82" y="405" on="0"/>
        <pt x="160" y="500" on="0"/>
        <pt x="264" y="551" on="0"/>
        <pt x="321" y="551" on="1"/>
        <pt x="341" y="551" on="0"/>
        <pt x="374" y="546" on="0"/>
        <pt x="390" y="541" on="1"/>
        <pt x="403" y="627" on="1"/>
        <pt x="294" y="627" on="1"/>
        <pt x="294" y="717" on="1"/>
        <pt x="416" y="717" on="1"/>
        <pt x="426" y="788" on="1"/>
        <pt x="556" y="809" on="1"/>
      </contour>
      <contour>
        <pt x="374" y="435" on="1"/>
        <pt x="360" y="442" on="0"/>
        <pt x="335" y="447" on="0"/>
        <pt x="318" y="447" on="1"/>
        <pt x="289" y="447" on="0"/>
        <pt x="233" y="412" on="0"/>
        <pt x="190" y="348" on="0"/>
        <pt x="164" y="257" on="0"/>
        <pt x="164" y="201" on="1"/>
        <pt x="164" y="155" on="0"/>
        <pt x="194" y="103" on="0"/>
        <pt x="224" y="103" on="1"/>
        <pt x="251" y="103" on="0"/>
        <pt x="303" y="141" on="0"/>
        <pt x="335" y="175" on="1"/>
      </contour>
    </TTGlyph>
    <TTGlyph name="dcroat.flat" xMin="36" yMin="-11" xMax="615" yMax="809">
      <contour>
        <pt x="542" y="717" on="1"/>
        <pt x="615" y="717" on="1"/>
        <pt x="601" y="627" on="1"/>
        <pt x="529" y="627" on="1"/>
        <pt x="456" y="134" on="1"/>
        <pt x="456" y="0" on="1"/>
        <pt x="338" y="0" on="1"/>
        <pt x="332" y="80" on="1"/>
        <pt x="298" y="41" on="0"/>
        <pt x="224" y="-11" on="0"/>
        <pt x="180" y="-11" on="1"/>
        <pt x="117" y="-11" on="0"/>
        <pt x="36" y="89" on="0"/>
        <pt x="36" y="183" on="1"/>
        <pt x="36" y="268" on="0"/>
        <pt x="82" y="405" on="0"/>
        <pt x="160" y="500" on="0"/>
        <pt x="264" y="551" on="0"/>
        <pt x="321" y="551" on="1"/>
        <pt x="341" y="551" on="0"/>
        <pt x="374" y="546" on="0"/>
        <pt x="390" y="541" on="1"/>
        <pt x="403" y="627" on="1"/>
        <pt x="286" y="627" on="1"/>
        <pt x="301" y="717" on="1"/>
        <pt x="416" y="717" on="1"/>
        <pt x="426" y="788" on="1"/>
        <pt x="556" y="809" on="1"/>
      </contour>
      <contour>
        <pt x="374" y="435" on="1"/>
        <pt x="360" y="442" on="0"/>
        <pt x="335" y="447" on="0"/>
        <pt x="318" y="447" on="1"/>
        <pt x="289" y="447" on="0"/>
        <pt x="233" y="412" on="0"/>
        <pt x="190" y="348" on="0"/>
        <pt x="164" y="257" on="0"/>
        <pt x="164" y="201" on="1"/>
        <pt x="164" y="155" on="0"/>
        <pt x="194" y="103" on="0"/>
        <pt x="224" y="103" on="1"/>
        <pt x="251" y="103" on="0"/>
        <pt x="303" y="141" on="0"/>
        <pt x="335" y="175" on="1"/>
      </contour>
    </TTGlyph>
    <TTGlyph name="degree" xMin="94" yMin="395" xMax="424" yMax="725">
      <contour>
        <pt x="424" y="559" on="1"/>
        <pt x="424" y="523" on="0"/>
        <pt x="399" y="463" on="0"/>
        <pt x="356" y="420" on="0"/>
        <pt x="295" y="395" on="0"/>
        <pt x="259" y="395" on="1"/>
        <pt x="223" y="395" on="0"/>
        <pt x="163" y="420" on="0"/>
        <pt x="119" y="463" on="0"/>
        <pt x="94" y="523" on="0"/>
        <pt x="94" y="559" on="1"/>
        <pt x="94" y="595" on="0"/>
        <pt x="119" y="655" on="0"/>
        <pt x="162" y="700" on="0"/>
        <pt x="223" y="725" on="0"/>
        <pt x="259" y="725" on="1"/>
        <pt x="295" y="725" on="0"/>
        <pt x="356" y="700" on="0"/>
        <pt x="399" y="655" on="0"/>
        <pt x="424" y="595" on="0"/>
      </contour>
      <contour>
        <pt x="345" y="559" on="1"/>
        <pt x="345" y="597" on="0"/>
        <pt x="297" y="650" on="0"/>
        <pt x="259" y="650" on="1"/>
        <pt x="221" y="650" on="0"/>
        <pt x="174" y="597" on="0"/>
        <pt x="174" y="559" on="1"/>
        <pt x="174" y="520" on="0"/>
        <pt x="221" y="469" on="0"/>
        <pt x="259" y="469" on="1"/>
        <pt x="297" y="469" on="0"/>
        <pt x="345" y="520" on="0"/>
      </contour>
    </TTGlyph>
    <TTGlyph name="degree.tab" xMin="117" yMin="359" xMax="486" yMax="727">
      <contour>
        <pt x="302" y="359" on="1"/>
        <pt x="262" y="359" on="0"/>
        <pt x="194" y="386" on="0"/>
        <pt x="145" y="435" on="0"/>
        <pt x="117" y="502" on="0"/>
        <pt x="117" y="542" on="1"/>
        <pt x="117" y="582" on="0"/>
        <pt x="145" y="650" on="0"/>
        <pt x="194" y="699" on="0"/>
        <pt x="262" y="727" on="0"/>
        <pt x="302" y="727" on="1"/>
        <pt x="342" y="727" on="0"/>
        <pt x="410" y="699" on="0"/>
        <pt x="459" y="650" on="0"/>
        <pt x="486" y="582" on="0"/>
        <pt x="486" y="542" on="1"/>
        <pt x="486" y="502" on="0"/>
        <pt x="459" y="435" on="0"/>
        <pt x="410" y="386" on="0"/>
        <pt x="342" y="359" on="0"/>
      </contour>
      <contour>
        <pt x="302" y="652" on="1"/>
        <pt x="256" y="652" on="0"/>
        <pt x="198" y="589" on="0"/>
        <pt x="198" y="542" on="1"/>
        <pt x="198" y="494" on="0"/>
        <pt x="256" y="434" on="0"/>
        <pt x="302" y="434" on="1"/>
        <pt x="348" y="434" on="0"/>
        <pt x="407" y="494" on="0"/>
        <pt x="407" y="542" on="1"/>
        <pt x="407" y="589" on="0"/>
        <pt x="348" y="652" on="0"/>
      </contour>
    </TTGlyph>
    <TTGlyph name="dieresis" xMin="132" yMin="610" xMax="455" yMax="737">
      <contour>
        <pt x="319" y="610" on="1"/>
        <pt x="338" y="737" on="1"/>
        <pt x="455" y="737" on="1"/>
        <pt x="436" y="610" on="1"/>
      </contour>
      <contour>
        <pt x="132" y="610" on="1"/>
        <pt x="151" y="737" on="1"/>
        <pt x="267" y="737" on="1"/>
        <pt x="248" y="610" on="1"/>
      </contour>
    </TTGlyph>
    <TTGlyph name="dieresis.cap" xMin="123" yMin="572" xMax="428" yMax="692">
      <contour>
        <pt x="299" y="572" on="1"/>
        <pt x="317" y="692" on="1"/>
        <pt x="428" y="692" on="1"/>
        <pt x="410" y="572" on="1"/>
      </contour>
      <contour>
        <pt x="123" y="572" on="1"/>
        <pt x="141" y="692" on="1"/>
        <pt x="251" y="692" on="1"/>
        <pt x="233" y="572" on="1"/>
      </contour>
    </TTGlyph>
    <TTGlyph name="divide" xMin="64" yMin="118" xMax="509" yMax="600">
      <contour>
        <pt x="248" y="482" on="1"/>
        <pt x="266" y="600" on="1"/>
        <pt x="380" y="600" on="1"/>
        <pt x="362" y="482" on="1"/>
      </contour>
      <contour>
        <pt x="64" y="310" on="1"/>
        <pt x="79" y="407" on="1"/>
        <pt x="509" y="407" on="1"/>
        <pt x="494" y="310" on="1"/>
      </contour>
      <contour>
        <pt x="194" y="118" on="1"/>
        <pt x="212" y="236" on="1"/>
        <pt x="325" y="236" on="1"/>
        <pt x="307" y="118" on="1"/>
      </contour>
    </TTGlyph>
    <TTGlyph name="divide.tab" xMin="53" yMin="114" xMax="507" yMax="606">
      <contour>
        <pt x="242" y="488" on="1"/>
        <pt x="260" y="606" on="1"/>
        <pt x="375" y="606" on="1"/>
        <pt x="357" y="488" on="1"/>
      </contour>
      <contour>
        <pt x="53" y="311" on="1"/>
        <pt x="67" y="408" on="1"/>
        <pt x="507" y="408" on="1"/>
        <pt x="492" y="311" on="1"/>
      </contour>
      <contour>
        <pt x="185" y="114" on="1"/>
        <pt x="203" y="231" on="1"/>
        <pt x="318" y="231" on="1"/>
        <pt x="300" y="114" on="1"/>
      </contour>
    </TTGlyph>
    <TTGlyph name="dollar" xMin="8" yMin="-129" xMax="528" yMax="803">
      <contour>
        <pt x="426" y="708" on="1"/>
        <pt x="456" y="700" on="0"/>
        <pt x="508" y="678" on="0"/>
        <pt x="528" y="666" on="1"/>
        <pt x="495" y="558" on="1"/>
        <pt x="448" y="591" on="0"/>
        <pt x="391" y="608" on="1"/>
        <pt x="333" y="412" on="1"/>
        <pt x="410" y="367" on="0"/>
        <pt x="480" y="274" on="0"/>
        <pt x="480" y="210" on="1"/>
        <pt x="480" y="160" on="0"/>
        <pt x="445" y="81" on="0"/>
        <pt x="383" y="25" on="0"/>
        <pt x="297" y="-5" on="0"/>
        <pt x="246" y="-5" on="1"/>
        <pt x="238" y="-5" on="0"/>
        <pt x="222" y="-5" on="0"/>
        <pt x="214" y="-4" on="1"/>
        <pt x="176" y="-129" on="1"/>
        <pt x="108" y="-114" on="1"/>
        <pt x="145" y="8" on="1"/>
        <pt x="103" y="19" on="0"/>
        <pt x="34" y="51" on="0"/>
        <pt x="8" y="68" on="1"/>
        <pt x="43" y="176" on="1"/>
        <pt x="73" y="155" on="0"/>
        <pt x="143" y="120" on="0"/>
        <pt x="180" y="109" on="1"/>
        <pt x="244" y="326" on="1"/>
        <pt x="175" y="367" on="0"/>
        <pt x="100" y="455" on="0"/>
        <pt x="100" y="521" on="1"/>
        <pt x="100" y="565" on="0"/>
        <pt x="131" y="639" on="0"/>
        <pt x="189" y="692" on="0"/>
        <pt x="271" y="722" on="0"/>
        <pt x="323" y="722" on="1"/>
        <pt x="332" y="722" on="0"/>
        <pt x="349" y="721" on="0"/>
        <pt x="358" y="720" on="1"/>
        <pt x="382" y="803" on="1"/>
        <pt x="450" y="786" on="1"/>
      </contour>
      <contour>
        <pt x="366" y="197" on="1"/>
        <pt x="366" y="226" on="0"/>
        <pt x="336" y="268" on="0"/>
        <pt x="298" y="294" on="1"/>
        <pt x="241" y="99" on="1"/>
        <pt x="252" y="99" on="1"/>
        <pt x="303" y="99" on="0"/>
        <pt x="366" y="153" on="0"/>
      </contour>
      <contour>
        <pt x="214" y="535" on="1"/>
        <pt x="214" y="510" on="0"/>
        <pt x="242" y="471" on="0"/>
        <pt x="280" y="445" on="1"/>
        <pt x="331" y="619" on="1"/>
        <pt x="326" y="620" on="0"/>
        <pt x="316" y="620" on="1"/>
        <pt x="267" y="620" on="0"/>
        <pt x="214" y="571" on="0"/>
      </contour>
    </TTGlyph>
    <TTGlyph name="dollar.tab" xMin="5" yMin="-128" xMax="526" yMax="802">
      <contour>
        <pt x="428" y="708" on="1"/>
        <pt x="457" y="700" on="0"/>
        <pt x="506" y="678" on="0"/>
        <pt x="526" y="666" on="1"/>
        <pt x="493" y="561" on="1"/>
        <pt x="473" y="575" on="0"/>
        <pt x="422" y="602" on="0"/>
        <pt x="393" y="611" on="1"/>
        <pt x="333" y="409" on="1"/>
        <pt x="411" y="362" on="0"/>
        <pt x="477" y="272" on="0"/>
        <pt x="477" y="210" on="1"/>
        <pt x="477" y="162" on="0"/>
        <pt x="442" y="82" on="0"/>
        <pt x="379" y="25" on="0"/>
        <pt x="292" y="-6" on="0"/>
        <pt x="240" y="-6" on="1"/>
        <pt x="232" y="-6" on="0"/>
        <pt x="218" y="-6" on="0"/>
        <pt x="211" y="-5" on="1"/>
        <pt x="173" y="-128" on="1"/>
        <pt x="104" y="-112" on="1"/>
        <pt x="140" y="8" on="1"/>
        <pt x="99" y="19" on="0"/>
        <pt x="31" y="52" on="0"/>
        <pt x="5" y="69" on="1"/>
        <pt x="38" y="173" on="1"/>
        <pt x="67" y="152" on="0"/>
        <pt x="136" y="115" on="0"/>
        <pt x="174" y="104" on="1"/>
        <pt x="242" y="331" on="1"/>
        <pt x="208" y="351" on="0"/>
        <pt x="155" y="391" on="0"/>
        <pt x="118" y="436" on="0"/>
        <pt x="99" y="489" on="0"/>
        <pt x="99" y="523" on="1"/>
        <pt x="99" y="565" on="0"/>
        <pt x="128" y="638" on="0"/>
        <pt x="185" y="691" on="0"/>
        <pt x="269" y="722" on="0"/>
        <pt x="323" y="722" on="1"/>
        <pt x="332" y="722" on="0"/>
        <pt x="350" y="721" on="0"/>
        <pt x="358" y="721" on="1"/>
        <pt x="383" y="802" on="1"/>
        <pt x="452" y="785" on="1"/>
      </contour>
      <contour>
        <pt x="366" y="197" on="1"/>
        <pt x="366" y="226" on="0"/>
        <pt x="337" y="271" on="0"/>
        <pt x="297" y="297" on="1"/>
        <pt x="237" y="94" on="1"/>
        <pt x="245" y="94" on="1"/>
        <pt x="298" y="94" on="0"/>
        <pt x="366" y="150" on="0"/>
      </contour>
      <contour>
        <pt x="210" y="536" on="1"/>
        <pt x="210" y="509" on="0"/>
        <pt x="240" y="468" on="0"/>
        <pt x="279" y="442" on="1"/>
        <pt x="332" y="623" on="1"/>
        <pt x="327" y="624" on="0"/>
        <pt x="317" y="624" on="1"/>
        <pt x="265" y="624" on="0"/>
        <pt x="210" y="574" on="0"/>
      </contour>
    </TTGlyph>
    <TTGlyph name="dotaccent" xMin="223" yMin="610" xMax="363" yMax="737">
      <contour>
        <pt x="223" y="610" on="1"/>
        <pt x="242" y="737" on="1"/>
        <pt x="363" y="737" on="1"/>
        <pt x="344" y="610" on="1"/>
      </contour>
    </TTGlyph>
    <TTGlyph name="dotaccent.cap" xMin="209" yMin="572" xMax="341" yMax="692">
      <contour>
        <pt x="209" y="572" on="1"/>
        <pt x="227" y="692" on="1"/>
        <pt x="341" y="692" on="1"/>
        <pt x="323" y="572" on="1"/>
      </contour>
    </TTGlyph>
    <TTGlyph name="dotlessi" xMin="28" yMin="0" xMax="237" yMax="545">
      <contour>
        <pt x="156" y="0" on="1"/>
        <pt x="28" y="0" on="1"/>
        <pt x="109" y="545" on="1"/>
        <pt x="237" y="545" on="1"/>
      </contour>
    </TTGlyph>
    <TTGlyph name="e" xMin="37" yMin="-11" xMax="466" yMax="556">
      <contour>
        <pt x="265" y="91" on="1"/>
        <pt x="305" y="91" on="0"/>
        <pt x="381" y="121" on="0"/>
        <pt x="419" y="147" on="1"/>
        <pt x="419" y="41" on="1"/>
        <pt x="378" y="17" on="0"/>
        <pt x="295" y="-11" on="0"/>
        <pt x="244" y="-11" on="1"/>
        <pt x="147" y="-11" on="0"/>
        <pt x="37" y="111" on="0"/>
        <pt x="37" y="217" on="1"/>
        <pt x="37" y="286" on="0"/>
        <pt x="75" y="409" on="0"/>
        <pt x="144" y="502" on="0"/>
        <pt x="238" y="556" on="0"/>
        <pt x="295" y="556" on="1"/>
        <pt x="338" y="556" on="0"/>
        <pt x="402" y="526" on="0"/>
        <pt x="445" y="472" on="0"/>
        <pt x="466" y="399" on="0"/>
        <pt x="466" y="356" on="1"/>
        <pt x="466" y="327" on="0"/>
        <pt x="460" y="269" on="0"/>
        <pt x="454" y="243" on="1"/>
        <pt x="162" y="243" on="1"/>
        <pt x="161" y="238" on="0"/>
        <pt x="161" y="227" on="0"/>
        <pt x="161" y="221" on="1"/>
        <pt x="161" y="156" on="0"/>
        <pt x="215" y="91" on="0"/>
      </contour>
      <contour>
        <pt x="285" y="463" on="1"/>
        <pt x="248" y="463" on="0"/>
        <pt x="190" y="387" on="0"/>
        <pt x="174" y="328" on="1"/>
        <pt x="346" y="328" on="1"/>
        <pt x="347" y="338" on="0"/>
        <pt x="348" y="356" on="0"/>
        <pt x="348" y="365" on="1"/>
        <pt x="348" y="410" on="0"/>
        <pt x="319" y="463" on="0"/>
      </contour>
    </TTGlyph>
    <TTGlyph name="eacute" xMin="37" yMin="-11" xMax="501" yMax="774">
      <component glyphName="acute" x="79" y="1" flags="0x4"/>
      <component glyphName="e" x="0" y="0" flags="0x4"/>
    </TTGlyph>
    <TTGlyph name="ebreve" xMin="37" yMin="-11" xMax="475" yMax="760">
      <component glyphName="e" x="0" y="0" flags="0x204"/>
      <component glyphName="breve" x="22" y="1" flags="0x4"/>
    </TTGlyph>
    <TTGlyph name="ecaron" xMin="37" yMin="-11" xMax="488" yMax="767">
      <component glyphName="caron" x="24" y="1" flags="0x4"/>
      <component glyphName="e" x="0" y="0" flags="0x4"/>
    </TTGlyph>
    <TTGlyph name="ecircumflex" xMin="37" yMin="-11" xMax="466" yMax="768">
      <component glyphName="circumflex" x="22" y="1" flags="0x4"/>
      <component glyphName="e" x="0" y="0" flags="0x4"/>
    </TTGlyph>
    <TTGlyph name="edieresis" xMin="37" yMin="-11" xMax="479" yMax="738">
      <component glyphName="dieresis" x="24" y="1" flags="0x4"/>
      <component glyphName="e" x="0" y="0" flags="0x4"/>
    </TTGlyph>
    <TTGlyph name="edotaccent" xMin="37" yMin="-11" xMax="466" yMax="738">
      <component glyphName="e" x="0" y="0" flags="0x204"/>
      <component glyphName="dotaccent" x="25" y="1" flags="0x4"/>
    </TTGlyph>
    <TTGlyph name="egrave" xMin="37" yMin="-11" xMax="466" yMax="774">
      <component glyphName="e" x="0" y="0" flags="0x204"/>
      <component glyphName="grave" x="-40" y="1" flags="0x4"/>
    </TTGlyph>
    <TTGlyph name="eight" xMin="35" yMin="-12" xMax="542" yMax="731">
      <contour>
        <pt x="35" y="172" on="1"/>
        <pt x="35" y="242" on="0"/>
        <pt x="115" y="346" on="0"/>
        <pt x="190" y="385" on="1"/>
        <pt x="151" y="415" on="0"/>
        <pt x="108" y="490" on="0"/>
        <pt x="108" y="535" on="1"/>
        <pt x="108" y="577" on="0"/>
        <pt x="140" y="648" on="0"/>
        <pt x="199" y="701" on="0"/>
        <pt x="283" y="731" on="0"/>
        <pt x="334" y="731" on="1"/>
        <pt x="382" y="731" on="0"/>
        <pt x="459" y="705" on="0"/>
        <pt x="513" y="660" on="0"/>
        <pt x="542" y="598" on="0"/>
        <pt x="542" y="562" on="1"/>
        <pt x="542" y="500" on="0"/>
        <pt x="472" y="407" on="0"/>
        <pt x="409" y="373" on="1"/>
        <pt x="457" y="339" on="0"/>
        <pt x="511" y="255" on="0"/>
        <pt x="511" y="201" on="1"/>
        <pt x="511" y="156" on="0"/>
        <pt x="476" y="78" on="0"/>
        <pt x="411" y="21" on="0"/>
        <pt x="320" y="-12" on="0"/>
        <pt x="264" y="-12" on="1"/>
        <pt x="208" y="-12" on="0"/>
        <pt x="122" y="17" on="0"/>
        <pt x="64" y="68" on="0"/>
        <pt x="35" y="134" on="0"/>
      </contour>
      <contour>
        <pt x="159" y="183" on="1"/>
        <pt x="159" y="136" on="0"/>
        <pt x="220" y="84" on="0"/>
        <pt x="270" y="84" on="1"/>
        <pt x="324" y="84" on="0"/>
        <pt x="387" y="146" on="0"/>
        <pt x="387" y="195" on="1"/>
        <pt x="387" y="217" on="0"/>
        <pt x="374" y="252" on="0"/>
        <pt x="346" y="285" on="0"/>
        <pt x="300" y="317" on="0"/>
        <pt x="266" y="336" on="1"/>
        <pt x="159" y="273" on="0"/>
      </contour>
      <contour>
        <pt x="229" y="542" on="1"/>
        <pt x="229" y="506" on="0"/>
        <pt x="276" y="450" on="0"/>
        <pt x="330" y="420" on="1"/>
        <pt x="373" y="448" on="0"/>
        <pt x="422" y="515" on="0"/>
        <pt x="422" y="555" on="1"/>
        <pt x="422" y="591" on="0"/>
        <pt x="374" y="636" on="0"/>
        <pt x="330" y="636" on="1"/>
        <pt x="282" y="636" on="0"/>
        <pt x="229" y="580" on="0"/>
      </contour>
    </TTGlyph>
    <TTGlyph name="eight.den" xMin="21" yMin="-9" xMax="308" yMax="382">
      <component glyphName="eight.num" x="-51" y="-347" flags="0x204"/>
    </TTGlyph>
    <TTGlyph name="eight.inf" xMin="-4" yMin="-167" xMax="283" yMax="224">
      <component glyphName="eight.num" x="-76" y="-505" flags="0x204"/>
    </TTGlyph>
    <TTGlyph name="eight.num" xMin="72" yMin="338" xMax="359" yMax="729">
      <contour>
        <pt x="72" y="439" on="1"/>
        <pt x="72" y="507" on="0"/>
        <pt x="152" y="546" on="1"/>
        <pt x="132" y="561" on="0"/>
        <pt x="108" y="599" on="0"/>
        <pt x="108" y="625" on="1"/>
        <pt x="108" y="667" on="0"/>
        <pt x="177" y="729" on="0"/>
        <pt x="239" y="729" on="1"/>
        <pt x="295" y="729" on="0"/>
        <pt x="359" y="675" on="0"/>
        <pt x="359" y="634" on="1"/>
        <pt x="359" y="599" on="0"/>
        <pt x="319" y="553" on="0"/>
        <pt x="289" y="537" on="1"/>
        <pt x="312" y="521" on="0"/>
        <pt x="341" y="480" on="0"/>
        <pt x="341" y="452" on="1"/>
        <pt x="341" y="404" on="0"/>
        <pt x="266" y="338" on="0"/>
        <pt x="201" y="338" on="1"/>
        <pt x="141" y="338" on="0"/>
        <pt x="72" y="394" on="0"/>
      </contour>
      <contour>
        <pt x="260" y="450" on="1"/>
        <pt x="260" y="473" on="0"/>
        <pt x="226" y="502" on="0"/>
        <pt x="198" y="517" on="1"/>
        <pt x="174" y="502" on="0"/>
        <pt x="152" y="466" on="0"/>
        <pt x="152" y="448" on="1"/>
        <pt x="152" y="426" on="0"/>
        <pt x="181" y="399" on="0"/>
        <pt x="204" y="399" on="1"/>
        <pt x="230" y="399" on="0"/>
        <pt x="260" y="429" on="0"/>
      </contour>
      <contour>
        <pt x="187" y="625" on="1"/>
        <pt x="187" y="605" on="0"/>
        <pt x="216" y="578" on="0"/>
        <pt x="242" y="564" on="1"/>
        <pt x="280" y="593" on="0"/>
        <pt x="280" y="626" on="1"/>
        <pt x="280" y="644" on="0"/>
        <pt x="256" y="670" on="0"/>
        <pt x="235" y="670" on="1"/>
        <pt x="214" y="670" on="0"/>
        <pt x="187" y="644" on="0"/>
      </contour>
    </TTGlyph>
    <TTGlyph name="eight.sup" xMin="86" yMin="436" xMax="373" yMax="827">
      <component glyphName="eight.num" x="14" y="98" flags="0x204"/>
    </TTGlyph>
</ttFont>
